<svg xmlns="http://www.w3.org/2000/svg" xmlns:xlink="http://www.w3.org/1999/xlink" width="40" zoomAndPan="magnify" viewBox="0 0 30 30.000001" height="40" preserveAspectRatio="xMidYMid meet" version="1.0"><defs><clipPath id="325daf4c41"><path d="M 0.484375 7.652344 L 29.515625 7.652344 L 29.515625 21.441406 L 0.484375 21.441406 Z M 0.484375 7.652344 " clip-rule="nonzero"/></clipPath></defs><g clip-path="url(#325daf4c41)"><path fill="#000000" d="M 23.382812 21.03125 L 29.117188 15.28125 C 29.515625 14.878906 29.515625 14.222656 29.117188 13.824219 L 23.382812 8.0625 C 22.984375 7.660156 22.332031 7.660156 21.933594 8.0625 C 21.535156 8.460938 21.535156 9.117188 21.933594 9.515625 L 25.925781 13.515625 L 1.511719 13.515625 C 0.945312 13.515625 0.484375 13.980469 0.484375 14.546875 C 0.484375 15.113281 0.945312 15.574219 1.511719 15.574219 L 25.910156 15.574219 L 21.921875 19.578125 C 21.714844 19.78125 21.625 20.039062 21.625 20.3125 C 21.625 20.582031 21.730469 20.839844 21.921875 21.042969 C 22.332031 21.429688 22.984375 21.429688 23.382812 21.03125 Z M 23.382812 21.03125 " fill-opacity="1" fill-rule="nonzero"/></g></svg>