<svg xmlns="http://www.w3.org/2000/svg" xmlns:xlink="http://www.w3.org/1999/xlink" width="40" zoomAndPan="magnify" viewBox="0 0 30 30.000001" height="40" preserveAspectRatio="xMidYMid meet" version="1.0"><defs><clipPath id="10113bb55e"><path d="M 0.484375 7.652344 L 29.515625 7.652344 L 29.515625 21.441406 L 0.484375 21.441406 Z M 0.484375 7.652344 " clip-rule="nonzero"/></clipPath></defs><g clip-path="url(#10113bb55e)"><path fill="#f8f9ee" d="M 23.339844 20.964844 L 29.0625 15.242188 C 29.460938 14.84375 29.460938 14.191406 29.0625 13.796875 L 23.339844 8.058594 C 22.941406 7.660156 22.289062 7.660156 21.890625 8.058594 C 21.496094 8.457031 21.496094 9.109375 21.890625 9.503906 L 25.875 13.488281 L 1.507812 13.488281 C 0.945312 13.488281 0.484375 13.949219 0.484375 14.511719 C 0.484375 15.074219 0.945312 15.535156 1.507812 15.535156 L 25.863281 15.535156 L 21.878906 19.519531 C 21.675781 19.722656 21.585938 19.980469 21.585938 20.25 C 21.585938 20.515625 21.6875 20.773438 21.878906 20.976562 C 22.289062 21.363281 22.941406 21.363281 23.339844 20.964844 Z M 23.339844 20.964844 " fill-opacity="1" fill-rule="nonzero"/></g></svg>