<svg xmlns="http://www.w3.org/2000/svg" xmlns:xlink="http://www.w3.org/1999/xlink" width="40" zoomAndPan="magnify" viewBox="0 0 30 44.999999" height="60" preserveAspectRatio="xMidYMid meet" version="1.0"><defs><clipPath id="8455982191"><path d="M 0 0.640625 L 30 0.640625 L 30 44 L 0 44 Z M 0 0.640625 " clip-rule="nonzero"/></clipPath></defs><g clip-path="url(#8455982191)"><path fill="#c6afc0" d="M 15 0.652344 C 23.285156 0.652344 30 7.371094 30 15.65625 C 30 18.535156 29.1875 21.230469 27.777344 23.515625 C 26.085938 26.316406 24.394531 29.117188 22.707031 31.914062 C 20.648438 35.261719 18.980469 37.972656 16.921875 41.316406 C 15.109375 44.269531 14.984375 44.339844 13.160156 41.375 C 11.113281 38.046875 9.390625 35.246094 7.339844 31.914062 C 5.65625 29.148438 3.96875 26.378906 2.28125 23.609375 C 0.835938 21.304688 0 18.578125 0 15.65625 C 0 7.371094 6.714844 0.652344 15 0.652344 Z M 15 8.175781 C 18.714844 8.175781 21.726562 11.183594 21.726562 14.898438 C 21.726562 18.613281 18.714844 21.625 15 21.625 C 11.285156 21.625 8.277344 18.613281 8.277344 14.898438 C 8.277344 11.183594 11.285156 8.175781 15 8.175781 Z M 15 8.175781 " fill-opacity="1" fill-rule="evenodd"/></g></svg>