<svg xmlns="http://www.w3.org/2000/svg" xmlns:xlink="http://www.w3.org/1999/xlink" width="333" zoomAndPan="magnify" viewBox="0 0 249.75 241.499998" height="322" preserveAspectRatio="xMidYMid meet" version="1.0"><defs><clipPath id="2188990730"><path d="M 0.273438 86 L 2 86 L 2 89 L 0.273438 89 Z M 0.273438 86 " clip-rule="nonzero"/></clipPath><clipPath id="ba1e87c393"><path d="M 248 30 L 249.367188 30 L 249.367188 32 L 248 32 Z M 248 30 " clip-rule="nonzero"/></clipPath></defs><path fill="#c6afc0" d="M 168.828125 202.679688 C 169.644531 203.191406 171.277344 203.808594 172.3125 204.960938 C 173.605469 206.410156 172.347656 207.917969 171.527344 209.234375 C 169.339844 212.761719 163.25 213.144531 160.933594 209.835938 C 160.242188 208.847656 159.792969 207.289062 160.914062 206.441406 C 163.054688 204.824219 165.136719 202.933594 168.828125 202.679688 Z M 168.828125 202.679688 " fill-opacity="1" fill-rule="nonzero"/><path fill="#c6afc0" d="M 161.519531 94.769531 C 160.089844 96.933594 158.789062 98.914062 157.609375 100.695312 C 156.5 99.515625 155.414062 98.335938 154.296875 97.1875 C 152.785156 95.625 153.128906 91.996094 154.980469 90.871094 C 156.003906 90.25 157.105469 90.125 158.058594 91.128906 C 159.125 92.265625 160.207031 93.390625 161.519531 94.769531 Z M 161.519531 94.769531 " fill-opacity="1" fill-rule="nonzero"/><path fill="#c6afc0" d="M 120.414062 145.75 C 120.714844 145.410156 120.992188 145.09375 121.617188 144.386719 C 121.890625 145.90625 122.089844 147.003906 122.269531 148.035156 C 121.097656 148.566406 120.09375 148.878906 119.25 149.429688 C 116.089844 151.515625 114.894531 151.347656 112.488281 148.292969 C 112.007812 147.683594 111.535156 147.070312 111.179688 146.609375 C 112.699219 145.347656 114.136719 144.15625 115.832031 142.753906 C 117.125 143.597656 118.695312 144.625 120.414062 145.75 Z M 120.414062 145.75 " fill-opacity="1" fill-rule="nonzero"/><path fill="#c6afc0" d="M 150.660156 124.84375 C 150.96875 124.179688 151.15625 123.644531 151.449219 123.171875 C 152.597656 121.3125 154.191406 120.507812 155.871094 120.898438 C 157.296875 121.230469 158.3125 122.671875 158.574219 124.742188 C 158.789062 126.488281 157.511719 128.210938 155.46875 128.914062 C 153.660156 129.539062 152.984375 129.210938 151.835938 127.113281 C 151.457031 126.4375 151.117188 125.734375 150.660156 124.84375 Z M 150.660156 124.84375 " fill-opacity="1" fill-rule="nonzero"/><path fill="#c6afc0" d="M 98.816406 135.125 C 99.777344 135.355469 100.816406 135.609375 101.734375 135.832031 C 101.828125 137.003906 101.921875 137.859375 101.96875 138.714844 C 101.996094 139.261719 102.117188 139.882812 101.921875 140.355469 C 101.253906 141.9375 100.390625 143.503906 98.53125 143.828125 C 97.949219 143.929688 96.699219 143.277344 96.660156 142.882812 C 96.492188 141.160156 96.460938 139.375 96.792969 137.6875 C 96.964844 136.8125 98.003906 136.105469 98.816406 135.125 Z M 98.816406 135.125 " fill-opacity="1" fill-rule="nonzero"/><path fill="#c6afc0" d="M 130.855469 169.277344 C 130.746094 169.304688 130.636719 169.324219 130.53125 169.359375 C 129.476562 169.703125 128.15625 170.390625 127.574219 169.089844 C 127.261719 168.386719 127.996094 167.214844 128.382812 165.816406 C 128.324219 165.644531 127.636719 164.652344 127.894531 164.175781 C 128.507812 163.058594 129.511719 162.128906 130.480469 161.261719 C 130.839844 160.945312 131.589844 160.84375 132.085938 160.953125 C 133.011719 161.15625 134.28125 161.351562 134.660156 161.992188 C 134.96875 162.515625 134.304688 163.746094 133.863281 164.539062 C 133.554688 165.089844 132.953125 165.601562 132.363281 165.832031 C 130.613281 166.515625 130.410156 167.78125 130.789062 169.351562 Z M 130.855469 169.277344 " fill-opacity="1" fill-rule="nonzero"/><path fill="#c6afc0" d="M 143.703125 100.015625 C 144.855469 100.644531 145.90625 101.210938 147.0625 101.847656 C 146.453125 102.972656 145.929688 103.9375 145.308594 105.085938 C 146.703125 106.125 147.957031 107.296875 146.582031 109.394531 C 145.605469 109.214844 144.558594 108.878906 143.511719 108.871094 C 142.25 108.859375 141.246094 108.65625 140.949219 107.265625 C 140.625 105.753906 141.433594 104.9375 142.960938 104.472656 C 142.21875 102.941406 141.917969 101.445312 143.703125 100.015625 Z M 143.703125 100.015625 " fill-opacity="1" fill-rule="nonzero"/><path fill="#c6afc0" d="M 191.664062 150.050781 C 191.296875 149.214844 190.816406 148.339844 190.539062 147.40625 C 190.058594 145.785156 190.984375 144.074219 192.589844 143.285156 C 193.648438 142.765625 194.53125 142.898438 195.261719 143.839844 C 196.226562 145.074219 196.28125 147.410156 195.382812 148.558594 C 194.609375 149.554688 194.148438 149.746094 191.664062 150.050781 Z M 191.664062 150.050781 " fill-opacity="1" fill-rule="nonzero"/><path fill="#c6afc0" d="M 121.765625 81.101562 C 123.101562 79.953125 124.746094 79.167969 124.257812 77.117188 C 124.199219 76.886719 125.175781 76.136719 125.714844 76.085938 C 127.097656 75.957031 128.5625 77.5 128.515625 78.886719 C 128.445312 80.933594 126.769531 81.636719 125.308594 82.386719 C 123.882812 83.121094 122.824219 82.398438 121.765625 81.101562 Z M 121.765625 81.101562 " fill-opacity="1" fill-rule="nonzero"/><path fill="#c6afc0" d="M 96.464844 90.167969 C 98.558594 86.621094 100.214844 86.105469 103.351562 88.027344 C 101.289062 92.214844 99.070312 92.902344 96.464844 90.167969 Z M 96.464844 90.167969 " fill-opacity="1" fill-rule="nonzero"/><path fill="#c6afc0" d="M 48.816406 115.59375 C 51.363281 117.855469 51.816406 119.496094 50.527344 121.398438 C 49.671875 122.667969 48.515625 122.730469 47.519531 121.570312 C 45.820312 119.601562 46.1875 117.726562 48.816406 115.59375 Z M 48.816406 115.59375 " fill-opacity="1" fill-rule="nonzero"/><path fill="#c6afc0" d="M 72.832031 121.964844 C 75.441406 121.726562 76.359375 122.429688 76.464844 124.769531 C 76.535156 126.34375 76.292969 126.820312 74.613281 128.351562 C 71.921875 126.375 71.71875 125.609375 72.929688 121.859375 Z M 72.832031 121.964844 " fill-opacity="1" fill-rule="nonzero"/><path fill="#c6afc0" d="M 135.726562 132.128906 C 132.4375 130.003906 132.199219 128.679688 134.371094 125.707031 C 137.703125 127.175781 138.125 128.976562 135.726562 132.128906 Z M 135.726562 132.128906 " fill-opacity="1" fill-rule="nonzero"/><path fill="#c6afc0" d="M 130.785156 169.351562 C 131.8125 167.863281 133.113281 166.824219 134.980469 167.65625 C 135.515625 167.890625 136.207031 169.089844 136.050781 169.328125 C 135.460938 170.207031 134.648438 171.261719 133.726562 171.507812 C 132.84375 171.742188 131.6875 171.101562 130.714844 170.707031 C 130.589844 170.660156 130.800781 169.777344 130.851562 169.28125 C 130.855469 169.277344 130.785156 169.351562 130.785156 169.351562 Z M 130.785156 169.351562 " fill-opacity="1" fill-rule="nonzero"/><path fill="#c6afc0" d="M 115.84375 161.433594 C 114.617188 159.816406 115.367188 158.757812 117.007812 157.808594 C 118.808594 158.949219 120.660156 160.121094 122.144531 162.402344 C 119.425781 163.050781 117.714844 161.359375 115.722656 161.328125 C 115.722656 161.328125 115.84375 161.433594 115.84375 161.433594 Z M 115.84375 161.433594 " fill-opacity="1" fill-rule="nonzero"/><path fill="#c6afc0" d="M 96.132812 101.523438 C 97.847656 104.140625 97.859375 105.300781 96.292969 106.195312 C 95.007812 106.933594 93.878906 106.53125 93.308594 105.148438 C 92.542969 103.253906 93.054688 102.558594 96.132812 101.523438 Z M 96.132812 101.523438 " fill-opacity="1" fill-rule="nonzero"/><path fill="#c6afc0" d="M 207.136719 34.289062 C 210.191406 36.699219 210.316406 37.265625 208.59375 40.117188 C 204.925781 38.550781 204.507812 37.070312 207.136719 34.289062 Z M 207.136719 34.289062 " fill-opacity="1" fill-rule="nonzero"/><path fill="#c6afc0" d="M 81.925781 101.382812 C 83.660156 104.898438 83.578125 105.277344 80.839844 107.273438 C 78.207031 104.898438 78.488281 103.042969 81.925781 101.382812 Z M 81.925781 101.382812 " fill-opacity="1" fill-rule="nonzero"/><path fill="#c6afc0" d="M 188.769531 99.960938 C 187.355469 99 186.023438 97.960938 186.808594 95.972656 C 187.046875 95.359375 187.777344 94.722656 188.402344 94.5625 C 188.835938 94.453125 189.609375 95.027344 189.996094 95.496094 C 191.214844 96.980469 190.898438 98.066406 188.769531 99.960938 Z M 188.769531 99.960938 " fill-opacity="1" fill-rule="nonzero"/><path fill="#c6afc0" d="M 83.730469 94 C 84.230469 96.007812 84.160156 97.589844 82.382812 98.589844 C 81.050781 99.339844 79.9375 98.664062 79.929688 97.140625 C 79.925781 95.007812 80.863281 94.203125 83.730469 94 Z M 83.730469 94 " fill-opacity="1" fill-rule="nonzero"/><path fill="#c6afc0" d="M 58.652344 182.722656 C 60.085938 182.664062 60.675781 183.476562 60.675781 184.777344 C 60.675781 186.140625 59.648438 187.03125 58.28125 186.9375 C 56.96875 186.851562 56.195312 186.230469 56.269531 184.828125 C 56.351562 183.363281 57.164062 182.652344 58.652344 182.722656 Z M 58.652344 182.722656 " fill-opacity="1" fill-rule="nonzero"/><path fill="#c6afc0" d="M 57.792969 164.925781 C 61.644531 166.457031 61.988281 167.066406 60.945312 170.558594 C 59.65625 169.878906 58.445312 169.234375 57.074219 168.507812 C 57.292969 167.425781 57.523438 166.289062 57.792969 164.925781 Z M 57.792969 164.925781 " fill-opacity="1" fill-rule="nonzero"/><path fill="#c6afc0" d="M 150.554688 96.0625 C 149.265625 94.671875 148.542969 93.671875 147.613281 92.945312 C 146.691406 92.234375 145.558594 91.804688 144.125 91.039062 C 144.957031 90.703125 145.488281 90.503906 146.003906 90.277344 C 148.433594 89.214844 149.953125 89.929688 149.46875 92.308594 C 149.136719 93.933594 150.847656 93.902344 150.554688 96.0625 Z M 150.554688 96.0625 " fill-opacity="1" fill-rule="nonzero"/><path fill="#c6afc0" d="M 58.648438 120.859375 C 59.753906 121.675781 60.558594 122.273438 61.585938 123.039062 C 60.824219 123.691406 59.371094 123.707031 59.339844 125.191406 C 59.335938 125.511719 58.15625 125.816406 57.519531 126.125 C 57.246094 125.363281 56.589844 124.480469 56.78125 123.863281 C 57.113281 122.796875 57.96875 121.894531 58.648438 120.859375 Z M 58.648438 120.859375 " fill-opacity="1" fill-rule="nonzero"/><path fill="#c6afc0" d="M 137.84375 155.566406 C 136.945312 155.339844 136.417969 155.179688 135.882812 155.078125 C 135.457031 154.996094 135.019531 154.984375 134.351562 154.910156 C 134.949219 153.835938 135.34375 152.835938 135.996094 152.050781 C 136.410156 151.550781 137.25 151.035156 137.824219 151.109375 C 138.949219 151.246094 139.0625 152.257812 138.789062 153.203125 C 138.582031 153.929688 138.226562 154.621094 137.84375 155.566406 Z M 137.84375 155.566406 " fill-opacity="1" fill-rule="nonzero"/><path fill="#c6afc0" d="M 86.863281 144.625 C 86.910156 144.066406 86.859375 143.484375 87.03125 142.980469 C 87.40625 141.882812 88.011719 140.714844 89.375 141.097656 C 90.59375 141.445312 91.042969 142.699219 90.660156 143.847656 C 90.234375 145.140625 89.261719 145.867188 87.792969 145.074219 C 87.503906 144.921875 87.203125 144.785156 86.863281 144.625 Z M 86.863281 144.625 " fill-opacity="1" fill-rule="nonzero"/><path fill="#c6afc0" d="M 134.289062 48.953125 C 137.007812 49.722656 139.898438 48.105469 141.429688 51.289062 C 137.695312 52.300781 137.308594 52.1875 134.289062 48.953125 Z M 134.289062 48.953125 " fill-opacity="1" fill-rule="nonzero"/><path fill="#c6afc0" d="M 104.03125 169.882812 C 106.402344 167.789062 107.332031 167.539062 108.222656 168.863281 C 108.535156 169.324219 108.507812 170.429688 108.15625 170.847656 C 107.128906 172.089844 105.570312 171.707031 104.03125 169.882812 Z M 104.03125 169.882812 " fill-opacity="1" fill-rule="nonzero"/><path fill="#c6afc0" d="M 109.949219 158.273438 C 109.191406 160.847656 107.414062 160.664062 105.589844 160.507812 C 105.753906 157.066406 107.015625 156.410156 109.949219 158.273438 Z M 109.949219 158.273438 " fill-opacity="1" fill-rule="nonzero"/><path fill="#c6afc0" d="M 135.933594 137.167969 C 135.285156 134.511719 135.511719 133.738281 137.132812 133.070312 C 138.300781 132.585938 139.078125 133.09375 139.117188 134.367188 C 139.175781 136.171875 138.488281 136.777344 135.933594 137.167969 Z M 135.933594 137.167969 " fill-opacity="1" fill-rule="nonzero"/><path fill="#c6afc0" d="M 76.847656 91.695312 C 75.527344 93.257812 74.5625 94.640625 73.332031 95.710938 C 72.957031 96.039062 71.84375 95.519531 71.027344 95.019531 C 72.960938 94.035156 73.089844 90.464844 76.847656 91.695312 Z M 76.847656 91.695312 " fill-opacity="1" fill-rule="nonzero"/><path fill="#c6afc0" d="M 131.660156 188.597656 C 132.4375 189.820312 133.125 190.5 133.320312 191.304688 C 133.5625 192.328125 132.351562 193.1875 131.097656 193.082031 C 129.78125 192.976562 129.351562 191.898438 129.542969 190.992188 C 129.707031 190.25 130.660156 189.679688 131.660156 188.597656 Z M 131.660156 188.597656 " fill-opacity="1" fill-rule="nonzero"/><path fill="#c6afc0" d="M 101.425781 117.082031 C 98.992188 116.125 98.414062 115.421875 99.023438 114.085938 C 99.460938 113.121094 100.175781 112.8125 101.191406 113.277344 C 102.613281 113.941406 102.664062 114.652344 101.425781 117.082031 Z M 101.425781 117.082031 " fill-opacity="1" fill-rule="nonzero"/><path fill="#c6afc0" d="M 105.589844 63.792969 C 106.953125 62.957031 107.714844 62.140625 108.457031 62.148438 C 109.089844 62.15625 109.703125 63.125 110.328125 63.667969 C 109.707031 64.332031 109.152344 65.433594 108.445312 65.539062 C 107.78125 65.640625 106.957031 64.6875 105.589844 63.792969 Z M 105.589844 63.792969 " fill-opacity="1" fill-rule="nonzero"/><path fill="#c6afc0" d="M 79.960938 159.820312 C 79.261719 158.882812 78.707031 157.808594 79.757812 156.902344 C 80.214844 156.507812 81.304688 156.378906 81.835938 156.652344 C 82.480469 156.988281 83.128906 157.828125 83.25 158.535156 C 83.4375 159.660156 82.460938 159.960938 81.492188 159.941406 C 80.945312 159.929688 80.402344 159.808594 79.855469 159.742188 Z M 79.960938 159.820312 " fill-opacity="1" fill-rule="nonzero"/><path fill="#c6afc0" d="M 54.5 120.449219 C 53.640625 119.09375 54.128906 117.882812 55.375 117.363281 C 56.175781 117.03125 57.3125 117.519531 58.414062 117.648438 C 57.378906 120.519531 57.378906 120.519531 54.5 120.449219 Z M 54.5 120.449219 " fill-opacity="1" fill-rule="nonzero"/><path fill="#c6afc0" d="M 123.332031 238.695312 C 125.757812 236.75 125.996094 236.769531 127.839844 239.039062 C 125.386719 241.007812 125.246094 240.996094 123.332031 238.695312 Z M 123.332031 238.695312 " fill-opacity="1" fill-rule="nonzero"/><path fill="#c6afc0" d="M 83.589844 121.195312 C 85.113281 121.460938 86.050781 121.625 86.816406 121.757812 C 86.695312 123.429688 86.585938 124.921875 86.464844 126.613281 C 83.589844 125.941406 84.175781 123.628906 83.589844 121.195312 Z M 83.589844 121.195312 " fill-opacity="1" fill-rule="nonzero"/><path fill="#c6afc0" d="M 186.234375 179.117188 C 185.65625 182.46875 185.65625 182.46875 182.71875 182.09375 C 182.808594 178.894531 183.101562 178.625 186.234375 179.117188 Z M 186.234375 179.117188 " fill-opacity="1" fill-rule="nonzero"/><path fill="#c6afc0" d="M 122.0625 167.832031 C 123.847656 167.789062 125.226562 168.789062 125.1875 169.820312 C 125.152344 170.992188 124.265625 171.195312 123.328125 171.195312 C 122.007812 171.195312 121.203125 170.425781 121.171875 169.195312 C 121.15625 168.671875 121.863281 168.128906 122.0625 167.832031 Z M 122.0625 167.832031 " fill-opacity="1" fill-rule="nonzero"/><path fill="#c6afc0" d="M 97.007812 117.878906 C 97.863281 118.9375 98.808594 119.613281 98.867188 120.355469 C 98.90625 120.886719 97.691406 122.03125 97.140625 121.96875 C 96.339844 121.878906 95.636719 120.945312 94.890625 120.375 C 95.488281 119.671875 96.085938 118.964844 97.007812 117.878906 Z M 97.007812 117.878906 " fill-opacity="1" fill-rule="nonzero"/><path fill="#c6afc0" d="M 174.277344 116.398438 C 174.546875 116.238281 174.726562 116.058594 174.921875 116.027344 C 176.285156 115.835938 177.472656 116.101562 177.621094 117.695312 C 177.652344 118.070312 176.894531 118.882812 176.503906 118.878906 C 174.945312 118.863281 174.027344 118.085938 174.277344 116.398438 Z M 174.277344 116.398438 " fill-opacity="1" fill-rule="nonzero"/><path fill="#c6afc0" d="M 65.65625 183.667969 C 67.417969 185.308594 67.734375 186.355469 66.625 187.121094 C 66.257812 187.371094 65.257812 187.25 64.949219 186.925781 C 63.699219 185.574219 64.421875 184.550781 65.65625 183.667969 Z M 65.65625 183.667969 " fill-opacity="1" fill-rule="nonzero"/><path fill="#c6afc0" d="M 93.777344 67.707031 C 92.628906 70.0625 92.628906 70.0625 90.320312 69.871094 C 90.425781 67.0625 90.933594 66.707031 93.777344 67.707031 Z M 93.777344 67.707031 " fill-opacity="1" fill-rule="nonzero"/><path fill="#c6afc0" d="M 102.925781 99.570312 C 101.652344 100.378906 100.914062 101.214844 100.308594 101.128906 C 99.71875 101.042969 99.03125 100.078125 98.84375 99.378906 C 98.757812 99.0625 99.796875 98.046875 100.296875 98.066406 C 100.992188 98.097656 101.65625 98.796875 102.925781 99.570312 Z M 102.925781 99.570312 " fill-opacity="1" fill-rule="nonzero"/><path fill="#c6afc0" d="M 115.113281 123.550781 C 113.597656 123.550781 112.367188 123.550781 110.570312 123.550781 C 112.164062 122.332031 112.269531 120.210938 114.761719 120.414062 C 114.882812 121.476562 114.996094 122.5 115.113281 123.550781 Z M 115.113281 123.550781 " fill-opacity="1" fill-rule="nonzero"/><path fill="#c6afc0" d="M 113.199219 163.34375 C 112.082031 164.171875 111.496094 164.851562 110.769531 165.082031 C 109.929688 165.347656 108.683594 163.996094 109.058594 163.195312 C 109.367188 162.539062 110.214844 161.777344 110.859375 161.738281 C 111.464844 161.703125 112.121094 162.558594 113.199219 163.34375 Z M 113.199219 163.34375 " fill-opacity="1" fill-rule="nonzero"/><path fill="#c6afc0" d="M 85.835938 131.777344 C 84.625 129.1875 84.625 129.1875 86.71875 127.902344 C 87.972656 130.117188 87.972656 130.117188 85.835938 131.777344 Z M 85.835938 131.777344 " fill-opacity="1" fill-rule="nonzero"/><path fill="#c6afc0" d="M 66.105469 206.457031 C 67.464844 205.855469 68.261719 205.261719 69.070312 205.246094 C 69.550781 205.238281 70.042969 206.160156 70.527344 206.664062 C 69.789062 207.179688 69.101562 207.917969 68.289062 208.105469 C 67.859375 208.203125 67.210938 207.328125 66.105469 206.457031 Z M 66.105469 206.457031 " fill-opacity="1" fill-rule="nonzero"/><path fill="#c6afc0" d="M 66.394531 191.972656 C 66.113281 193.914062 65.957031 195.042969 65.710938 196.769531 C 64.429688 195.8125 63.644531 195.21875 62.566406 194.410156 C 63.789062 193.632812 64.738281 193.03125 66.394531 191.972656 Z M 66.394531 191.972656 " fill-opacity="1" fill-rule="nonzero"/><path fill="#c6afc0" d="M 114.285156 88.460938 C 113.339844 87.648438 112.394531 86.839844 111.242188 85.851562 C 112.496094 84.769531 113.597656 84.664062 114.261719 85.390625 C 114.859375 86.042969 114.914062 87.191406 115.214844 88.121094 C 114.902344 88.234375 114.59375 88.351562 114.285156 88.460938 Z M 114.285156 88.460938 " fill-opacity="1" fill-rule="nonzero"/><path fill="#c6afc0" d="M 61.71875 226.601562 C 63.976562 227.078125 64.644531 228.242188 64.164062 230.214844 C 61.4375 229.832031 61.398438 229.773438 61.71875 226.601562 Z M 61.71875 226.601562 " fill-opacity="1" fill-rule="nonzero"/><path fill="#c6afc0" d="M 110.996094 200.433594 C 111.027344 202.75 110.082031 203.488281 107.914062 203.085938 C 108.070312 201.210938 108.59375 200.0625 110.996094 200.433594 Z M 110.996094 200.433594 " fill-opacity="1" fill-rule="nonzero"/><path fill="#c6afc0" d="M 177.496094 39.425781 C 176.863281 37.140625 176.863281 37.140625 179.046875 36.414062 C 179.675781 38.714844 179.675781 38.714844 177.496094 39.425781 Z M 177.496094 39.425781 " fill-opacity="1" fill-rule="nonzero"/><path fill="#c6afc0" d="M 80.660156 87.652344 C 80.617188 85.296875 80.617188 85.296875 82.574219 84.597656 C 82.847656 86.496094 82.847656 86.496094 80.660156 87.652344 Z M 80.660156 87.652344 " fill-opacity="1" fill-rule="nonzero"/><path fill="#c6afc0" d="M 110.984375 129.421875 C 112.445312 130.707031 112.660156 131.898438 110.914062 133.117188 C 109.039062 131.253906 109.039062 131.253906 110.984375 129.421875 Z M 110.984375 129.421875 " fill-opacity="1" fill-rule="nonzero"/><path fill="#c6afc0" d="M 105.878906 144.566406 C 106.996094 142.65625 108.191406 142.46875 109.890625 143.585938 C 108.894531 145.359375 107.808594 145.898438 105.878906 144.566406 Z M 105.878906 144.566406 " fill-opacity="1" fill-rule="nonzero"/><path fill="#c6afc0" d="M 121.402344 200.648438 C 119.636719 201.703125 118.589844 201.28125 117.714844 199.789062 C 119.953125 198.523438 119.953125 198.523438 121.402344 200.648438 Z M 121.402344 200.648438 " fill-opacity="1" fill-rule="nonzero"/><path fill="#c6afc0" d="M 113.84375 183.222656 C 114.988281 183.425781 115.996094 183.601562 117.390625 183.847656 C 117.078125 184.726562 116.828125 185.425781 116.394531 186.636719 C 115.414062 185.199219 113.742188 185.160156 113.84375 183.222656 Z M 113.84375 183.222656 " fill-opacity="1" fill-rule="nonzero"/><path fill="#c6afc0" d="M 139.40625 119.882812 C 141.765625 119.855469 141.765625 119.855469 141.933594 122.269531 C 140.140625 122.425781 139.429688 121.59375 139.40625 119.882812 Z M 139.40625 119.882812 " fill-opacity="1" fill-rule="nonzero"/><path fill="#c6afc0" d="M 196.296875 70.386719 C 196.148438 72.085938 195.402344 72.996094 193.5625 72.75 C 193.632812 70.015625 193.632812 70.015625 196.296875 70.386719 Z M 196.296875 70.386719 " fill-opacity="1" fill-rule="nonzero"/><path fill="#c6afc0" d="M 60.449219 84.773438 C 61.019531 85.652344 61.496094 86.101562 61.613281 86.628906 C 61.835938 87.636719 61.121094 88.101562 60.277344 87.917969 C 59.792969 87.8125 59.050781 87.085938 59.105469 86.742188 C 59.191406 86.152344 59.8125 85.644531 60.449219 84.773438 Z M 60.449219 84.773438 " fill-opacity="1" fill-rule="nonzero"/><path fill="#c6afc0" d="M 80.65625 177.300781 C 79.296875 176.617188 77.910156 176.113281 79.050781 174.175781 C 81.25 174.8125 81.25 174.8125 80.65625 177.300781 Z M 80.65625 177.300781 " fill-opacity="1" fill-rule="nonzero"/><path fill="#c6afc0" d="M 169.226562 100.003906 C 168.832031 99.875 168.707031 99.863281 168.625 99.800781 C 167.664062 99.042969 167.035156 98.167969 168.066406 97.058594 C 168.242188 96.871094 168.953125 96.898438 169.191406 97.097656 C 170.222656 97.957031 170.230469 98.921875 169.226562 100.003906 Z M 169.226562 100.003906 " fill-opacity="1" fill-rule="nonzero"/><path fill="#c6afc0" d="M 78.921875 148.074219 C 80.761719 146.628906 81.742188 147.285156 82.820312 149.128906 C 80.96875 149.84375 79.75 149.972656 78.921875 148.074219 Z M 78.921875 148.074219 " fill-opacity="1" fill-rule="nonzero"/><path fill="#c6afc0" d="M 154.351562 1.109375 C 153.417969 1.773438 152.90625 2.386719 152.3125 2.464844 C 151.960938 2.511719 151.164062 1.699219 151.179688 1.296875 C 151.199219 0.859375 151.878906 0.175781 152.351562 0.105469 C 152.816406 0.0273438 153.386719 0.585938 154.351562 1.109375 Z M 154.351562 1.109375 " fill-opacity="1" fill-rule="nonzero"/><path fill="#c6afc0" d="M 52.15625 172.867188 C 52.675781 173.671875 53.253906 174.28125 53.148438 174.445312 C 52.777344 175 52.171875 175.40625 51.65625 175.867188 C 51.339844 175.496094 50.691406 175 50.773438 174.777344 C 50.996094 174.171875 51.53125 173.683594 52.15625 172.867188 Z M 52.15625 172.867188 " fill-opacity="1" fill-rule="nonzero"/><path fill="#c6afc0" d="M 94.464844 19.871094 C 94.710938 20.46875 95.234375 21.121094 95.128906 21.652344 C 95.007812 22.246094 94.320312 22.722656 93.882812 23.257812 C 93.484375 22.835938 92.804688 22.445312 92.757812 21.984375 C 92.703125 21.507812 93.261719 20.96875 93.550781 20.460938 C 93.855469 20.261719 94.160156 20.066406 94.464844 19.871094 Z M 94.464844 19.871094 " fill-opacity="1" fill-rule="nonzero"/><path fill="#c6afc0" d="M 65.886719 158.210938 C 67.863281 158.558594 68.238281 159.554688 67.414062 161.382812 C 65.445312 160.988281 65.085938 159.984375 65.886719 158.210938 Z M 65.886719 158.210938 " fill-opacity="1" fill-rule="nonzero"/><path fill="#c6afc0" d="M 43.566406 135.15625 C 44.191406 134.597656 44.648438 133.878906 45.066406 133.902344 C 45.542969 133.925781 45.984375 134.613281 46.445312 135.011719 C 45.996094 135.527344 45.539062 136.046875 45.085938 136.5625 C 44.644531 136.152344 44.207031 135.75 43.566406 135.15625 Z M 43.566406 135.15625 " fill-opacity="1" fill-rule="nonzero"/><path fill="#c6afc0" d="M 47.734375 141.84375 C 49.53125 142.117188 50.46875 142.738281 49.863281 144.117188 C 49.75 144.382812 49.171875 144.441406 48.808594 144.589844 C 48.445312 143.679688 48.089844 142.761719 47.734375 141.84375 Z M 47.734375 141.84375 " fill-opacity="1" fill-rule="nonzero"/><path fill="#c6afc0" d="M 149.515625 167.992188 C 148.203125 168.074219 147.15625 167.878906 147.386719 166.332031 C 147.429688 166.027344 148.230469 165.554688 148.601562 165.621094 C 150.140625 165.894531 150.074219 166.871094 149.515625 167.992188 Z M 149.515625 167.992188 " fill-opacity="1" fill-rule="nonzero"/><path fill="#c6afc0" d="M 146.933594 123.679688 C 147.429688 123.367188 148.011719 122.726562 148.398438 122.824219 C 148.855469 122.941406 149.148438 123.707031 149.515625 124.1875 C 148.992188 124.492188 148.496094 124.980469 147.9375 125.0625 C 147.460938 125.132812 146.917969 124.75 146.40625 124.566406 C 146.585938 124.273438 146.761719 123.980469 146.933594 123.679688 Z M 146.933594 123.679688 " fill-opacity="1" fill-rule="nonzero"/><path fill="#c6afc0" d="M 95.488281 130.796875 C 94.648438 131.347656 94.058594 132.007812 93.703125 131.898438 C 93.222656 131.753906 92.636719 131.03125 92.621094 130.535156 C 92.609375 130.09375 93.300781 129.628906 93.679688 129.171875 C 94.191406 129.636719 94.703125 130.09375 95.488281 130.796875 Z M 95.488281 130.796875 " fill-opacity="1" fill-rule="nonzero"/><path fill="#c6afc0" d="M 119.820312 127.546875 C 120.179688 128.292969 120.519531 129 120.949219 129.878906 C 120.804688 130.011719 120.300781 130.480469 119.671875 131.0625 C 118.722656 129.914062 118.164062 128.988281 119.820312 127.546875 Z M 119.820312 127.546875 " fill-opacity="1" fill-rule="nonzero"/><path fill="#c6afc0" d="M 175.460938 96.902344 C 175.996094 97.535156 176.648438 98.019531 176.566406 98.269531 C 176.394531 98.800781 175.839844 99.210938 175.441406 99.667969 C 175.023438 99.253906 174.316406 98.871094 174.273438 98.425781 C 174.234375 98.019531 174.921875 97.546875 175.460938 96.902344 Z M 175.460938 96.902344 " fill-opacity="1" fill-rule="nonzero"/><path fill="#c6afc0" d="M 83.570312 218.183594 C 83.964844 218.992188 84.417969 219.542969 84.453125 220.121094 C 84.480469 220.496094 83.902344 220.910156 83.597656 221.308594 C 83.066406 220.886719 82.535156 220.460938 82.003906 220.042969 C 82.320312 219.664062 82.640625 219.285156 83.570312 218.183594 Z M 83.570312 218.183594 " fill-opacity="1" fill-rule="nonzero"/><path fill="#c6afc0" d="M 102.21875 125.003906 C 102.789062 125.691406 103.324219 126.109375 103.503906 126.648438 C 103.570312 126.855469 102.679688 127.691406 102.484375 127.609375 C 101.953125 127.394531 101.441406 126.902344 101.183594 126.386719 C 101.09375 126.191406 101.726562 125.636719 102.21875 125.003906 Z M 102.21875 125.003906 " fill-opacity="1" fill-rule="nonzero"/><path fill="#c6afc0" d="M 138.136719 165.445312 C 137.222656 166.140625 136.3125 166.351562 135.703125 165.15625 C 135.558594 164.878906 135.945312 163.972656 136.242188 163.886719 C 137.445312 163.539062 138.175781 164.039062 138.136719 165.445312 Z M 138.136719 165.445312 " fill-opacity="1" fill-rule="nonzero"/><path fill="#c6afc0" d="M 68.484375 91.847656 C 67.886719 90.496094 68.214844 89.632812 69.648438 89.152344 C 70.546875 91.152344 70.546875 91.152344 68.484375 91.847656 Z M 68.484375 91.847656 " fill-opacity="1" fill-rule="nonzero"/><path fill="#c6afc0" d="M 159.210938 146.972656 C 159.835938 146.503906 160.230469 145.96875 160.621094 145.972656 C 161.003906 145.980469 161.386719 146.527344 161.769531 146.839844 C 161.367188 147.253906 161.023438 147.816406 160.535156 148.011719 C 160.316406 148.097656 159.796875 147.453125 159.210938 146.972656 Z M 159.210938 146.972656 " fill-opacity="1" fill-rule="nonzero"/><path fill="#c6afc0" d="M 122.308594 137.253906 C 120.957031 136.035156 121.03125 135.070312 122.660156 134 C 123.589844 135.304688 123.738281 136.292969 122.308594 137.253906 Z M 122.308594 137.253906 " fill-opacity="1" fill-rule="nonzero"/><path fill="#c6afc0" d="M 145.375 28.960938 C 145.933594 29.683594 146.617188 30.195312 146.5625 30.609375 C 146.5 31.09375 145.804688 31.496094 145.378906 31.941406 C 144.957031 31.492188 144.269531 31.089844 144.199219 30.59375 C 144.140625 30.191406 144.824219 29.679688 145.375 28.960938 Z M 145.375 28.960938 " fill-opacity="1" fill-rule="nonzero"/><path fill="#c6afc0" d="M 34.933594 111.632812 C 34.257812 112.070312 33.648438 112.648438 33.484375 112.542969 C 33.007812 112.234375 32.628906 111.6875 32.417969 111.148438 C 32.367188 111.019531 33.210938 110.257812 33.460938 110.339844 C 33.957031 110.507812 34.320312 111.058594 34.933594 111.632812 Z M 34.933594 111.632812 " fill-opacity="1" fill-rule="nonzero"/><path fill="#c6afc0" d="M 173.496094 156.476562 C 175.132812 157.179688 175.589844 157.988281 174.605469 159.453125 C 173.253906 158.902344 172.507812 158.253906 173.496094 156.476562 Z M 173.496094 156.476562 " fill-opacity="1" fill-rule="nonzero"/><path fill="#c6afc0" d="M 59.644531 176.027344 C 59.433594 175.296875 59.214844 174.5625 59.003906 173.832031 C 59.394531 173.722656 60.09375 173.46875 60.125 173.53125 C 60.445312 174.21875 60.667969 174.953125 60.914062 175.679688 C 60.488281 175.789062 60.066406 175.910156 59.644531 176.027344 Z M 59.644531 176.027344 " fill-opacity="1" fill-rule="nonzero"/><path fill="#c6afc0" d="M 170.582031 193.5625 C 171.734375 194.910156 171.671875 195.824219 170.484375 196.785156 C 169.1875 195.785156 169.257812 194.847656 170.582031 193.5625 Z M 170.582031 193.5625 " fill-opacity="1" fill-rule="nonzero"/><path fill="#c6afc0" d="M 39.347656 120.171875 C 38.597656 118.691406 38.597656 118.691406 39.691406 117.527344 C 40.425781 118.949219 40.425781 118.949219 39.347656 120.171875 Z M 39.347656 120.171875 " fill-opacity="1" fill-rule="nonzero"/><path fill="#c6afc0" d="M 149.253906 137.167969 C 149.542969 137.957031 149.96875 138.5625 149.8125 138.804688 C 149.53125 139.253906 148.910156 139.488281 148.429688 139.8125 C 148.191406 139.398438 147.667969 138.859375 147.785156 138.589844 C 147.992188 138.113281 148.574219 137.792969 149.253906 137.167969 Z M 149.253906 137.167969 " fill-opacity="1" fill-rule="nonzero"/><path fill="#c6afc0" d="M 147.417969 127.726562 C 149.003906 128.28125 149.976562 128.617188 151.410156 129.125 C 149.265625 130.144531 149.265625 130.144531 147.417969 127.726562 Z M 147.417969 127.726562 " fill-opacity="1" fill-rule="nonzero"/><path fill="#c6afc0" d="M 105.03125 206.546875 C 105.515625 207.296875 106.035156 207.742188 105.988281 208.121094 C 105.941406 208.542969 105.414062 209.15625 105.027344 209.21875 C 104.691406 209.269531 103.882812 208.609375 103.921875 208.375 C 104.011719 207.835938 104.496094 207.367188 105.03125 206.546875 Z M 105.03125 206.546875 " fill-opacity="1" fill-rule="nonzero"/><path fill="#c6afc0" d="M 196.273438 156.058594 C 197.386719 156.03125 198.121094 156.402344 197.8125 157.570312 C 197.730469 157.878906 196.894531 158.308594 196.621094 158.195312 C 195.507812 157.710938 195.726562 156.886719 196.273438 156.058594 Z M 196.273438 156.058594 " fill-opacity="1" fill-rule="nonzero"/><path fill="#c6afc0" d="M 65.511719 108.394531 C 65.1875 107.839844 64.859375 107.289062 64.539062 106.734375 C 64.875 106.558594 65.210938 106.378906 65.542969 106.203125 C 65.84375 106.789062 66.144531 107.375 66.445312 107.960938 C 66.132812 108.101562 65.820312 108.246094 65.511719 108.394531 Z M 65.511719 108.394531 " fill-opacity="1" fill-rule="nonzero"/><path fill="#c6afc0" d="M 109.660156 101.757812 C 110.296875 102.285156 110.933594 102.8125 111.863281 103.582031 C 109.832031 104.417969 108.988281 104.203125 109.660156 101.757812 Z M 109.660156 101.757812 " fill-opacity="1" fill-rule="nonzero"/><path fill="#c6afc0" d="M 145.46875 57.996094 C 144.703125 58.390625 144.183594 58.875 143.894531 58.765625 C 143.414062 58.578125 143.078125 58.011719 142.679688 57.605469 C 143.0625 57.292969 143.503906 56.679688 143.816406 56.742188 C 144.308594 56.832031 144.710938 57.382812 145.46875 57.996094 Z M 145.46875 57.996094 " fill-opacity="1" fill-rule="nonzero"/><path fill="#c6afc0" d="M 177.914062 106.351562 C 179.152344 106.777344 179.695312 107.453125 178.996094 108.613281 C 178.890625 108.789062 178.320312 108.898438 178.140625 108.777344 C 177.066406 108.085938 177.023438 107.265625 177.914062 106.351562 Z M 177.914062 106.351562 " fill-opacity="1" fill-rule="nonzero"/><path fill="#c6afc0" d="M 126.058594 83.523438 C 127 84.511719 127.714844 85.042969 127.636719 85.207031 C 127.402344 85.714844 126.863281 86.082031 126.4375 86.5 C 126.054688 86.0625 125.46875 85.679688 125.355469 85.179688 C 125.261719 84.769531 125.730469 84.230469 126.058594 83.523438 Z M 126.058594 83.523438 " fill-opacity="1" fill-rule="nonzero"/><path fill="#c6afc0" d="M 110.160156 41.054688 C 110.574219 40.320312 110.984375 39.589844 111.394531 38.851562 C 111.742188 39.0625 112.082031 39.277344 112.429688 39.484375 C 111.984375 40.207031 111.535156 40.9375 111.089844 41.664062 C 110.777344 41.464844 110.46875 41.261719 110.160156 41.054688 Z M 110.160156 41.054688 " fill-opacity="1" fill-rule="nonzero"/><path fill="#c6afc0" d="M 203.335938 152.753906 C 204.945312 154.078125 204.945312 154.867188 204.128906 155.566406 C 203.929688 155.734375 203.039062 155.480469 203.042969 155.441406 C 203.066406 154.683594 203.179688 153.941406 203.335938 152.753906 Z M 203.335938 152.753906 " fill-opacity="1" fill-rule="nonzero"/><path fill="#c6afc0" d="M 115.84375 161.433594 C 115.84375 161.433594 115.722656 161.328125 115.722656 161.328125 C 115.375 163.199219 115.375 163.199219 113.40625 162.511719 C 113.945312 161.402344 114.875 161.386719 115.84375 161.433594 Z M 115.84375 161.433594 " fill-opacity="1" fill-rule="nonzero"/><path fill="#c6afc0" d="M 21.042969 136.316406 C 21.957031 136.855469 22.449219 137.503906 21.554688 138.425781 C 21.398438 138.585938 20.828125 138.59375 20.679688 138.445312 C 19.875 137.625 19.96875 136.875 21.042969 136.316406 Z M 21.042969 136.316406 " fill-opacity="1" fill-rule="nonzero"/><path fill="#c6afc0" d="M 176.078125 145.242188 C 176.484375 146.128906 176.816406 146.585938 176.878906 147.074219 C 176.921875 147.425781 176.609375 147.824219 176.371094 148.40625 C 174.808594 147.609375 174.527344 146.828125 176.078125 145.242188 Z M 176.078125 145.242188 " fill-opacity="1" fill-rule="nonzero"/><path fill="#c6afc0" d="M 161.472656 57.707031 C 161.804688 58.515625 162.222656 59.042969 162.101562 59.371094 C 161.972656 59.71875 161.347656 59.96875 160.898438 60.042969 C 160.746094 60.074219 160.242188 59.375 160.3125 59.148438 C 160.453125 58.71875 160.898438 58.382812 161.472656 57.707031 Z M 161.472656 57.707031 " fill-opacity="1" fill-rule="nonzero"/><path fill="#c6afc0" d="M 91.238281 103.9375 C 90.433594 103.9375 89.636719 103.9375 88.273438 103.9375 C 89.617188 102.394531 90.445312 102.125 91.238281 103.9375 Z M 91.238281 103.9375 " fill-opacity="1" fill-rule="nonzero"/><path fill="#c6afc0" d="M 72.929688 121.859375 C 72.714844 121.835938 72.5 121.800781 72.277344 121.796875 C 71.3125 121.761719 70.816406 121.226562 71.089844 120.332031 C 71.195312 119.984375 71.875 119.8125 72.292969 119.5625 C 72.585938 120.058594 72.949219 120.523438 73.136719 121.050781 C 73.21875 121.289062 72.949219 121.648438 72.832031 121.960938 C 72.832031 121.964844 72.929688 121.859375 72.929688 121.859375 Z M 72.929688 121.859375 " fill-opacity="1" fill-rule="nonzero"/><path fill="#c6afc0" d="M 136.898438 90.265625 C 135.613281 90.101562 134.683594 89.929688 134.824219 88.207031 C 136.195312 88.117188 137.023438 88.402344 136.898438 90.265625 Z M 136.898438 90.265625 " fill-opacity="1" fill-rule="nonzero"/><path fill="#c6afc0" d="M 103.484375 108.050781 C 103.199219 107.578125 102.910156 107.09375 102.628906 106.621094 C 102.96875 106.4375 103.308594 106.257812 103.652344 106.078125 C 103.910156 106.613281 104.171875 107.152344 104.429688 107.6875 C 104.117188 107.8125 103.800781 107.933594 103.484375 108.050781 Z M 103.484375 108.050781 " fill-opacity="1" fill-rule="nonzero"/><path fill="#c6afc0" d="M 150.96875 146.492188 C 151.210938 145.5 151.460938 144.503906 151.707031 143.507812 C 152.015625 143.574219 152.316406 143.648438 152.625 143.714844 C 152.433594 144.71875 152.246094 145.71875 152.054688 146.722656 C 151.699219 146.648438 151.332031 146.570312 150.96875 146.492188 Z M 150.96875 146.492188 " fill-opacity="1" fill-rule="nonzero"/><path fill="#c6afc0" d="M 96.21875 162.109375 C 96.683594 162.640625 97.191406 163.023438 97.128906 163.195312 C 96.972656 163.621094 96.558594 163.953125 96.246094 164.324219 C 95.964844 164.058594 95.445312 163.785156 95.453125 163.539062 C 95.472656 163.136719 95.847656 162.757812 96.21875 162.109375 Z M 96.21875 162.109375 " fill-opacity="1" fill-rule="nonzero"/><path fill="#c6afc0" d="M 167.351562 174.238281 C 167.628906 173.695312 167.914062 173.152344 168.191406 172.613281 C 168.539062 172.796875 168.882812 172.972656 169.226562 173.15625 C 168.859375 173.675781 168.492188 174.1875 168.125 174.707031 C 167.871094 174.550781 167.609375 174.390625 167.351562 174.238281 Z M 167.351562 174.238281 " fill-opacity="1" fill-rule="nonzero"/><path fill="#c6afc0" d="M 110.429688 139.523438 C 110.363281 138.929688 110.257812 138.339844 110.277344 137.753906 C 110.277344 137.6875 110.957031 137.636719 111.324219 137.585938 C 111.324219 138.21875 111.324219 138.855469 111.324219 139.488281 C 111.027344 139.5 110.726562 139.507812 110.429688 139.523438 Z M 110.429688 139.523438 " fill-opacity="1" fill-rule="nonzero"/><path fill="#c6afc0" d="M 105.652344 215.027344 C 105.171875 214.457031 104.691406 213.886719 103.90625 212.953125 C 105.925781 212.648438 106.421875 213.230469 105.652344 215.027344 Z M 105.652344 215.027344 " fill-opacity="1" fill-rule="nonzero"/><path fill="#c6afc0" d="M 109.652344 176.832031 C 110.199219 177.445312 110.722656 177.839844 110.65625 177.996094 C 110.488281 178.425781 110.066406 178.757812 109.742188 179.125 C 109.527344 178.925781 109.117188 178.714844 109.132812 178.527344 C 109.164062 178.074219 109.390625 177.632812 109.652344 176.832031 Z M 109.652344 176.832031 " fill-opacity="1" fill-rule="nonzero"/><path fill="#c6afc0" d="M 132.722656 123.164062 C 133.21875 122.625 133.710938 122.082031 134.40625 121.324219 C 135.222656 123.179688 134.46875 123.566406 133.476562 123.792969 C 133.222656 123.585938 132.972656 123.375 132.722656 123.164062 Z M 132.722656 123.164062 " fill-opacity="1" fill-rule="nonzero"/><path fill="#c6afc0" d="M 88.578125 62.398438 C 89.175781 62.054688 89.773438 61.707031 90.699219 61.175781 C 90.71875 63.039062 90.035156 63.300781 89.070312 63.195312 C 88.902344 62.929688 88.742188 62.664062 88.578125 62.398438 Z M 88.578125 62.398438 " fill-opacity="1" fill-rule="nonzero"/><path fill="#c6afc0" d="M 106.488281 99.378906 C 105.953125 99.785156 105.429688 100.191406 104.867188 100.550781 C 104.84375 100.566406 104.308594 99.9375 104.359375 99.882812 C 104.753906 99.390625 105.226562 98.960938 105.679688 98.507812 C 105.945312 98.796875 106.214844 99.089844 106.488281 99.378906 Z M 106.488281 99.378906 " fill-opacity="1" fill-rule="nonzero"/><path fill="#c6afc0" d="M 131.773438 107.289062 C 132.222656 106.875 132.675781 106.332031 132.769531 106.390625 C 133.167969 106.628906 133.46875 107.046875 133.800781 107.402344 C 133.488281 107.65625 133.183594 108.109375 132.863281 108.121094 C 132.5625 108.125 132.246094 107.667969 131.773438 107.289062 Z M 131.773438 107.289062 " fill-opacity="1" fill-rule="nonzero"/><path fill="#c6afc0" d="M 175.035156 70.398438 C 174.382812 70.6875 174.046875 70.953125 173.710938 70.953125 C 173.503906 70.953125 173.082031 70.460938 173.128906 70.347656 C 173.273438 70.003906 173.578125 69.539062 173.863281 69.5 C 174.128906 69.46875 174.457031 69.929688 175.035156 70.398438 Z M 175.035156 70.398438 " fill-opacity="1" fill-rule="nonzero"/><path fill="#c6afc0" d="M 151.796875 151.382812 C 152.109375 151.964844 152.46875 152.328125 152.410156 152.613281 C 152.34375 152.953125 151.917969 153.222656 151.65625 153.523438 C 151.375 153.230469 150.875 152.933594 150.875 152.640625 C 150.871094 152.316406 151.328125 151.984375 151.796875 151.382812 Z M 151.796875 151.382812 " fill-opacity="1" fill-rule="nonzero"/><path fill="#c6afc0" d="M 168.804688 38.039062 C 169.253906 38.683594 169.691406 39.035156 169.648438 39.320312 C 169.601562 39.632812 169.140625 39.925781 168.796875 40.117188 C 168.730469 40.15625 168.207031 39.707031 168.210938 39.496094 C 168.226562 39.125 168.492188 38.761719 168.804688 38.039062 Z M 168.804688 38.039062 " fill-opacity="1" fill-rule="nonzero"/><path fill="#c6afc0" d="M 168.773438 155.480469 C 169.023438 154.917969 169.269531 154.347656 169.519531 153.785156 C 169.789062 153.910156 170.308594 154.109375 170.296875 154.148438 C 170.121094 154.730469 169.875 155.285156 169.648438 155.847656 C 169.355469 155.722656 169.066406 155.605469 168.773438 155.480469 Z M 168.773438 155.480469 " fill-opacity="1" fill-rule="nonzero"/><path fill="#c6afc0" d="M 87.109375 105.230469 C 87.617188 106.09375 87.964844 106.640625 88.238281 107.214844 C 88.257812 107.257812 87.734375 107.726562 87.566406 107.671875 C 86.464844 107.332031 86.464844 106.589844 87.109375 105.230469 Z M 87.109375 105.230469 " fill-opacity="1" fill-rule="nonzero"/><path fill="#c6afc0" d="M 112.324219 167.488281 C 112.535156 166.804688 112.746094 166.117188 112.953125 165.433594 C 113.234375 165.496094 113.515625 165.558594 113.796875 165.621094 C 113.675781 166.339844 113.554688 167.050781 113.433594 167.765625 C 113.070312 167.675781 112.699219 167.582031 112.324219 167.488281 Z M 112.324219 167.488281 " fill-opacity="1" fill-rule="nonzero"/><path fill="#c6afc0" d="M 152.890625 61.308594 C 153.273438 61.90625 153.644531 62.292969 153.75 62.746094 C 153.789062 62.90625 153.046875 63.480469 152.878906 63.398438 C 152.476562 63.210938 152.078125 62.792969 151.9375 62.375 C 151.878906 62.195312 152.4375 61.792969 152.890625 61.308594 Z M 152.890625 61.308594 " fill-opacity="1" fill-rule="nonzero"/><g clip-path="url(#2188990730)"><path fill="#c6afc0" d="M 0.328125 88.011719 C 0.496094 87.414062 0.660156 86.8125 0.828125 86.214844 C 1.195312 86.335938 1.558594 86.457031 1.929688 86.578125 C 1.675781 87.164062 1.414062 87.75 1.160156 88.335938 C 0.882812 88.230469 0.601562 88.121094 0.328125 88.011719 Z M 0.328125 88.011719 " fill-opacity="1" fill-rule="nonzero"/></g><path fill="#c6afc0" d="M 129.304688 146.632812 C 128.871094 147 128.445312 147.359375 128.011719 147.722656 C 127.828125 147.382812 127.644531 147.046875 127.457031 146.703125 C 127.980469 146.507812 128.511719 146.316406 129.035156 146.117188 C 129.125 146.292969 129.21875 146.460938 129.304688 146.632812 Z M 129.304688 146.632812 " fill-opacity="1" fill-rule="nonzero"/><path fill="#c6afc0" d="M 187.644531 197.667969 C 188.144531 198.253906 188.578125 198.542969 188.59375 198.855469 C 188.613281 199.148438 188.195312 199.472656 187.96875 199.785156 C 187.671875 199.542969 187.207031 199.34375 187.128906 199.042969 C 187.046875 198.746094 187.363281 198.351562 187.644531 197.667969 Z M 187.644531 197.667969 " fill-opacity="1" fill-rule="nonzero"/><path fill="#c6afc0" d="M 113.496094 171.640625 C 113.082031 171.785156 112.636719 172.101562 112.265625 172.03125 C 111.851562 171.949219 111.511719 171.507812 111.140625 171.222656 C 111.433594 170.933594 111.695312 170.476562 112.027344 170.414062 C 112.332031 170.359375 112.71875 170.722656 113.070312 170.90625 C 113.214844 171.144531 113.359375 171.394531 113.496094 171.640625 Z M 113.496094 171.640625 " fill-opacity="1" fill-rule="nonzero"/><path fill="#c6afc0" d="M 88.679688 137.847656 C 88.917969 137.238281 89.15625 136.628906 89.390625 136.011719 C 89.574219 136.023438 89.761719 136.03125 89.945312 136.042969 C 90.035156 136.480469 90.214844 136.921875 90.199219 137.359375 C 90.183594 137.8125 89.988281 138.253906 89.867188 138.699219 C 89.472656 138.417969 89.078125 138.132812 88.679688 137.847656 Z M 88.679688 137.847656 " fill-opacity="1" fill-rule="nonzero"/><path fill="#c6afc0" d="M 208.675781 60.65625 C 208.867188 59.972656 209.054688 59.289062 209.382812 58.125 C 210.535156 59.578125 210.457031 60.289062 208.675781 60.65625 Z M 208.675781 60.65625 " fill-opacity="1" fill-rule="nonzero"/><path fill="#c6afc0" d="M 229.140625 12.609375 C 229.792969 12.261719 230.277344 11.84375 230.441406 11.945312 C 230.816406 12.175781 231.058594 12.640625 231.273438 13.058594 C 231.304688 13.121094 230.773438 13.636719 230.636719 13.585938 C 230.203125 13.417969 229.835938 13.078125 229.140625 12.609375 Z M 229.140625 12.609375 " fill-opacity="1" fill-rule="nonzero"/><path fill="#c6afc0" d="M 243.820312 25.523438 C 243.382812 24.859375 243.066406 24.488281 242.902344 24.066406 C 242.851562 23.945312 243.351562 23.445312 243.425781 23.476562 C 243.84375 23.691406 244.285156 23.949219 244.554688 24.316406 C 244.632812 24.429688 244.195312 24.925781 243.820312 25.523438 Z M 243.820312 25.523438 " fill-opacity="1" fill-rule="nonzero"/><path fill="#c6afc0" d="M 90.214844 232.273438 C 90.390625 232.914062 90.574219 233.320312 90.589844 233.730469 C 90.597656 233.976562 90.339844 234.226562 90.199219 234.476562 C 89.824219 234.214844 89.445312 233.957031 89.070312 233.695312 C 89.25 233.476562 89.429688 233.253906 90.214844 232.273438 Z M 90.214844 232.273438 " fill-opacity="1" fill-rule="nonzero"/><path fill="#c6afc0" d="M 79.859375 159.742188 C 80.316406 160.308594 80.777344 160.871094 81.3125 161.53125 C 79.128906 161.238281 79.066406 161.152344 79.964844 159.824219 C 79.960938 159.820312 79.859375 159.742188 79.859375 159.742188 Z M 79.859375 159.742188 " fill-opacity="1" fill-rule="nonzero"/><path fill="#c6afc0" d="M 72.316406 151.234375 C 72.546875 150.671875 72.757812 150.109375 73.027344 149.566406 C 73.050781 149.515625 73.570312 149.621094 73.570312 149.660156 C 73.570312 150.261719 73.523438 150.863281 73.488281 151.464844 C 73.097656 151.382812 72.710938 151.304688 72.316406 151.234375 Z M 72.316406 151.234375 " fill-opacity="1" fill-rule="nonzero"/><path fill="#c6afc0" d="M 59.460938 56.925781 C 59.671875 57.433594 59.949219 57.824219 59.863281 57.945312 C 59.636719 58.257812 59.25 58.453125 58.925781 58.695312 C 58.734375 58.371094 58.316406 57.96875 58.398438 57.742188 C 58.507812 57.4375 58.996094 57.261719 59.460938 56.925781 Z M 59.460938 56.925781 " fill-opacity="1" fill-rule="nonzero"/><path fill="#c6afc0" d="M 23.9375 137.285156 C 24.136719 137.839844 24.371094 138.214844 24.359375 138.574219 C 24.351562 138.777344 23.929688 138.964844 23.691406 139.15625 C 23.480469 138.8125 23.179688 138.488281 23.101562 138.113281 C 23.066406 137.957031 23.503906 137.695312 23.9375 137.285156 Z M 23.9375 137.285156 " fill-opacity="1" fill-rule="nonzero"/><path fill="#c6afc0" d="M 16.65625 177.609375 C 16.140625 178.039062 15.855469 178.285156 15.566406 178.53125 C 15.285156 178.136719 14.949219 177.761719 14.75 177.324219 C 14.703125 177.21875 15.199219 176.6875 15.285156 176.726562 C 15.699219 176.894531 16.054688 177.199219 16.65625 177.609375 Z M 16.65625 177.609375 " fill-opacity="1" fill-rule="nonzero"/><path fill="#c6afc0" d="M 15.136719 138.230469 C 15.503906 138.632812 15.921875 138.945312 15.875 139.054688 C 15.734375 139.378906 15.410156 139.625 15.15625 139.898438 C 14.9375 139.691406 14.523438 139.464844 14.542969 139.285156 C 14.582031 138.960938 14.871094 138.660156 15.136719 138.230469 Z M 15.136719 138.230469 " fill-opacity="1" fill-rule="nonzero"/><path fill="#c6afc0" d="M 114.390625 132.421875 C 114.636719 132.125 114.820312 131.902344 115.007812 131.679688 C 115.269531 131.929688 115.53125 132.1875 115.796875 132.4375 C 115.582031 132.625 115.371094 132.964844 115.160156 132.964844 C 114.925781 132.96875 114.695312 132.65625 114.390625 132.421875 Z M 114.390625 132.421875 " fill-opacity="1" fill-rule="nonzero"/><path fill="#c6afc0" d="M 106.582031 70.386719 C 107.136719 70.386719 107.695312 70.386719 108.246094 70.386719 C 108.269531 70.578125 108.289062 70.769531 108.316406 70.957031 C 107.769531 71.054688 107.226562 71.15625 106.683594 71.25 C 106.652344 70.960938 106.617188 70.675781 106.582031 70.386719 Z M 106.582031 70.386719 " fill-opacity="1" fill-rule="nonzero"/><path fill="#c6afc0" d="M 126.097656 122.191406 C 126.386719 122.796875 126.550781 123.144531 126.71875 123.492188 C 126.324219 123.613281 125.929688 123.820312 125.535156 123.820312 C 125.363281 123.820312 124.996094 123.28125 125.054688 123.191406 C 125.246094 122.875 125.582031 122.652344 126.097656 122.191406 Z M 126.097656 122.191406 " fill-opacity="1" fill-rule="nonzero"/><path fill="#c6afc0" d="M 61.636719 220.292969 C 62.183594 220.242188 62.726562 220.179688 63.269531 220.164062 C 63.300781 220.164062 63.40625 220.691406 63.378906 220.703125 C 62.875 220.894531 62.351562 221.042969 61.835938 221.199219 C 61.769531 220.898438 61.707031 220.597656 61.636719 220.292969 Z M 61.636719 220.292969 " fill-opacity="1" fill-rule="nonzero"/><path fill="#c6afc0" d="M 114.257812 116.386719 C 114.503906 117.121094 114.742188 117.484375 114.699219 117.816406 C 114.671875 118.03125 114.136719 118.402344 114.003906 118.339844 C 113.683594 118.1875 113.261719 117.816406 113.265625 117.539062 C 113.265625 117.253906 113.722656 116.96875 114.257812 116.386719 Z M 114.257812 116.386719 " fill-opacity="1" fill-rule="nonzero"/><path fill="#c6afc0" d="M 106.589844 190.101562 C 107.117188 189.726562 107.414062 189.515625 107.71875 189.304688 C 107.925781 189.625 108.214844 189.933594 108.296875 190.285156 C 108.328125 190.445312 107.882812 190.898438 107.753906 190.867188 C 107.410156 190.765625 107.121094 190.476562 106.589844 190.101562 Z M 106.589844 190.101562 " fill-opacity="1" fill-rule="nonzero"/><path fill="#c6afc0" d="M 112.703125 180.574219 C 112.179688 181.035156 111.90625 181.464844 111.621094 181.46875 C 111.308594 181.476562 110.988281 181.097656 110.671875 180.886719 C 110.90625 180.59375 111.09375 180.136719 111.386719 180.054688 C 111.664062 179.984375 112.050781 180.300781 112.703125 180.574219 Z M 112.703125 180.574219 " fill-opacity="1" fill-rule="nonzero"/><path fill="#c6afc0" d="M 196.976562 168.632812 C 196.667969 168.011719 196.394531 167.671875 196.363281 167.316406 C 196.351562 167.128906 196.871094 166.699219 196.984375 166.746094 C 197.332031 166.894531 197.789062 167.199219 197.839844 167.503906 C 197.882812 167.753906 197.414062 168.09375 196.976562 168.632812 Z M 196.976562 168.632812 " fill-opacity="1" fill-rule="nonzero"/><path fill="#c6afc0" d="M 133.644531 113.171875 C 134.140625 113.839844 134.410156 114.136719 134.570312 114.484375 C 134.59375 114.542969 134.050781 115.019531 133.898438 114.960938 C 133.574219 114.832031 133.222656 114.527344 133.09375 114.210938 C 133.015625 114.039062 133.355469 113.6875 133.644531 113.171875 Z M 133.644531 113.171875 " fill-opacity="1" fill-rule="nonzero"/><path fill="#c6afc0" d="M 114.902344 89.757812 C 115.410156 89.957031 115.925781 90.152344 116.433594 90.351562 C 116.359375 90.542969 116.265625 90.902344 116.214844 90.898438 C 115.683594 90.835938 115.160156 90.714844 114.632812 90.609375 C 114.71875 90.328125 114.808594 90.042969 114.902344 89.757812 Z M 114.902344 89.757812 " fill-opacity="1" fill-rule="nonzero"/><path fill="#c6afc0" d="M 205.464844 150.898438 C 205.238281 150.320312 205.011719 149.746094 204.789062 149.171875 C 205.027344 149.054688 205.273438 148.941406 205.511719 148.824219 C 205.78125 149.378906 206.050781 149.929688 206.316406 150.484375 C 206.039062 150.617188 205.75 150.757812 205.464844 150.898438 Z M 205.464844 150.898438 " fill-opacity="1" fill-rule="nonzero"/><path fill="#c6afc0" d="M 153.640625 101.925781 C 152.878906 102.308594 152.578125 102.589844 152.335938 102.542969 C 152 102.480469 151.710938 102.167969 151.40625 101.964844 C 151.585938 101.753906 151.761719 101.378906 151.953125 101.371094 C 152.285156 101.355469 152.621094 101.566406 153.640625 101.925781 Z M 153.640625 101.925781 " fill-opacity="1" fill-rule="nonzero"/><path fill="#c6afc0" d="M 141.824219 77.105469 C 142.011719 77.765625 142.210938 78.125 142.160156 78.4375 C 142.125 78.640625 141.605469 78.96875 141.480469 78.898438 C 141.167969 78.730469 140.957031 78.375 140.707031 78.097656 C 140.988281 77.851562 141.261719 77.605469 141.824219 77.105469 Z M 141.824219 77.105469 " fill-opacity="1" fill-rule="nonzero"/><path fill="#c6afc0" d="M 225.96875 13.042969 C 224.117188 13.410156 223.800781 12.820312 223.941406 11.046875 C 224.742188 11.839844 225.199219 12.285156 225.96875 13.042969 Z M 225.96875 13.042969 " fill-opacity="1" fill-rule="nonzero"/><path fill="#c6afc0" d="M 156.289062 212.910156 C 156.289062 213.449219 156.316406 213.984375 156.25 214.515625 C 156.242188 214.582031 155.703125 214.578125 155.414062 214.605469 C 155.414062 214.054688 155.414062 213.5 155.414062 212.949219 C 155.707031 212.9375 155.996094 212.921875 156.289062 212.910156 Z M 156.289062 212.910156 " fill-opacity="1" fill-rule="nonzero"/><path fill="#c6afc0" d="M 114.46875 228.808594 C 113.949219 228.933594 113.433594 229.054688 112.914062 229.179688 C 112.851562 229.003906 112.785156 228.828125 112.722656 228.652344 C 113.214844 228.445312 113.703125 228.242188 114.195312 228.035156 C 114.285156 228.292969 114.378906 228.546875 114.46875 228.808594 Z M 114.46875 228.808594 " fill-opacity="1" fill-rule="nonzero"/><g clip-path="url(#ba1e87c393)"><path fill="#c6afc0" d="M 248.722656 30.214844 C 248.929688 30.609375 249.171875 30.988281 249.304688 31.402344 C 249.324219 31.453125 248.816406 31.683594 248.550781 31.828125 C 248.445312 31.347656 248.34375 30.867188 248.238281 30.386719 C 248.40625 30.332031 248.566406 30.277344 248.722656 30.214844 Z M 248.722656 30.214844 " fill-opacity="1" fill-rule="nonzero"/></g></svg>