<svg xmlns="http://www.w3.org/2000/svg" xmlns:xlink="http://www.w3.org/1999/xlink" width="2000" zoomAndPan="magnify" viewBox="0 0 1500 591.000005" height="788" preserveAspectRatio="xMidYMid meet" version="1.0"><defs><filter x="0%" y="0%" width="100%" height="100%" id="1809e6e267"><feColorMatrix values="0 0 0 0 1 0 0 0 0 1 0 0 0 0 1 0 0 0 1 0" color-interpolation-filters="sRGB"/></filter><clipPath id="f4d5a10f5f"><path d="M 1.265625 0 L 1498.730469 0 L 1498.730469 590 L 1.265625 590 Z M 1.265625 0 " clip-rule="nonzero"/></clipPath><mask id="1450af3ecd"><g filter="url(#1809e6e267)"><rect x="-150" width="1800" fill="#000000" y="-59.100001" height="709.200006" fill-opacity="0.75"/></g></mask><clipPath id="1d950af563"><path d="M 0.507812 392 L 72 392 L 72 589.628906 L 0.507812 589.628906 Z M 0.507812 392 " clip-rule="nonzero"/></clipPath><clipPath id="35f65dd728"><path d="M 68 393 L 73 393 L 73 589.628906 L 68 589.628906 Z M 68 393 " clip-rule="nonzero"/></clipPath><clipPath id="2067fa7cb9"><path d="M 136 354 L 140 354 L 140 589.628906 L 136 589.628906 Z M 136 354 " clip-rule="nonzero"/></clipPath><clipPath id="6496372358"><path d="M 204 315 L 208 315 L 208 589.628906 L 204 589.628906 Z M 204 315 " clip-rule="nonzero"/></clipPath><clipPath id="abb1cabffd"><path d="M 340 393 L 344 393 L 344 589.628906 L 340 589.628906 Z M 340 393 " clip-rule="nonzero"/></clipPath><clipPath id="09eed6b994"><path d="M 543 432 L 548 432 L 548 589.628906 L 543 589.628906 Z M 543 432 " clip-rule="nonzero"/></clipPath><clipPath id="c970f7184f"><path d="M 679 432 L 683 432 L 683 589.628906 L 679 589.628906 Z M 679 432 " clip-rule="nonzero"/></clipPath><clipPath id="a37b7719a3"><path d="M 815 353 L 819 353 L 819 589.628906 L 815 589.628906 Z M 815 353 " clip-rule="nonzero"/></clipPath><clipPath id="4bddad11f9"><path d="M 747 392 L 751 392 L 751 589.628906 L 747 589.628906 Z M 747 392 " clip-rule="nonzero"/></clipPath><clipPath id="56a7cd9a2f"><path d="M 1086 432 L 1091 432 L 1091 589.628906 L 1086 589.628906 Z M 1086 432 " clip-rule="nonzero"/></clipPath><clipPath id="8cc95ce588"><path d="M 1358 0 L 1497.257812 0 L 1497.257812 356.171875 L 1358 356.171875 Z M 1358 0 " clip-rule="nonzero"/></clipPath><clipPath id="6f0753ceae"><path d="M 1358 353 L 1497.492188 353 L 1497.492188 589.628906 L 1358 589.628906 Z M 1358 353 " clip-rule="nonzero"/></clipPath><clipPath id="7fc4dcfebc"><path d="M 272 431 L 276 431 L 276 589.628906 L 272 589.628906 Z M 272 431 " clip-rule="nonzero"/></clipPath><clipPath id="df788c2e44"><path d="M 882 470 L 887 470 L 887 589.628906 L 882 589.628906 Z M 882 470 " clip-rule="nonzero"/></clipPath><clipPath id="a8c81115d8"><path d="M 1018 470 L 1023 470 L 1023 589.628906 L 1018 589.628906 Z M 1018 470 " clip-rule="nonzero"/></clipPath><clipPath id="8e7bbe2d19"><path d="M 1290 393 L 1294 393 L 1294 589.628906 L 1290 589.628906 Z M 1290 393 " clip-rule="nonzero"/></clipPath><clipPath id="b279f31c66"><path d="M 1358 431 L 1362 431 L 1362 589.628906 L 1358 589.628906 Z M 1358 431 " clip-rule="nonzero"/></clipPath><clipPath id="593feaf6c1"><path d="M 1425 393 L 1430 393 L 1430 589.628906 L 1425 589.628906 Z M 1425 393 " clip-rule="nonzero"/></clipPath><clipPath id="cac1edecba"><path d="M 0.507812 234 L 141 234 L 141 396 L 0.507812 396 Z M 0.507812 234 " clip-rule="nonzero"/></clipPath><clipPath id="dee645fe71"><rect x="0" width="1498" y="0" height="590"/></clipPath></defs><g clip-path="url(#f4d5a10f5f)"><g mask="url(#1450af3ecd)"><g transform="matrix(1, 0, 0, 1, 1, -0.000000000000107785)"><g clip-path="url(#dee645fe71)"><path fill="#fcfc62" d="M 3.488281 274.703125 L 72.117188 314.339844 L 72.117188 393.722656 L 68.609375 393.722656 L 68.609375 316.371094 L 3.488281 278.773438 L 3.488281 274.703125 " fill-opacity="1" fill-rule="nonzero"/><path fill="#fcfc62" d="M 139.109375 277.695312 L 71.253906 316.875 L 69.488281 313.835938 L 137.347656 274.65625 L 139.109375 277.695312 " fill-opacity="1" fill-rule="nonzero"/><path fill="#fcfc62" d="M 71.253906 316.875 L 3.429688 356.03125 L 3.429688 351.972656 L 69.488281 313.835938 L 71.253906 316.875 " fill-opacity="1" fill-rule="nonzero"/><g clip-path="url(#1d950af563)"><path fill="#fcfc62" d="M 71.242188 395.242188 L 4.273438 433.90625 L 2.53125 589.605469 L 0.742188 431.886719 L 69.488281 392.191406 L 71.242188 395.242188 " fill-opacity="1" fill-rule="nonzero"/></g><g clip-path="url(#35f65dd728)"><path fill="#fcfc62" d="M 70.363281 589.617188 L 68.609375 393.722656 L 72.117188 393.722656 L 70.363281 589.617188 " fill-opacity="1" fill-rule="nonzero"/></g><g clip-path="url(#2067fa7cb9)"><path fill="#fcfc62" d="M 139.988281 355.550781 L 138.234375 589.617188 L 136.46875 354.535156 L 139.988281 355.550781 " fill-opacity="1" fill-rule="nonzero"/></g><path fill="#fcfc62" d="M 272.195312 198.828125 L 206.09375 160.664062 L 140 198.828125 L 140 275.171875 L 272.195312 351.496094 Z M 206.96875 157.109375 L 275.714844 196.804688 C 275.773438 250.398438 275.738281 303.992188 275.714844 357.585938 C 229.3125 330.777344 182.90625 303.957031 136.46875 277.183594 L 136.46875 196.804688 L 206.09375 156.609375 L 206.96875 157.109375 " fill-opacity="1" fill-rule="nonzero"/><path fill="#fcfc62" d="M 137.347656 274.65625 L 205.214844 235.480469 L 206.96875 238.519531 L 139.109375 277.695312 L 137.347656 274.65625 " fill-opacity="1" fill-rule="nonzero"/><path fill="#fcfc62" d="M 273.085938 277.695312 L 205.214844 238.519531 L 206.96875 235.480469 L 274.828125 274.65625 L 273.085938 277.695312 " fill-opacity="1" fill-rule="nonzero"/><path fill="#fcfc62" d="M 139.109375 196.289062 L 206.96875 235.480469 L 205.214844 238.519531 L 137.347656 199.339844 L 139.109375 196.289062 " fill-opacity="1" fill-rule="nonzero"/><path fill="#fcfc62" d="M 274.839844 199.339844 L 206.96875 238.519531 L 205.214844 235.480469 L 273.074219 196.289062 L 274.839844 199.339844 " fill-opacity="1" fill-rule="nonzero"/><path fill="#fcfc62" d="M 207.84375 237 L 207.84375 315.355469 L 204.339844 315.355469 L 204.339844 237 L 207.84375 237 " fill-opacity="1" fill-rule="nonzero"/><g clip-path="url(#6496372358)"><path fill="#fcfc62" d="M 207.84375 315.355469 L 206.09375 589.617188 L 204.339844 315.355469 L 207.84375 315.355469 " fill-opacity="1" fill-rule="nonzero"/></g><path fill="#fcfc62" d="M 406.167969 354.535156 L 341.820312 317.378906 L 277.46875 354.535156 L 341.820312 391.691406 Z M 342.695312 313.835938 L 413.195312 354.535156 L 341.820312 395.746094 L 270.441406 354.535156 L 341.820312 313.332031 L 342.695312 313.835938 " fill-opacity="1" fill-rule="nonzero"/><path fill="#fcfc62" d="M 275.714844 354.535156 L 275.714844 432.902344 L 272.195312 432.902344 L 272.195312 354.535156 L 275.714844 354.535156 " fill-opacity="1" fill-rule="nonzero"/><path fill="#fcfc62" d="M 342.707031 395.242188 L 274.839844 434.421875 L 273.074219 431.382812 L 340.941406 392.191406 L 342.707031 395.242188 " fill-opacity="1" fill-rule="nonzero"/><path fill="#fcfc62" d="M 408.8125 274.65625 L 477.546875 234.964844 C 500.765625 248.351562 523.960938 261.761719 547.167969 275.160156 L 547.167969 355.550781 C 523.960938 368.925781 500.765625 382.347656 477.546875 395.746094 C 454.351562 382.324219 431.140625 368.925781 407.921875 355.550781 C 407.921875 328.753906 407.945312 301.957031 407.921875 275.160156 Z M 477.546875 239.023438 L 411.453125 277.183594 L 411.453125 353.527344 L 477.546875 391.691406 L 543.648438 353.527344 L 543.648438 277.183594 L 477.546875 239.023438 " fill-opacity="1" fill-rule="nonzero"/><path fill="#fcfc62" d="M 546.28125 277.695312 L 478.421875 316.875 L 476.667969 313.835938 L 544.539062 274.65625 L 546.28125 277.695312 " fill-opacity="1" fill-rule="nonzero"/><path fill="#fcfc62" d="M 410.566406 274.65625 L 478.421875 313.835938 L 476.667969 316.875 L 408.800781 277.695312 L 410.566406 274.65625 " fill-opacity="1" fill-rule="nonzero"/><path fill="#fcfc62" d="M 478.433594 313.835938 L 546.292969 353.015625 L 544.527344 356.066406 L 476.667969 316.875 L 478.433594 313.835938 " fill-opacity="1" fill-rule="nonzero"/><path fill="#fcfc62" d="M 478.433594 316.875 L 410.566406 356.066406 L 408.800781 353.015625 L 476.667969 313.835938 L 478.433594 316.875 " fill-opacity="1" fill-rule="nonzero"/><path fill="#fcfc62" d="M 479.300781 315.355469 L 479.300781 393.710938 L 475.792969 393.710938 L 475.792969 315.355469 L 479.300781 315.355469 " fill-opacity="1" fill-rule="nonzero"/><g clip-path="url(#abb1cabffd)"><path fill="#fcfc62" d="M 343.585938 393.710938 L 341.820312 589.617188 L 340.066406 393.710938 L 343.585938 393.710938 " fill-opacity="1" fill-rule="nonzero"/></g><path fill="#fcfc62" d="M 478.433594 395.242188 L 410.566406 434.421875 L 408.800781 431.371094 L 476.667969 392.191406 L 478.433594 395.242188 " fill-opacity="1" fill-rule="nonzero"/><path fill="#fcfc62" d="M 682.007812 434.421875 L 613.273438 474.101562 C 590.078125 460.691406 566.859375 447.292969 543.648438 433.90625 L 543.648438 353.527344 C 566.847656 340.117188 590.066406 326.730469 613.273438 313.320312 C 636.480469 326.71875 659.6875 340.128906 682.894531 353.527344 L 682.894531 433.90625 Z M 613.273438 470.058594 L 679.375 431.886719 L 679.375 355.539062 L 613.273438 317.378906 L 547.167969 355.550781 L 547.167969 431.886719 L 613.273438 470.058594 " fill-opacity="1" fill-rule="nonzero"/><path fill="#fcfc62" d="M 546.28125 353.015625 L 615.027344 392.707031 L 615.027344 472.082031 L 611.519531 472.082031 L 611.519531 394.730469 L 544.539062 356.066406 L 546.28125 353.015625 " fill-opacity="1" fill-rule="nonzero"/><path fill="#fcfc62" d="M 546.292969 434.421875 L 477.546875 474.113281 C 454.351562 460.703125 431.140625 447.304688 407.933594 433.917969 L 407.933594 354.535156 L 411.441406 354.535156 L 411.441406 431.886719 L 477.546875 470.046875 L 544.527344 431.382812 L 546.292969 434.421875 " fill-opacity="1" fill-rule="nonzero"/><g clip-path="url(#09eed6b994)"><path fill="#fcfc62" d="M 547.167969 432.902344 L 545.414062 589.628906 L 543.648438 432.902344 L 547.167969 432.902344 " fill-opacity="1" fill-rule="nonzero"/></g><g clip-path="url(#c970f7184f)"><path fill="#fcfc62" d="M 682.894531 432.902344 L 681.128906 589.617188 L 679.375 432.902344 L 682.894531 432.902344 " fill-opacity="1" fill-rule="nonzero"/></g><path fill="#fcfc62" d="M 679.375 354.535156 L 679.375 198.828125 L 613.273438 160.664062 L 547.167969 198.828125 L 547.167969 276.175781 L 543.648438 276.175781 L 543.648438 196.804688 L 613.273438 156.597656 C 636.480469 169.996094 659.699219 183.382812 682.882812 196.792969 L 682.894531 354.535156 L 679.375 354.535156 " fill-opacity="1" fill-rule="nonzero"/><path fill="#fcfc62" d="M 546.28125 196.289062 L 614.148438 235.46875 L 612.394531 238.519531 L 544.539062 199.339844 L 546.28125 196.289062 " fill-opacity="1" fill-rule="nonzero"/><path fill="#fcfc62" d="M 682.007812 199.339844 L 614.148438 238.519531 L 612.394531 235.46875 L 680.253906 196.289062 L 682.007812 199.339844 " fill-opacity="1" fill-rule="nonzero"/><path fill="#fcfc62" d="M 614.148438 238.519531 L 546.292969 277.695312 L 544.527344 274.644531 L 612.394531 235.46875 L 614.148438 238.519531 " fill-opacity="1" fill-rule="nonzero"/><path fill="#fcfc62" d="M 615.027344 236.988281 L 615.027344 315.355469 L 611.519531 315.355469 L 611.519531 236.988281 L 615.027344 236.988281 " fill-opacity="1" fill-rule="nonzero"/><path fill="#fcfc62" d="M 815.105469 197.808594 L 815.105469 120.457031 L 749 82.296875 L 682.894531 120.457031 L 682.894531 197.808594 L 679.375 197.808594 L 679.375 118.433594 C 702.574219 105.035156 725.78125 91.625 749 78.238281 C 772.21875 91.625 795.414062 105.035156 818.621094 118.433594 L 818.621094 197.808594 L 815.105469 197.808594 " fill-opacity="1" fill-rule="nonzero"/><path fill="#fcfc62" d="M 817.746094 120.972656 L 749.875 160.152344 L 748.113281 157.097656 L 815.980469 117.921875 L 817.746094 120.972656 " fill-opacity="1" fill-rule="nonzero"/><path fill="#fcfc62" d="M 682.019531 117.921875 L 749.875 157.097656 L 748.113281 160.152344 L 680.253906 120.972656 L 682.019531 117.921875 " fill-opacity="1" fill-rule="nonzero"/><path fill="#fcfc62" d="M 749.875 157.097656 L 817.734375 196.289062 L 815.992188 199.339844 L 748.125 160.152344 L 749.875 157.097656 " fill-opacity="1" fill-rule="nonzero"/><path fill="#fcfc62" d="M 749.875 160.152344 L 682.007812 199.339844 L 680.253906 196.289062 L 748.125 157.097656 L 749.875 160.152344 " fill-opacity="1" fill-rule="nonzero"/><path fill="#fcfc62" d="M 750.753906 158.628906 L 750.753906 236.988281 L 747.246094 236.988281 L 747.234375 158.628906 L 750.753906 158.628906 " fill-opacity="1" fill-rule="nonzero"/><path fill="#fcfc62" d="M 882.972656 236.988281 L 882.972656 81.28125 L 816.871094 43.117188 L 749.875 81.792969 L 748.125 78.742188 L 816.871094 39.0625 C 840.078125 52.449219 863.285156 65.847656 886.492188 79.257812 L 886.480469 236.988281 L 882.972656 236.988281 " fill-opacity="1" fill-rule="nonzero"/><path fill="#fcfc62" d="M 885.617188 81.792969 L 817.746094 120.972656 L 815.980469 117.921875 L 883.851562 78.742188 L 885.617188 81.792969 " fill-opacity="1" fill-rule="nonzero"/><path fill="#fcfc62" d="M 748.125 235.46875 L 818.621094 194.769531 C 818.632812 222.246094 818.644531 249.707031 818.621094 277.183594 L 747.234375 318.40625 L 747.234375 235.980469 Z M 815.105469 200.847656 L 750.765625 237.992188 L 750.765625 312.304688 L 815.105469 275.160156 L 815.105469 200.847656 " fill-opacity="1" fill-rule="nonzero"/><path fill="#fcfc62" d="M 749.875 238.519531 L 682.007812 277.695312 L 680.253906 274.644531 L 748.125 235.46875 L 749.875 238.519531 " fill-opacity="1" fill-rule="nonzero"/><path fill="#fcfc62" d="M 682.019531 274.644531 L 749.875 313.824219 L 748.113281 316.875 L 680.253906 277.695312 L 682.019531 274.644531 " fill-opacity="1" fill-rule="nonzero"/><path fill="#fcfc62" d="M 749.875 316.875 L 682.007812 356.054688 L 680.253906 353.015625 L 748.125 313.824219 L 749.875 316.875 " fill-opacity="1" fill-rule="nonzero"/><path fill="#fcfc62" d="M 682.019531 353.015625 L 749.875 392.191406 L 748.113281 395.242188 L 680.253906 356.066406 L 682.019531 353.015625 " fill-opacity="1" fill-rule="nonzero"/><path fill="#fcfc62" d="M 749.875 395.242188 L 682.007812 434.421875 L 680.265625 431.382812 L 748.125 392.191406 L 749.875 395.242188 " fill-opacity="1" fill-rule="nonzero"/><path fill="#fcfc62" d="M 750.753906 315.355469 L 750.753906 393.710938 L 747.246094 393.710938 L 747.246094 315.355469 L 750.753906 315.355469 " fill-opacity="1" fill-rule="nonzero"/><g clip-path="url(#a37b7719a3)"><path fill="#fcfc62" d="M 818.621094 354.535156 L 816.871094 589.617188 L 815.105469 354.535156 L 816.9375 353.085938 L 818.621094 354.535156 " fill-opacity="1" fill-rule="nonzero"/></g><g clip-path="url(#4bddad11f9)"><path fill="#fcfc62" d="M 750.753906 393.710938 L 749 589.628906 L 747.246094 393.722656 L 749.152344 392.15625 L 750.753906 393.710938 " fill-opacity="1" fill-rule="nonzero"/></g><path fill="#fcfc62" d="M 817.746094 196.289062 L 885.617188 235.46875 L 883.839844 238.519531 L 815.980469 199.339844 L 817.746094 196.289062 " fill-opacity="1" fill-rule="nonzero"/><path fill="#fcfc62" d="M 885.617188 238.519531 L 817.746094 277.695312 L 815.980469 274.644531 L 883.839844 235.46875 L 885.617188 238.519531 " fill-opacity="1" fill-rule="nonzero"/><path fill="#fcfc62" d="M 1016.933594 236.988281 L 952.585938 199.84375 L 888.234375 236.988281 L 952.585938 274.144531 Z M 953.460938 196.289062 L 1023.960938 237 L 952.585938 278.199219 C 928.804688 264.449219 905 250.726562 881.207031 237 L 952.585938 195.785156 L 953.460938 196.289062 " fill-opacity="1" fill-rule="nonzero"/><path fill="#fcfc62" d="M 886.480469 236.988281 L 886.492188 472.082031 L 882.972656 472.082031 L 882.972656 236.988281 L 886.480469 236.988281 " fill-opacity="1" fill-rule="nonzero"/><path fill="#fcfc62" d="M 1022.207031 236.988281 L 1022.207031 472.070312 L 1018.699219 472.070312 L 1018.6875 236.988281 L 1022.207031 236.988281 " fill-opacity="1" fill-rule="nonzero"/><path fill="#fcfc62" d="M 817.746094 274.644531 L 885.617188 313.824219 L 883.839844 316.875 L 815.980469 277.695312 L 817.746094 274.644531 " fill-opacity="1" fill-rule="nonzero"/><path fill="#fcfc62" d="M 953.460938 277.695312 L 885.605469 316.875 L 883.851562 313.824219 L 951.71875 274.644531 L 953.460938 277.695312 " fill-opacity="1" fill-rule="nonzero"/><path fill="#fcfc62" d="M 885.605469 316.875 L 817.734375 356.054688 L 815.992188 353.015625 L 883.851562 313.824219 L 885.605469 316.875 " fill-opacity="1" fill-rule="nonzero"/><path fill="#fcfc62" d="M 885.605469 313.824219 L 1021.332031 392.191406 L 1019.578125 395.242188 L 883.851562 316.875 L 885.605469 313.824219 " fill-opacity="1" fill-rule="nonzero"/><path fill="#fcfc62" d="M 1021.332031 395.242188 L 885.605469 473.601562 L 883.851562 470.5625 L 1019.578125 392.191406 L 1021.332031 395.242188 " fill-opacity="1" fill-rule="nonzero"/><path fill="#fcfc62" d="M 1019.578125 157.097656 L 1088.3125 117.417969 C 1111.53125 130.804688 1134.738281 144.203125 1157.933594 157.613281 C 1157.980469 211.207031 1157.933594 264.800781 1157.933594 318.394531 C 1111.519531 291.597656 1065.117188 264.765625 1018.6875 238.003906 L 1018.6875 157.613281 Z M 1088.3125 121.476562 L 1022.207031 159.636719 L 1022.207031 235.980469 L 1154.425781 312.316406 L 1154.425781 159.648438 L 1088.3125 121.476562 " fill-opacity="1" fill-rule="nonzero"/><path fill="#fcfc62" d="M 1157.058594 160.152344 L 1089.1875 199.339844 L 1087.433594 196.289062 L 1155.304688 157.097656 L 1157.058594 160.152344 " fill-opacity="1" fill-rule="nonzero"/><path fill="#fcfc62" d="M 1021.332031 157.097656 L 1089.1875 196.289062 L 1087.433594 199.339844 L 1019.566406 160.152344 L 1021.332031 157.097656 " fill-opacity="1" fill-rule="nonzero"/><path fill="#fcfc62" d="M 1090.066406 197.808594 L 1090.066406 276.175781 L 1086.558594 276.175781 L 1086.558594 197.808594 L 1090.066406 197.808594 " fill-opacity="1" fill-rule="nonzero"/><path fill="#fcfc62" d="M 1157.058594 316.875 L 1021.332031 395.242188 L 1019.566406 392.191406 L 1155.292969 313.824219 L 1157.058594 316.875 " fill-opacity="1" fill-rule="nonzero"/><path fill="#fcfc62" d="M 1090.066406 276.175781 L 1090.066406 354.535156 L 1086.558594 354.535156 L 1086.558594 276.175781 L 1090.066406 276.175781 " fill-opacity="1" fill-rule="nonzero"/><path fill="#fcfc62" d="M 1090.066406 354.535156 L 1090.066406 432.890625 L 1086.558594 432.890625 L 1086.558594 354.535156 L 1090.066406 354.535156 " fill-opacity="1" fill-rule="nonzero"/><path fill="#fcfc62" d="M 1089.199219 434.421875 L 1021.332031 473.601562 L 1019.566406 470.5625 L 1087.433594 431.371094 L 1089.199219 434.421875 " fill-opacity="1" fill-rule="nonzero"/><path fill="#fcfc62" d="M 1157.058594 395.242188 L 1089.1875 434.421875 L 1087.433594 431.371094 L 1155.304688 392.191406 L 1157.058594 395.242188 " fill-opacity="1" fill-rule="nonzero"/><path fill="#fcfc62" d="M 1157.933594 315.355469 L 1157.933594 472.082031 L 1154.425781 472.082031 L 1154.425781 315.355469 L 1157.933594 315.355469 " fill-opacity="1" fill-rule="nonzero"/><g clip-path="url(#56a7cd9a2f)"><path fill="#fcfc62" d="M 1090.066406 432.890625 L 1088.3125 589.617188 L 1086.558594 432.890625 L 1090.066406 432.890625 " fill-opacity="1" fill-rule="nonzero"/></g><path fill="#fcfc62" d="M 1290.140625 236.988281 L 1290.140625 159.636719 L 1224.050781 121.476562 L 1157.058594 160.152344 L 1155.304688 157.097656 L 1224.050781 117.417969 C 1247.257812 130.804688 1270.453125 144.214844 1293.660156 157.613281 L 1293.660156 236.988281 L 1290.140625 236.988281 " fill-opacity="1" fill-rule="nonzero"/><path fill="#fcfc62" d="M 1358.011719 276.175781 L 1358.011719 120.457031 L 1291.90625 82.296875 L 1224.914062 120.972656 L 1223.160156 117.921875 L 1291.90625 78.238281 L 1361.53125 118.433594 L 1361.53125 276.175781 L 1358.011719 276.175781 " fill-opacity="1" fill-rule="nonzero"/><g clip-path="url(#8cc95ce588)"><path fill="#fcfc62" d="M 1493.738281 42.101562 L 1427.625 3.929688 L 1361.53125 42.089844 L 1361.53125 119.453125 L 1358 119.453125 L 1358 40.078125 C 1381.21875 26.667969 1404.414062 13.269531 1427.625 -0.117188 C 1449.089844 12.253906 1475.816406 27.675781 1497.257812 40.078125 L 1497.257812 277.171875 L 1360.640625 356.066406 L 1358.890625 353.015625 L 1493.738281 275.148438 L 1493.738281 42.101562 " fill-opacity="1" fill-rule="nonzero"/></g><path fill="#fcfc62" d="M 1494.6875 43.585938 L 1428.511719 81.78125 L 1426.757812 78.742188 L 1494.6875 39.515625 L 1494.6875 43.585938 " fill-opacity="1" fill-rule="nonzero"/><path fill="#fcfc62" d="M 1360.640625 39.5625 L 1428.511719 78.742188 L 1426.757812 81.78125 L 1358.898438 42.617188 L 1360.640625 39.5625 " fill-opacity="1" fill-rule="nonzero"/><path fill="#fcfc62" d="M 1429.386719 80.261719 L 1429.386719 158.628906 L 1425.882812 158.628906 L 1425.882812 80.261719 L 1429.386719 80.261719 " fill-opacity="1" fill-rule="nonzero"/><path fill="#fcfc62" d="M 1157.058594 157.097656 L 1292.785156 235.46875 L 1291.019531 238.519531 L 1155.292969 160.152344 L 1157.058594 157.097656 " fill-opacity="1" fill-rule="nonzero"/><path fill="#fcfc62" d="M 1360.640625 120.972656 L 1224.925781 199.339844 L 1223.160156 196.289062 L 1358.890625 117.921875 L 1360.640625 120.972656 " fill-opacity="1" fill-rule="nonzero"/><path fill="#fcfc62" d="M 1225.804688 197.820312 L 1225.804688 276.175781 L 1222.296875 276.175781 L 1222.285156 197.820312 L 1225.804688 197.820312 " fill-opacity="1" fill-rule="nonzero"/><path fill="#fcfc62" d="M 1292.785156 238.519531 L 1157.058594 316.875 L 1155.292969 313.835938 L 1291.019531 235.46875 L 1292.785156 238.519531 " fill-opacity="1" fill-rule="nonzero"/><path fill="#fcfc62" d="M 1157.058594 313.835938 L 1292.785156 392.191406 L 1291.019531 395.242188 L 1155.292969 316.875 L 1157.058594 313.835938 " fill-opacity="1" fill-rule="nonzero"/><path fill="#fcfc62" d="M 1293.660156 236.988281 L 1293.660156 393.710938 L 1290.140625 393.710938 L 1290.140625 236.988281 L 1293.660156 236.988281 " fill-opacity="1" fill-rule="nonzero"/><path fill="#fcfc62" d="M 1224.925781 356.054688 L 1157.058594 395.242188 L 1155.304688 392.191406 L 1223.160156 353.015625 L 1224.925781 356.054688 " fill-opacity="1" fill-rule="nonzero"/><path fill="#fcfc62" d="M 1225.804688 276.175781 L 1225.804688 354.535156 L 1222.296875 354.535156 L 1222.296875 276.175781 L 1225.804688 276.175781 " fill-opacity="1" fill-rule="nonzero"/><path fill="#fcfc62" d="M 1292.785156 395.242188 L 1156.179688 474.101562 L 1019.566406 395.242188 L 1021.332031 392.191406 L 1156.179688 470.046875 L 1291.019531 392.191406 L 1292.785156 395.242188 " fill-opacity="1" fill-rule="nonzero"/><path fill="#fcfc62" d="M 1225.804688 354.535156 L 1225.804688 432.902344 L 1222.296875 432.902344 L 1222.296875 354.535156 L 1225.804688 354.535156 " fill-opacity="1" fill-rule="nonzero"/><path fill="#fcfc62" d="M 1292.785156 157.097656 L 1360.640625 196.289062 L 1358.890625 199.339844 L 1291.019531 160.152344 L 1292.785156 157.097656 " fill-opacity="1" fill-rule="nonzero"/><path fill="#fcfc62" d="M 1428.511719 81.78125 L 1360.640625 120.972656 L 1358.898438 117.921875 L 1426.757812 78.742188 L 1428.511719 81.78125 " fill-opacity="1" fill-rule="nonzero"/><path fill="#fcfc62" d="M 1428.511719 160.152344 L 1360.640625 199.339844 L 1358.890625 196.289062 L 1426.746094 157.097656 L 1428.511719 160.152344 " fill-opacity="1" fill-rule="nonzero"/><path fill="#fcfc62" d="M 1428.511719 157.097656 L 1495.527344 195.796875 L 1495.527344 199.855469 L 1426.757812 160.152344 L 1428.511719 157.097656 " fill-opacity="1" fill-rule="nonzero"/><path fill="#fcfc62" d="M 1360.640625 196.289062 L 1494.6875 273.675781 L 1494.6875 277.730469 L 1358.890625 199.339844 L 1360.640625 196.289062 " fill-opacity="1" fill-rule="nonzero"/><path fill="#fcfc62" d="M 1360.640625 277.695312 L 1292.785156 316.875 L 1291.019531 313.824219 L 1358.890625 274.644531 L 1360.640625 277.695312 " fill-opacity="1" fill-rule="nonzero"/><path fill="#fcfc62" d="M 1361.53125 276.175781 L 1361.53125 432.902344 L 1358.011719 432.902344 L 1358.011719 276.175781 L 1361.53125 276.175781 " fill-opacity="1" fill-rule="nonzero"/><path fill="#fcfc62" d="M 1292.785156 313.824219 L 1360.640625 353.015625 L 1358.890625 356.054688 L 1291.019531 316.875 L 1292.785156 313.824219 " fill-opacity="1" fill-rule="nonzero"/><path fill="#fcfc62" d="M 1360.640625 356.054688 L 1292.785156 395.242188 L 1291.019531 392.191406 L 1358.890625 353.015625 L 1360.640625 356.054688 " fill-opacity="1" fill-rule="nonzero"/><path fill="#fcfc62" d="M 1429.386719 236.988281 L 1429.386719 315.355469 L 1425.871094 315.355469 L 1425.871094 236.988281 L 1429.386719 236.988281 " fill-opacity="1" fill-rule="nonzero"/><path fill="#fcfc62" d="M 1429.386719 315.355469 L 1429.386719 393.710938 L 1425.882812 393.710938 L 1425.871094 315.355469 L 1429.386719 315.355469 " fill-opacity="1" fill-rule="nonzero"/><g clip-path="url(#6f0753ceae)"><path fill="#fcfc62" d="M 1360.640625 353.015625 L 1497.257812 431.886719 L 1495.503906 589.628906 L 1493.761719 433.929688 L 1358.890625 356.066406 L 1360.640625 353.015625 " fill-opacity="1" fill-rule="nonzero"/></g><path fill="#fcfc62" d="M 1428.511719 395.242188 L 1360.640625 434.421875 L 1358.890625 431.371094 L 1426.746094 392.191406 L 1428.511719 395.242188 " fill-opacity="1" fill-rule="nonzero"/><g clip-path="url(#7fc4dcfebc)"><path fill="#fcfc62" d="M 275.714844 432.902344 L 273.960938 589.617188 L 272.195312 432.902344 L 274.195312 431.59375 L 275.714844 432.902344 " fill-opacity="1" fill-rule="nonzero"/></g><path fill="#fcfc62" d="M 818.621094 276.175781 L 818.621094 354.535156 L 815.105469 354.535156 L 815.105469 276.175781 L 818.621094 276.175781 " fill-opacity="1" fill-rule="nonzero"/><g clip-path="url(#df788c2e44)"><path fill="#fcfc62" d="M 886.492188 472.082031 L 884.726562 589.617188 L 882.972656 472.082031 L 884.75 470.746094 L 886.492188 472.082031 " fill-opacity="1" fill-rule="nonzero"/></g><g clip-path="url(#a8c81115d8)"><path fill="#fcfc62" d="M 1022.207031 472.070312 L 1020.453125 589.617188 L 1018.699219 472.070312 L 1020.570312 470.898438 L 1022.207031 472.070312 " fill-opacity="1" fill-rule="nonzero"/></g><g clip-path="url(#8e7bbe2d19)"><path fill="#fcfc62" d="M 1293.660156 393.710938 L 1291.90625 589.617188 L 1290.140625 393.710938 L 1293.660156 393.710938 " fill-opacity="1" fill-rule="nonzero"/></g><g clip-path="url(#b279f31c66)"><path fill="#fcfc62" d="M 1361.53125 432.902344 L 1359.765625 589.617188 L 1358.011719 432.902344 L 1359.90625 431.441406 L 1361.53125 432.902344 " fill-opacity="1" fill-rule="nonzero"/></g><g clip-path="url(#593feaf6c1)"><path fill="#fcfc62" d="M 1429.386719 393.710938 L 1427.625 589.617188 L 1425.882812 393.710938 L 1429.386719 393.710938 " fill-opacity="1" fill-rule="nonzero"/></g><g clip-path="url(#cac1edecba)"><path fill="#fcfc62" d="M 0.742188 275.171875 C 22.195312 262.789062 48.910156 247.347656 70.363281 234.964844 C 93.585938 248.351562 116.792969 261.75 139.988281 275.171875 C 140.011719 301.957031 140.011719 328.753906 139.988281 355.550781 L 139.109375 356.066406 L 70.363281 395.746094 C 48.921875 383.355469 22.195312 367.921875 0.742188 355.550781 C 0.742188 328.753906 0.742188 301.957031 0.742188 275.171875 Z M 4.273438 277.183594 L 4.273438 353.527344 L 70.363281 391.691406 L 136.46875 353.515625 L 136.46875 277.183594 L 70.363281 239.023438 L 4.273438 277.183594 " fill-opacity="1" fill-rule="evenodd"/></g></g></g></g></g></svg>