<svg xmlns="http://www.w3.org/2000/svg" xmlns:xlink="http://www.w3.org/1999/xlink" width="350" zoomAndPan="magnify" viewBox="0 0 262.5 262.500001" height="350" preserveAspectRatio="xMidYMid meet" version="1.0"><path fill="#fcfc62" d="M 151.199219 13.097656 L 151.199219 93.882812 C 151.199219 100.980469 145.191406 106.984375 138.097656 106.984375 L 68.773438 106.984375 L 17.464844 133.726562 L 17.464844 106.984375 L 13.101562 106.984375 C 6.003906 106.984375 0 100.980469 0 93.882812 L 0 13.097656 C 0 6.003906 6.003906 0 13.101562 0 L 138.640625 0 C 145.738281 0 151.199219 6.003906 151.199219 13.097656 Z M 151.199219 13.097656 " fill-opacity="1" fill-rule="nonzero"/><path fill="#ffffff" d="M 49.671875 53.488281 C 49.671875 61.328125 43.316406 67.683594 35.476562 67.683594 C 27.640625 67.683594 21.289062 61.328125 21.289062 53.488281 C 21.289062 45.652344 27.640625 39.300781 35.476562 39.300781 C 43.316406 39.300781 49.671875 45.652344 49.671875 53.488281 Z M 49.671875 53.488281 " fill-opacity="1" fill-rule="nonzero"/><path fill="#ffffff" d="M 90.0625 53.488281 C 90.0625 61.328125 83.710938 67.683594 75.871094 67.683594 C 68.03125 67.683594 61.679688 61.328125 61.679688 53.488281 C 61.679688 45.652344 68.03125 39.300781 75.871094 39.300781 C 83.710938 39.300781 90.0625 45.652344 90.0625 53.488281 Z M 90.0625 53.488281 " fill-opacity="1" fill-rule="nonzero"/><path fill="#ffffff" d="M 130.453125 53.488281 C 130.453125 61.328125 124.101562 67.683594 116.265625 67.683594 C 108.425781 67.683594 102.070312 61.328125 102.070312 53.488281 C 102.070312 45.652344 108.425781 39.300781 116.265625 39.300781 C 124.101562 39.300781 130.453125 45.652344 130.453125 53.488281 Z M 130.453125 53.488281 " fill-opacity="1" fill-rule="nonzero"/><path fill="#2e363e" d="M 110.804688 45.304688 L 110.804688 125.539062 C 110.804688 132.636719 116.808594 138.640625 123.90625 138.640625 L 193.773438 138.640625 L 245.078125 165.390625 L 245.078125 138.640625 L 248.902344 138.640625 C 255.996094 138.640625 262 132.636719 262 125.539062 L 262 45.304688 C 262 38.207031 255.996094 32.203125 248.902344 32.203125 L 123.359375 32.203125 C 116.265625 32.203125 110.804688 38.207031 110.804688 45.304688 Z M 110.804688 45.304688 " fill-opacity="1" fill-rule="nonzero"/><path fill="#ffffff" d="M 240.714844 85.695312 C 240.714844 93.535156 234.359375 99.886719 226.519531 99.886719 C 218.683594 99.886719 212.328125 93.535156 212.328125 85.695312 C 212.328125 77.855469 218.683594 71.503906 226.519531 71.503906 C 234.359375 71.503906 240.714844 77.855469 240.714844 85.695312 Z M 240.714844 85.695312 " fill-opacity="1" fill-rule="nonzero"/><path fill="#ffffff" d="M 200.320312 85.695312 C 200.320312 93.535156 193.964844 99.886719 186.132812 99.886719 C 178.292969 99.886719 171.9375 93.535156 171.9375 85.695312 C 171.9375 77.855469 178.292969 71.503906 186.132812 71.503906 C 193.964844 71.503906 200.320312 77.855469 200.320312 85.695312 Z M 200.320312 85.695312 " fill-opacity="1" fill-rule="nonzero"/><path fill="#ffffff" d="M 159.929688 85.695312 C 159.929688 93.535156 153.574219 99.886719 145.738281 99.886719 C 137.898438 99.886719 131.546875 93.535156 131.546875 85.695312 C 131.546875 77.855469 137.898438 71.503906 145.738281 71.503906 C 153.574219 71.503906 159.929688 77.855469 159.929688 85.695312 Z M 159.929688 85.695312 " fill-opacity="1" fill-rule="nonzero"/><path fill="#c6afc0" d="M 189.953125 141.917969 L 189.953125 222.699219 C 189.953125 229.796875 183.945312 235.800781 176.851562 235.800781 L 133.730469 235.800781 L 114.082031 262 L 94.429688 235.253906 L 51.855469 235.253906 C 44.757812 235.253906 38.753906 229.25 38.753906 222.15625 L 38.753906 141.917969 C 38.753906 134.820312 44.757812 128.816406 51.855469 128.816406 L 177.394531 128.816406 C 184.492188 128.816406 189.953125 134.820312 189.953125 141.917969 Z M 189.953125 141.917969 " fill-opacity="1" fill-rule="nonzero"/><path fill="#ffffff" d="M 168.664062 182.308594 C 168.664062 190.144531 162.308594 196.5 154.46875 196.5 C 146.636719 196.5 140.28125 190.144531 140.28125 182.308594 C 140.28125 174.472656 146.636719 168.117188 154.46875 168.117188 C 162.308594 168.117188 168.664062 174.472656 168.664062 182.308594 Z M 168.664062 182.308594 " fill-opacity="1" fill-rule="nonzero"/><path fill="#ffffff" d="M 128.816406 182.308594 C 128.816406 190.144531 122.464844 196.5 114.625 196.5 C 106.785156 196.5 100.433594 190.144531 100.433594 182.308594 C 100.433594 174.472656 106.785156 168.117188 114.625 168.117188 C 122.464844 168.117188 128.816406 174.472656 128.816406 182.308594 Z M 128.816406 182.308594 " fill-opacity="1" fill-rule="nonzero"/><path fill="#ffffff" d="M 88.425781 182.308594 C 88.425781 190.144531 82.074219 196.5 74.234375 196.5 C 66.394531 196.5 60.042969 190.144531 60.042969 182.308594 C 60.042969 174.472656 66.394531 168.117188 74.234375 168.117188 C 82.074219 168.117188 88.425781 174.472656 88.425781 182.308594 Z M 88.425781 182.308594 " fill-opacity="1" fill-rule="nonzero"/></svg>