<svg xmlns="http://www.w3.org/2000/svg" xmlns:xlink="http://www.w3.org/1999/xlink" width="600" zoomAndPan="magnify" viewBox="0 0 450 213.75" height="285" preserveAspectRatio="xMidYMid meet" version="1.0"><defs><clipPath id="bfdf01a14f"><path d="M 62 152 L 388 152 L 388 213.5 L 62 213.5 Z M 62 152 " clip-rule="nonzero"/></clipPath><clipPath id="f9d434ad7f"><path d="M 400 25 L 439.882812 25 L 439.882812 193 L 400 193 Z M 400 25 " clip-rule="nonzero"/></clipPath></defs><g clip-path="url(#bfdf01a14f)"><path fill="#2e363e" d="M 384.40625 152.691406 L 65.582031 152.691406 C 63.734375 152.691406 62.234375 154.191406 62.234375 156.039062 L 62.234375 210.1875 C 62.234375 212.035156 63.734375 213.535156 65.582031 213.535156 L 384.40625 213.535156 C 386.257812 213.535156 387.757812 212.035156 387.757812 210.1875 L 387.757812 156.039062 C 387.757812 154.191406 386.257812 152.691406 384.40625 152.691406 Z M 384.40625 155.59375 C 384.652344 155.59375 384.851562 155.792969 384.851562 156.039062 L 384.851562 210.1875 C 384.851562 210.433594 384.652344 210.632812 384.40625 210.632812 L 65.582031 210.632812 C 65.339844 210.632812 65.140625 210.433594 65.140625 210.1875 L 65.140625 156.039062 C 65.140625 155.792969 65.339844 155.59375 65.582031 155.59375 L 384.40625 155.59375 " fill-opacity="1" fill-rule="nonzero"/></g><path fill="#2e363e" d="M 62.609375 32.238281 C 55.542969 66.441406 49.738281 70.5 47.390625 70.5 C 47.390625 70.5 47.386719 70.5 47.382812 70.5 C 43.324219 70.484375 38.980469 59.890625 35.707031 47.84375 L 34.949219 57.496094 C 38.082031 66.410156 42.25 73.992188 47.375 74.007812 C 47.378906 74.007812 47.386719 74.007812 47.394531 74.007812 C 51.300781 74.007812 56.800781 70.527344 63.109375 45.789062 L 62.609375 32.238281 " fill-opacity="1" fill-rule="nonzero"/><path fill="#2e363e" d="M 91.148438 24.125 C 85.792969 50.277344 81.570312 51.835938 80.652344 51.835938 C 77.867188 51.828125 74.359375 42.714844 71.640625 31.378906 L 71.496094 43.691406 C 73.886719 50.25 76.929688 55.332031 80.640625 55.34375 C 80.648438 55.34375 80.652344 55.34375 80.65625 55.34375 C 83.617188 55.34375 87.253906 52.878906 91.351562 38.480469 L 91.148438 24.125 " fill-opacity="1" fill-rule="nonzero"/><path fill="#2e363e" d="M 112.960938 9.386719 C 108.804688 37.148438 105.507812 39.492188 104.878906 39.667969 C 103.179688 39.238281 100.765625 31.847656 98.792969 21.886719 L 98.289062 34.496094 C 100.035156 39.59375 102.203125 43.167969 104.84375 43.175781 C 104.847656 43.175781 104.851562 43.175781 104.851562 43.175781 C 107.476562 43.175781 110.277344 40.714844 113.347656 27.09375 L 112.960938 9.386719 " fill-opacity="1" fill-rule="nonzero"/><path fill="#2e363e" d="M 128.917969 5.234375 C 126.417969 25.117188 124.34375 30.074219 123.414062 31.296875 C 122.085938 29.589844 120.515625 22.933594 119.285156 15.289062 L 118.007812 26.78125 C 119.765625 33.457031 121.484375 35.042969 123.414062 35.046875 C 123.417969 35.046875 123.417969 35.046875 123.417969 35.046875 C 125.25 35.046875 127.171875 33.925781 129.269531 24.878906 L 128.917969 5.234375 " fill-opacity="1" fill-rule="nonzero"/><path fill="#2e363e" d="M 141.011719 2.5 C 139.394531 16.953125 138.007812 22.183594 137.207031 24.074219 C 136.234375 21.800781 135.175781 16.324219 134.347656 10.296875 L 133.445312 23.75 C 135.003906 28.367188 136.460938 28.371094 137.214844 28.371094 C 137.238281 28.371094 137.261719 28.371094 137.285156 28.371094 C 138.566406 28.371094 140.027344 28.25 141.660156 21.398438 L 141.011719 2.5 " fill-opacity="1" fill-rule="nonzero"/><path fill="#2e363e" d="M 30.050781 25.191406 C 26.496094 25.191406 23.617188 28.070312 23.617188 31.625 L 23.617188 175.699219 C 15.789062 176.878906 10.160156 180.148438 10.160156 184 C 10.160156 188.847656 19.066406 192.777344 30.050781 192.777344 C 41.039062 192.777344 49.941406 188.847656 49.941406 184 C 49.941406 180.148438 44.3125 176.878906 36.488281 175.699219 L 36.488281 31.625 C 36.488281 28.070312 33.605469 25.191406 30.050781 25.191406 Z M 30.050781 28.09375 C 32 28.09375 33.585938 29.679688 33.585938 31.625 L 33.585938 178.199219 L 36.054688 178.570312 C 43.222656 179.652344 47.039062 182.417969 47.039062 184 C 47.039062 185.996094 41.042969 189.875 30.050781 189.875 C 19.058594 189.875 13.0625 185.996094 13.0625 184 C 13.0625 182.417969 16.878906 179.652344 24.050781 178.570312 L 26.519531 178.199219 L 26.519531 31.625 C 26.519531 29.679688 28.101562 28.09375 30.050781 28.09375 " fill-opacity="1" fill-rule="nonzero"/><path fill="#2e363e" d="M 67.042969 16.113281 C 64.164062 16.113281 61.832031 18.445312 61.832031 21.324219 L 61.832031 134.910156 C 55.488281 135.867188 50.925781 138.515625 50.925781 141.640625 C 50.925781 145.570312 58.140625 148.75 67.042969 148.75 C 75.945312 148.75 83.164062 145.570312 83.164062 141.640625 C 83.164062 138.515625 78.601562 135.867188 72.257812 134.910156 L 72.257812 21.324219 C 72.257812 18.445312 69.925781 16.113281 67.042969 16.113281 Z M 67.042969 19.015625 C 68.320312 19.015625 69.355469 20.050781 69.355469 21.324219 L 69.355469 137.410156 L 71.828125 137.78125 C 77.753906 138.675781 80.261719 140.902344 80.261719 141.640625 C 80.261719 142.722656 75.71875 145.847656 67.042969 145.847656 C 58.375 145.847656 53.828125 142.722656 53.828125 141.640625 C 53.828125 140.902344 56.335938 138.675781 62.261719 137.78125 L 64.734375 137.410156 L 64.734375 21.324219 C 64.734375 20.050781 65.769531 19.015625 67.042969 19.015625 " fill-opacity="1" fill-rule="nonzero"/><path fill="#2e363e" d="M 95.40625 11.027344 L 94.34375 11.027344 C 92.308594 11.027344 90.65625 12.675781 90.65625 14.714844 L 90.65625 103.921875 C 85.523438 104.695312 81.835938 106.839844 81.835938 109.363281 C 81.835938 112.542969 87.671875 115.117188 94.875 115.117188 C 102.074219 115.117188 107.910156 112.542969 107.910156 109.363281 C 107.910156 106.839844 104.222656 104.695312 99.09375 103.921875 L 99.09375 14.714844 C 99.09375 12.675781 97.441406 11.027344 95.40625 11.027344 Z M 95.40625 13.929688 C 95.839844 13.929688 96.191406 14.28125 96.191406 14.714844 L 96.191406 106.421875 L 98.660156 106.792969 C 102.832031 107.421875 104.675781 108.824219 104.984375 109.367188 C 104.523438 110.222656 101.003906 112.214844 94.875 112.214844 C 88.742188 112.214844 85.222656 110.222656 84.761719 109.367188 C 85.070312 108.824219 86.914062 107.421875 91.089844 106.792969 L 93.558594 106.421875 L 93.558594 14.714844 C 93.558594 14.28125 93.910156 13.929688 94.34375 13.929688 L 95.40625 13.929688 " fill-opacity="1" fill-rule="nonzero"/><path fill="#2e363e" d="M 116.164062 5.777344 C 114.242188 5.777344 112.6875 7.332031 112.6875 9.25 L 112.6875 79.402344 C 108.460938 80.039062 105.417969 81.808594 105.417969 83.886719 C 105.417969 86.507812 110.230469 88.628906 116.164062 88.628906 C 122.097656 88.628906 126.910156 86.507812 126.910156 83.886719 C 126.910156 81.808594 123.867188 80.039062 119.640625 79.402344 L 119.640625 9.25 C 119.640625 7.332031 118.085938 5.777344 116.164062 5.777344 Z M 116.164062 8.679688 C 116.480469 8.679688 116.738281 8.933594 116.738281 9.25 L 116.738281 81.898438 L 119.207031 82.273438 C 121.726562 82.652344 123.214844 83.410156 123.804688 83.890625 C 122.953125 84.59375 120.308594 85.722656 116.164062 85.722656 C 112.019531 85.722656 109.375 84.59375 108.523438 83.890625 C 109.113281 83.410156 110.601562 82.652344 113.117188 82.273438 L 115.589844 81.898438 L 115.589844 9.25 C 115.589844 8.933594 115.847656 8.679688 116.164062 8.679688 " fill-opacity="1" fill-rule="nonzero"/><path fill="#2e363e" d="M 131.90625 2.070312 L 131.378906 2.070312 C 129.902344 2.070312 128.699219 3.269531 128.699219 4.75 L 128.699219 61.785156 C 125.125 62.324219 122.550781 63.8125 122.550781 65.574219 C 122.550781 67.789062 126.621094 69.585938 131.644531 69.585938 C 136.664062 69.585938 140.734375 67.789062 140.734375 65.574219 C 140.734375 63.8125 138.160156 62.324219 134.582031 61.785156 L 134.582031 4.75 C 134.582031 3.269531 133.382812 2.070312 131.90625 2.070312 Z M 131.679688 4.972656 L 131.679688 64.28125 L 134.148438 64.652344 C 135.683594 64.886719 136.683594 65.269531 137.277344 65.582031 C 136.277344 66.101562 134.308594 66.683594 131.644531 66.683594 C 128.976562 66.683594 127.007812 66.101562 126.007812 65.582031 C 126.597656 65.269531 127.601562 64.886719 129.132812 64.652344 L 131.605469 64.28125 L 131.605469 4.972656 L 131.679688 4.972656 " fill-opacity="1" fill-rule="nonzero"/><path fill="#2e363e" d="M 135.726562 52.253906 C 135.726562 54.15625 139.226562 55.703125 143.539062 55.703125 C 147.855469 55.703125 151.351562 54.15625 151.351562 52.253906 C 151.351562 50.742188 149.140625 49.460938 146.066406 48.996094 L 146.066406 2.550781 C 146.066406 1.152344 144.9375 0.0195312 143.539062 0.0195312 C 142.144531 0.0195312 141.011719 1.152344 141.011719 2.550781 L 141.011719 48.996094 C 137.9375 49.460938 135.726562 50.742188 135.726562 52.253906 " fill-opacity="1" fill-rule="nonzero"/><path fill="#2e363e" d="M 387.382812 32.238281 C 394.449219 66.441406 400.253906 70.5 402.601562 70.5 L 402.609375 70.5 C 406.667969 70.484375 411.011719 59.890625 414.285156 47.84375 L 415.042969 57.496094 C 411.910156 66.410156 407.742188 73.992188 402.617188 74.007812 C 402.609375 74.007812 402.605469 74.007812 402.597656 74.007812 C 398.691406 74.007812 393.191406 70.527344 386.882812 45.789062 L 387.382812 32.238281 " fill-opacity="1" fill-rule="nonzero"/><path fill="#2e363e" d="M 358.84375 24.125 C 364.199219 50.277344 368.421875 51.835938 369.339844 51.835938 C 372.125 51.828125 375.632812 42.714844 378.351562 31.378906 L 378.496094 43.691406 C 376.105469 50.25 373.0625 55.332031 369.351562 55.34375 C 369.34375 55.34375 369.339844 55.34375 369.335938 55.34375 C 366.375 55.34375 362.738281 52.878906 358.640625 38.480469 L 358.84375 24.125 " fill-opacity="1" fill-rule="nonzero"/><path fill="#2e363e" d="M 337.03125 9.386719 C 341.1875 37.148438 344.484375 39.492188 345.113281 39.667969 C 346.8125 39.238281 349.226562 31.847656 351.199219 21.886719 L 351.707031 34.496094 C 349.957031 39.59375 347.789062 43.167969 345.148438 43.175781 C 345.144531 43.175781 345.140625 43.175781 345.136719 43.175781 C 342.515625 43.175781 339.714844 40.714844 336.644531 27.09375 L 337.03125 9.386719 " fill-opacity="1" fill-rule="nonzero"/><path fill="#2e363e" d="M 321.074219 5.234375 C 323.574219 25.117188 325.652344 30.074219 326.578125 31.296875 C 327.90625 29.589844 329.476562 22.933594 330.707031 15.289062 L 331.984375 26.78125 C 330.226562 33.457031 328.507812 35.042969 326.578125 35.046875 C 326.574219 35.046875 326.574219 35.046875 326.570312 35.046875 C 324.742188 35.046875 322.820312 33.925781 320.722656 24.878906 L 321.074219 5.234375 " fill-opacity="1" fill-rule="nonzero"/><path fill="#2e363e" d="M 308.980469 2.5 C 310.597656 16.953125 311.984375 22.183594 312.785156 24.074219 C 313.757812 21.800781 314.816406 16.324219 315.644531 10.296875 L 316.546875 23.75 C 314.988281 28.367188 313.53125 28.371094 312.777344 28.371094 C 312.753906 28.371094 312.730469 28.371094 312.707031 28.371094 C 311.425781 28.371094 309.964844 28.25 308.332031 21.398438 L 308.980469 2.5 " fill-opacity="1" fill-rule="nonzero"/><g clip-path="url(#f9d434ad7f)"><path fill="#2e363e" d="M 419.941406 25.191406 C 416.386719 25.191406 413.503906 28.070312 413.503906 31.625 L 413.503906 175.699219 C 405.679688 176.878906 400.050781 180.148438 400.050781 184 C 400.050781 188.847656 408.953125 192.777344 419.941406 192.777344 C 430.925781 192.777344 439.832031 188.847656 439.832031 184 C 439.832031 180.148438 434.203125 176.878906 426.375 175.699219 L 426.375 31.625 C 426.375 28.070312 423.496094 25.191406 419.941406 25.191406 Z M 419.941406 28.09375 C 421.890625 28.09375 423.472656 29.679688 423.472656 31.625 L 423.472656 178.199219 L 425.941406 178.570312 C 433.113281 179.652344 436.929688 182.417969 436.929688 184 C 436.929688 185.996094 430.933594 189.875 419.941406 189.875 C 408.949219 189.875 402.953125 185.996094 402.953125 184 C 402.953125 182.417969 406.769531 179.652344 413.9375 178.570312 L 416.40625 178.199219 L 416.40625 31.625 C 416.40625 29.679688 417.992188 28.09375 419.941406 28.09375 " fill-opacity="1" fill-rule="nonzero"/></g><path fill="#2e363e" d="M 382.949219 16.113281 C 380.066406 16.113281 377.734375 18.445312 377.734375 21.324219 L 377.734375 134.910156 C 371.390625 135.867188 366.828125 138.515625 366.828125 141.640625 C 366.828125 145.570312 374.046875 148.75 382.949219 148.75 C 391.851562 148.75 399.066406 145.570312 399.066406 141.640625 C 399.066406 138.515625 394.503906 135.867188 388.160156 134.910156 L 388.160156 21.324219 C 388.160156 18.445312 385.828125 16.113281 382.949219 16.113281 Z M 382.949219 19.015625 C 384.222656 19.015625 385.257812 20.050781 385.257812 21.324219 L 385.257812 137.410156 L 387.730469 137.78125 C 393.65625 138.675781 396.164062 140.902344 396.164062 141.640625 C 396.164062 142.722656 391.617188 145.847656 382.949219 145.847656 C 374.273438 145.847656 369.730469 142.722656 369.730469 141.640625 C 369.730469 140.902344 372.238281 138.675781 378.164062 137.78125 L 380.636719 137.410156 L 380.636719 21.324219 C 380.636719 20.050781 381.671875 19.015625 382.949219 19.015625 " fill-opacity="1" fill-rule="nonzero"/><path fill="#2e363e" d="M 355.648438 11.027344 L 354.585938 11.027344 C 352.550781 11.027344 350.902344 12.675781 350.902344 14.714844 L 350.902344 103.921875 C 345.769531 104.695312 342.082031 106.839844 342.082031 109.363281 C 342.082031 112.542969 347.917969 115.117188 355.117188 115.117188 C 362.320312 115.117188 368.15625 112.542969 368.15625 109.363281 C 368.15625 106.839844 364.464844 104.695312 359.335938 103.921875 L 359.335938 14.714844 C 359.335938 12.675781 357.683594 11.027344 355.648438 11.027344 Z M 355.648438 13.929688 C 356.082031 13.929688 356.433594 14.28125 356.433594 14.714844 L 356.433594 106.421875 L 358.902344 106.792969 C 363.078125 107.421875 364.921875 108.824219 365.230469 109.367188 C 364.769531 110.222656 361.25 112.214844 355.117188 112.214844 C 348.988281 112.214844 345.46875 110.222656 345.007812 109.367188 C 345.316406 108.824219 347.160156 107.421875 351.332031 106.792969 L 353.804688 106.421875 L 353.804688 14.714844 C 353.804688 14.28125 354.152344 13.929688 354.585938 13.929688 L 355.648438 13.929688 " fill-opacity="1" fill-rule="nonzero"/><path fill="#2e363e" d="M 333.828125 5.777344 C 331.90625 5.777344 330.351562 7.332031 330.351562 9.25 L 330.351562 79.402344 C 326.125 80.039062 323.082031 81.808594 323.082031 83.886719 C 323.082031 86.507812 327.894531 88.628906 333.828125 88.628906 C 339.761719 88.628906 344.574219 86.507812 344.574219 83.886719 C 344.574219 81.808594 341.53125 80.039062 337.304688 79.402344 L 337.304688 9.25 C 337.304688 7.332031 335.75 5.777344 333.828125 5.777344 Z M 333.828125 8.679688 C 334.144531 8.679688 334.402344 8.933594 334.402344 9.25 L 334.402344 81.898438 L 336.875 82.273438 C 339.390625 82.652344 340.878906 83.410156 341.46875 83.890625 C 340.617188 84.59375 337.972656 85.722656 333.828125 85.722656 C 329.683594 85.722656 327.039062 84.59375 326.1875 83.890625 C 326.777344 83.410156 328.265625 82.652344 330.785156 82.273438 L 333.253906 81.898438 L 333.253906 9.25 C 333.253906 8.933594 333.511719 8.679688 333.828125 8.679688 " fill-opacity="1" fill-rule="nonzero"/><path fill="#2e363e" d="M 318.613281 2.070312 L 318.085938 2.070312 C 316.609375 2.070312 315.410156 3.269531 315.410156 4.75 L 315.410156 61.785156 C 311.835938 62.324219 309.257812 63.8125 309.257812 65.574219 C 309.257812 67.789062 313.328125 69.585938 318.347656 69.585938 C 323.371094 69.585938 327.441406 67.789062 327.441406 65.574219 C 327.441406 63.8125 324.867188 62.324219 321.292969 61.785156 L 321.292969 4.75 C 321.292969 3.269531 320.089844 2.070312 318.613281 2.070312 Z M 318.386719 4.972656 L 318.386719 64.28125 L 320.859375 64.652344 C 322.390625 64.886719 323.394531 65.269531 323.984375 65.582031 C 322.984375 66.101562 321.015625 66.683594 318.347656 66.683594 C 315.683594 66.683594 313.714844 66.101562 312.714844 65.582031 C 313.308594 65.269531 314.308594 64.886719 315.84375 64.652344 L 318.3125 64.28125 L 318.3125 4.972656 L 318.386719 4.972656 " fill-opacity="1" fill-rule="nonzero"/><path fill="#2e363e" d="M 314.265625 52.253906 C 314.265625 54.15625 310.765625 55.703125 306.453125 55.703125 C 302.136719 55.703125 298.640625 54.15625 298.640625 52.253906 C 298.640625 50.742188 300.851562 49.460938 303.925781 48.996094 L 303.925781 2.550781 C 303.925781 1.152344 305.054688 0.0195312 306.453125 0.0195312 C 307.847656 0.0195312 308.980469 1.152344 308.980469 2.550781 L 308.980469 48.996094 C 312.054688 49.460938 314.265625 50.742188 314.265625 52.253906 " fill-opacity="1" fill-rule="nonzero"/><path fill="#2e363e" d="M 122.433594 152.691406 L 178.117188 40.367188 L 175.574219 40.367188 L 109.632812 152.691406 L 122.433594 152.691406 " fill-opacity="1" fill-rule="nonzero"/><path fill="#2e363e" d="M 340.367188 152.691406 L 274.417969 40.367188 L 271.875 40.367188 L 327.558594 152.691406 L 340.367188 152.691406 " fill-opacity="1" fill-rule="nonzero"/><path fill="#2e363e" d="M 100.332031 152.691406 L 173.542969 43.269531 L 276.449219 43.269531 L 349.660156 152.691406 L 353.15625 152.691406 L 278 40.367188 L 171.992188 40.367188 L 96.835938 152.691406 L 100.332031 152.691406 " fill-opacity="1" fill-rule="nonzero"/></svg>