<svg xmlns="http://www.w3.org/2000/svg" xmlns:xlink="http://www.w3.org/1999/xlink" width="350" zoomAndPan="magnify" viewBox="0 0 262.5 262.500001" height="350" preserveAspectRatio="xMidYMid meet" version="1.0"><defs><clipPath id="b0d93117b6"><path d="M 102 199 L 170 199 L 170 262 L 102 262 Z M 102 199 " clip-rule="nonzero"/></clipPath></defs><path fill="#c6afc0" d="M 6.496094 105.746094 C 6.371094 105.746094 6.246094 105.730469 6.121094 105.691406 C 5.421875 105.488281 5.023438 104.753906 5.230469 104.054688 C 6.605469 99.398438 8.265625 94.773438 10.171875 90.304688 C 10.457031 89.632812 11.234375 89.320312 11.902344 89.605469 C 12.574219 89.894531 12.886719 90.667969 12.601562 91.339844 C 10.734375 95.714844 9.105469 100.242188 7.761719 104.800781 C 7.589844 105.375 7.066406 105.746094 6.496094 105.746094 Z M 17.8125 79.191406 C 17.59375 79.191406 17.367188 79.132812 17.160156 79.015625 C 16.527344 78.65625 16.308594 77.847656 16.667969 77.214844 C 19.074219 73.003906 21.75 68.878906 24.625 64.964844 C 25.058594 64.375 25.882812 64.25 26.472656 64.679688 C 27.058594 65.113281 27.183594 65.9375 26.753906 66.523438 C 23.9375 70.359375 21.316406 74.398438 18.960938 78.523438 C 18.71875 78.949219 18.273438 79.191406 17.8125 79.191406 Z M 17.8125 79.191406 " fill-opacity="1" fill-rule="nonzero"/><path fill="#c6afc0" d="M 39.632812 231.769531 C 39.304688 231.769531 38.972656 231.648438 38.714844 231.398438 C 35.226562 228.019531 31.898438 224.40625 28.820312 220.652344 C 28.359375 220.089844 28.441406 219.257812 29.003906 218.792969 C 29.566406 218.332031 30.398438 218.414062 30.863281 218.976562 C 33.875 222.652344 37.136719 226.195312 40.550781 229.503906 C 41.074219 230.011719 41.089844 230.847656 40.582031 231.371094 C 40.324219 231.636719 39.980469 231.769531 39.632812 231.769531 Z M 21.328125 209.449219 C 20.894531 209.449219 20.472656 209.238281 20.21875 208.84375 C 17.585938 204.761719 15.167969 200.484375 13.027344 196.132812 C 12.707031 195.476562 12.972656 194.6875 13.628906 194.363281 C 14.28125 194.042969 15.074219 194.3125 15.394531 194.964844 C 17.492188 199.226562 19.859375 203.417969 22.4375 207.417969 C 22.832031 208.027344 22.65625 208.84375 22.042969 209.238281 C 21.820312 209.382812 21.574219 209.449219 21.328125 209.449219 Z M 8.589844 183.550781 C 8.046875 183.550781 7.539062 183.214844 7.347656 182.671875 C 5.722656 178.101562 4.347656 173.382812 3.261719 168.652344 C 3.097656 167.941406 3.542969 167.230469 4.253906 167.070312 C 4.960938 166.90625 5.671875 167.351562 5.832031 168.058594 C 6.898438 172.695312 8.242188 177.3125 9.832031 181.789062 C 10.078125 182.476562 9.71875 183.230469 9.03125 183.476562 C 8.886719 183.527344 8.738281 183.550781 8.589844 183.550781 Z M 2.132812 155.425781 C 1.46875 155.425781 0.898438 154.925781 0.820312 154.253906 C 0.304688 149.585938 0.0429688 144.828125 0.0429688 140.105469 C 0.0429688 139.957031 0.0429688 139.8125 0.0429688 139.664062 C 0.046875 138.9375 0.636719 138.351562 1.363281 138.351562 C 1.363281 138.351562 1.367188 138.351562 1.367188 138.351562 C 2.097656 138.351562 2.683594 138.945312 2.683594 139.675781 C 2.683594 139.816406 2.683594 139.960938 2.683594 140.105469 C 2.683594 144.730469 2.9375 149.394531 3.445312 153.960938 C 3.523438 154.6875 3.003906 155.339844 2.277344 155.417969 C 2.230469 155.425781 2.179688 155.425781 2.132812 155.425781 Z M 2.132812 155.425781 " fill-opacity="1" fill-rule="nonzero"/><path fill="#c6afc0" d="M 171.621094 259.105469 C 171.089844 259.105469 170.585938 258.777344 170.386719 258.25 C 170.128906 257.570312 170.472656 256.808594 171.15625 256.550781 C 175.597656 254.867188 179.996094 252.910156 184.21875 250.722656 C 184.867188 250.390625 185.664062 250.644531 185.996094 251.289062 C 186.332031 251.9375 186.078125 252.734375 185.433594 253.066406 C 181.117188 255.300781 176.628906 257.300781 172.089844 259.019531 C 171.933594 259.078125 171.777344 259.105469 171.621094 259.105469 Z M 197.265625 245.847656 C 196.839844 245.847656 196.425781 245.644531 196.167969 245.265625 C 195.761719 244.660156 195.921875 243.839844 196.527344 243.433594 C 200.46875 240.78125 204.300781 237.867188 207.917969 234.777344 C 208.472656 234.304688 209.304688 234.371094 209.78125 234.925781 C 210.253906 235.480469 210.1875 236.3125 209.632812 236.785156 C 205.941406 239.941406 202.027344 242.914062 198 245.621094 C 197.773438 245.773438 197.519531 245.847656 197.265625 245.847656 Z M 219.214844 227.097656 C 218.894531 227.097656 218.570312 226.980469 218.316406 226.746094 C 217.785156 226.25 217.753906 225.414062 218.25 224.878906 C 221.492188 221.398438 224.5625 217.695312 227.382812 213.867188 C 227.816406 213.28125 228.640625 213.15625 229.226562 213.589844 C 229.816406 214.019531 229.941406 214.847656 229.507812 215.433594 C 226.628906 219.339844 223.492188 223.125 220.179688 226.679688 C 219.921875 226.957031 219.570312 227.097656 219.214844 227.097656 Z M 236.339844 203.859375 C 236.117188 203.859375 235.894531 203.800781 235.6875 203.683594 C 235.054688 203.320312 234.835938 202.515625 235.199219 201.882812 C 237.5625 197.753906 239.710938 193.445312 241.582031 189.082031 C 241.867188 188.410156 242.644531 188.101562 243.3125 188.386719 C 243.984375 188.675781 244.292969 189.449219 244.007812 190.121094 C 242.097656 194.578125 239.902344 198.976562 237.488281 203.195312 C 237.242188 203.621094 236.796875 203.859375 236.339844 203.859375 Z M 236.339844 203.859375 " fill-opacity="1" fill-rule="nonzero"/><path fill="#c6afc0" d="M 222.523438 59.445312 C 222.152344 59.445312 221.78125 59.289062 221.519531 58.988281 C 218.421875 55.382812 215.078125 51.917969 211.585938 48.691406 C 211.050781 48.195312 211.019531 47.363281 211.511719 46.828125 C 212.007812 46.292969 212.84375 46.257812 213.378906 46.753906 C 216.945312 50.050781 220.355469 53.585938 223.523438 57.265625 C 223.996094 57.820312 223.933594 58.652344 223.382812 59.125 C 223.132812 59.339844 222.828125 59.445312 222.523438 59.445312 Z M 201.320312 39.851562 C 201.050781 39.851562 200.777344 39.769531 200.542969 39.597656 C 196.703125 36.785156 192.660156 34.171875 188.527344 31.824219 C 187.894531 31.464844 187.671875 30.660156 188.035156 30.027344 C 188.394531 29.390625 189.199219 29.171875 189.832031 29.53125 C 194.050781 31.925781 198.179688 34.597656 202.101562 37.464844 C 202.6875 37.898438 202.816406 38.722656 202.386719 39.3125 C 202.128906 39.664062 201.726562 39.851562 201.320312 39.851562 Z M 176.21875 25.589844 C 176.046875 25.589844 175.871094 25.558594 175.703125 25.484375 C 171.324219 23.628906 166.792969 22.007812 162.230469 20.671875 C 161.53125 20.464844 161.132812 19.730469 161.335938 19.03125 C 161.542969 18.332031 162.273438 17.933594 162.972656 18.136719 C 167.632812 19.503906 172.261719 21.160156 176.734375 23.058594 C 177.40625 23.339844 177.71875 24.117188 177.433594 24.785156 C 177.21875 25.289062 176.730469 25.589844 176.21875 25.589844 Z M 105.328125 17.535156 C 104.699219 17.535156 104.140625 17.085938 104.027344 16.445312 C 103.902344 15.726562 104.382812 15.042969 105.101562 14.917969 C 109.871094 14.082031 114.753906 13.515625 119.613281 13.234375 C 120.339844 13.191406 120.964844 13.746094 121.007812 14.472656 C 121.050781 15.199219 120.496094 15.824219 119.765625 15.867188 C 115.011719 16.144531 110.226562 16.699219 105.554688 17.515625 C 105.480469 17.53125 105.402344 17.535156 105.328125 17.535156 Z M 148.519531 17.464844 C 148.445312 17.464844 148.371094 17.457031 148.292969 17.445312 C 143.617188 16.644531 138.835938 16.105469 134.078125 15.84375 C 133.347656 15.804688 132.789062 15.179688 132.832031 14.453125 C 132.871094 13.726562 133.496094 13.167969 134.222656 13.207031 C 139.082031 13.476562 143.964844 14.027344 148.738281 14.84375 C 149.457031 14.964844 149.941406 15.648438 149.816406 16.367188 C 149.707031 17.007812 149.148438 17.464844 148.519531 17.464844 Z M 148.519531 17.464844 " fill-opacity="1" fill-rule="nonzero"/><path fill="#f8f9ee" d="M 219.480469 140.105469 C 219.480469 141.617188 219.441406 143.128906 219.367188 144.636719 C 219.292969 146.148438 219.183594 147.652344 219.035156 149.15625 C 218.886719 150.660156 218.703125 152.160156 218.480469 153.65625 C 218.257812 155.152344 218 156.640625 217.703125 158.121094 C 217.410156 159.605469 217.078125 161.078125 216.710938 162.542969 C 216.34375 164.007812 215.941406 165.464844 215.503906 166.910156 C 215.0625 168.359375 214.589844 169.792969 214.082031 171.214844 C 213.570312 172.636719 213.027344 174.046875 212.449219 175.445312 C 211.871094 176.839844 211.257812 178.222656 210.613281 179.589844 C 209.96875 180.953125 209.289062 182.304688 208.574219 183.636719 C 207.863281 184.96875 207.117188 186.285156 206.339844 187.582031 C 205.5625 188.875 204.757812 190.152344 203.917969 191.410156 C 203.078125 192.667969 202.207031 193.902344 201.304688 195.117188 C 200.40625 196.328125 199.476562 197.519531 198.519531 198.6875 C 197.558594 199.855469 196.574219 201 195.558594 202.121094 C 194.542969 203.238281 193.5 204.335938 192.433594 205.402344 C 191.363281 206.472656 190.269531 207.511719 189.148438 208.527344 C 188.03125 209.542969 186.886719 210.53125 185.71875 211.488281 C 184.550781 212.449219 183.359375 213.378906 182.144531 214.277344 C 180.929688 215.175781 179.695312 216.046875 178.4375 216.886719 C 177.183594 217.726562 175.90625 218.535156 174.609375 219.3125 C 173.3125 220.089844 172 220.832031 170.664062 221.546875 C 169.332031 222.257812 167.984375 222.9375 166.617188 223.582031 C 165.25 224.230469 163.871094 224.84375 162.472656 225.421875 C 161.078125 226 159.667969 226.542969 158.246094 227.050781 C 156.820312 227.5625 155.386719 228.035156 153.941406 228.472656 C 152.496094 228.914062 151.039062 229.316406 149.574219 229.683594 C 148.105469 230.050781 146.632812 230.378906 145.152344 230.675781 C 143.667969 230.96875 142.179688 231.230469 140.683594 231.449219 C 139.191406 231.671875 137.691406 231.855469 136.1875 232.003906 C 134.683594 232.152344 133.175781 232.265625 131.667969 232.339844 C 130.15625 232.414062 128.644531 232.449219 127.136719 232.449219 C 125.625 232.449219 124.113281 232.414062 122.605469 232.339844 C 121.09375 232.265625 119.585938 232.152344 118.082031 232.003906 C 116.578125 231.855469 115.082031 231.671875 113.585938 231.449219 C 112.089844 231.230469 110.601562 230.96875 109.121094 230.675781 C 107.636719 230.378906 106.164062 230.050781 104.695312 229.683594 C 103.230469 229.316406 101.773438 228.914062 100.328125 228.472656 C 98.882812 228.035156 97.449219 227.5625 96.023438 227.050781 C 94.601562 226.542969 93.191406 226 91.796875 225.421875 C 90.398438 224.84375 89.019531 224.230469 87.652344 223.582031 C 86.285156 222.9375 84.9375 222.257812 83.605469 221.546875 C 82.273438 220.832031 80.957031 220.089844 79.660156 219.3125 C 78.363281 218.535156 77.089844 217.726562 75.832031 216.886719 C 74.574219 216.046875 73.339844 215.175781 72.125 214.277344 C 70.910156 213.378906 69.722656 212.449219 68.550781 211.488281 C 67.382812 210.53125 66.242188 209.542969 65.121094 208.527344 C 64 207.511719 62.90625 206.472656 61.839844 205.402344 C 60.769531 204.335938 59.726562 203.238281 58.710938 202.121094 C 57.699219 201 56.710938 199.855469 55.753906 198.6875 C 54.792969 197.519531 53.863281 196.328125 52.964844 195.117188 C 52.0625 193.902344 51.195312 192.667969 50.355469 191.410156 C 49.515625 190.152344 48.707031 188.875 47.929688 187.582031 C 47.152344 186.285156 46.40625 184.96875 45.695312 183.636719 C 44.984375 182.304688 44.304688 180.953125 43.65625 179.589844 C 43.011719 178.222656 42.398438 176.839844 41.820312 175.445312 C 41.242188 174.046875 40.699219 172.636719 40.1875 171.214844 C 39.679688 169.792969 39.207031 168.359375 38.765625 166.910156 C 38.328125 165.464844 37.925781 164.007812 37.558594 162.542969 C 37.191406 161.078125 36.859375 159.605469 36.566406 158.121094 C 36.269531 156.640625 36.011719 155.152344 35.789062 153.65625 C 35.570312 152.160156 35.382812 150.660156 35.234375 149.15625 C 35.085938 147.652344 34.976562 146.148438 34.902344 144.636719 C 34.828125 143.128906 34.789062 141.617188 34.789062 140.105469 C 34.789062 138.59375 34.828125 137.085938 34.902344 135.574219 C 34.976562 134.066406 35.085938 132.558594 35.234375 131.054688 C 35.382812 129.550781 35.570312 128.050781 35.789062 126.554688 C 36.011719 125.0625 36.269531 123.574219 36.566406 122.089844 C 36.859375 120.609375 37.191406 119.132812 37.558594 117.667969 C 37.925781 116.203125 38.328125 114.746094 38.765625 113.300781 C 39.207031 111.855469 39.679688 110.417969 40.1875 108.996094 C 40.699219 107.574219 41.242188 106.164062 41.820312 104.765625 C 42.398438 103.371094 43.011719 101.988281 43.65625 100.625 C 44.304688 99.257812 44.984375 97.90625 45.695312 96.574219 C 46.40625 95.242188 47.152344 93.929688 47.929688 92.632812 C 48.707031 91.335938 49.515625 90.058594 50.355469 88.800781 C 51.195312 87.546875 52.0625 86.308594 52.964844 85.097656 C 53.863281 83.882812 54.792969 82.691406 55.753906 81.523438 C 56.710938 80.355469 57.699219 79.210938 58.710938 78.089844 C 59.726562 76.972656 60.769531 75.878906 61.839844 74.808594 C 62.90625 73.738281 64 72.699219 65.121094 71.683594 C 66.242188 70.667969 67.382812 69.683594 68.550781 68.722656 C 69.722656 67.765625 70.910156 66.835938 72.125 65.933594 C 73.339844 65.035156 74.574219 64.164062 75.832031 63.324219 C 77.089844 62.484375 78.363281 61.675781 79.660156 60.898438 C 80.957031 60.121094 82.273438 59.378906 83.605469 58.664062 C 84.9375 57.953125 86.285156 57.273438 87.652344 56.628906 C 89.019531 55.980469 90.398438 55.371094 91.796875 54.792969 C 93.191406 54.210938 94.601562 53.667969 96.023438 53.160156 C 97.449219 52.652344 98.882812 52.175781 100.328125 51.738281 C 101.773438 51.300781 103.230469 50.898438 104.695312 50.53125 C 106.164062 50.164062 107.636719 49.832031 109.121094 49.535156 C 110.601562 49.242188 112.089844 48.984375 113.585938 48.761719 C 115.082031 48.539062 116.578125 48.355469 118.082031 48.207031 C 119.585938 48.058594 121.09375 47.949219 122.605469 47.875 C 124.113281 47.800781 125.625 47.761719 127.136719 47.761719 C 128.644531 47.761719 130.15625 47.800781 131.667969 47.875 C 133.175781 47.949219 134.683594 48.058594 136.1875 48.207031 C 137.691406 48.355469 139.191406 48.539062 140.683594 48.761719 C 142.179688 48.984375 143.667969 49.242188 145.152344 49.535156 C 146.632812 49.832031 148.105469 50.164062 149.574219 50.53125 C 151.039062 50.898438 152.496094 51.300781 153.941406 51.738281 C 155.386719 52.175781 156.820312 52.652344 158.246094 53.160156 C 159.667969 53.667969 161.078125 54.210938 162.472656 54.792969 C 163.871094 55.371094 165.25 55.980469 166.617188 56.628906 C 167.984375 57.273438 169.332031 57.953125 170.664062 58.664062 C 172 59.378906 173.3125 60.121094 174.609375 60.898438 C 175.90625 61.675781 177.183594 62.484375 178.4375 63.324219 C 179.695312 64.164062 180.929688 65.035156 182.144531 65.933594 C 183.359375 66.835938 184.550781 67.765625 185.71875 68.722656 C 186.886719 69.683594 188.03125 70.667969 189.148438 71.683594 C 190.269531 72.699219 191.363281 73.738281 192.433594 74.808594 C 193.5 75.878906 194.542969 76.972656 195.558594 78.089844 C 196.574219 79.210938 197.558594 80.355469 198.519531 81.523438 C 199.476562 82.691406 200.40625 83.882812 201.304688 85.097656 C 202.207031 86.308594 203.078125 87.546875 203.917969 88.800781 C 204.757812 90.058594 205.5625 91.335938 206.339844 92.632812 C 207.117188 93.929688 207.863281 95.242188 208.574219 96.574219 C 209.289062 97.90625 209.96875 99.257812 210.613281 100.625 C 211.257812 101.988281 211.871094 103.371094 212.449219 104.765625 C 213.027344 106.164062 213.570312 107.574219 214.082031 108.996094 C 214.589844 110.417969 215.0625 111.855469 215.503906 113.300781 C 215.941406 114.746094 216.34375 116.203125 216.710938 117.667969 C 217.078125 119.132812 217.410156 120.609375 217.703125 122.089844 C 218 123.574219 218.257812 125.0625 218.480469 126.554688 C 218.703125 128.050781 218.886719 129.550781 219.035156 131.054688 C 219.183594 132.558594 219.292969 134.066406 219.367188 135.574219 C 219.441406 137.085938 219.480469 138.59375 219.480469 140.105469 Z M 219.480469 140.105469 " fill-opacity="1" fill-rule="nonzero"/><path fill="#fcfc62" d="M 237.472656 79.328125 L 148.554688 79.328125 C 147.53125 79.328125 146.699219 78.496094 146.699219 77.476562 L 146.699219 69.140625 C 146.699219 68.117188 147.53125 67.285156 148.554688 67.285156 L 237.472656 67.285156 C 238.496094 67.285156 239.324219 68.117188 239.324219 69.140625 L 239.324219 77.476562 C 239.324219 78.496094 238.496094 79.328125 237.472656 79.328125 Z M 237.472656 79.328125 " fill-opacity="1" fill-rule="nonzero"/><path fill="#c6afc0" d="M 237.472656 80.648438 L 148.554688 80.648438 C 146.804688 80.648438 145.382812 79.222656 145.382812 77.476562 L 145.382812 69.140625 C 145.382812 67.390625 146.804688 65.964844 148.554688 65.964844 L 237.472656 65.964844 C 239.222656 65.964844 240.644531 67.390625 240.644531 69.140625 L 240.644531 77.476562 C 240.644531 79.222656 239.222656 80.648438 237.472656 80.648438 Z M 148.554688 68.605469 C 148.257812 68.605469 148.019531 68.84375 148.019531 69.140625 L 148.019531 77.476562 C 148.019531 77.769531 148.257812 78.007812 148.554688 78.007812 L 237.472656 78.007812 C 237.765625 78.007812 238.003906 77.769531 238.003906 77.476562 L 238.003906 69.140625 C 238.003906 68.84375 237.765625 68.605469 237.472656 68.605469 Z M 148.554688 68.605469 " fill-opacity="1" fill-rule="nonzero"/><path fill="#2e363e" d="M 233.769531 136.789062 L 233.769531 79.328125 L 152.257812 79.328125 L 152.257812 137.679688 Z M 233.769531 136.789062 " fill-opacity="1" fill-rule="nonzero"/><path fill="#c6afc0" d="M 152.257812 139 C 151.527344 139 150.9375 138.410156 150.9375 137.679688 L 150.9375 79.328125 C 150.9375 78.597656 151.527344 78.007812 152.257812 78.007812 L 233.769531 78.007812 C 234.496094 78.007812 235.085938 78.597656 235.085938 79.328125 L 235.085938 136.789062 C 235.085938 137.519531 234.496094 138.109375 233.769531 138.109375 C 233.039062 138.109375 232.449219 137.519531 232.449219 136.789062 L 232.449219 80.648438 L 153.578125 80.648438 L 153.578125 137.679688 C 153.578125 138.410156 152.988281 139 152.257812 139 Z M 152.257812 139 " fill-opacity="1" fill-rule="nonzero"/><path fill="#c6afc0" d="M 193.011719 176.050781 C 192.285156 176.050781 191.695312 175.460938 191.695312 174.730469 L 191.695312 149.722656 C 191.695312 148.992188 192.285156 148.402344 193.011719 148.402344 C 193.742188 148.402344 194.332031 148.992188 194.332031 149.722656 L 194.332031 174.730469 C 194.332031 175.460938 193.742188 176.050781 193.011719 176.050781 Z M 193.011719 176.050781 " fill-opacity="1" fill-rule="nonzero"/><path fill="#c6afc0" d="M 161.519531 176.050781 C 161.246094 176.050781 160.972656 175.964844 160.734375 175.789062 C 160.148438 175.355469 160.027344 174.53125 160.460938 173.945312 L 178.984375 148.9375 C 179.417969 148.351562 180.246094 148.226562 180.832031 148.660156 C 181.417969 149.097656 181.539062 149.921875 181.105469 150.507812 L 162.582031 175.515625 C 162.320312 175.867188 161.921875 176.050781 161.519531 176.050781 Z M 161.519531 176.050781 " fill-opacity="1" fill-rule="nonzero"/><path fill="#fcfc62" d="M 223.152344 149.722656 L 148.554688 149.722656 C 147.53125 149.722656 146.699219 148.894531 146.699219 147.871094 L 146.699219 139.535156 C 146.699219 138.511719 147.53125 137.679688 148.554688 137.679688 L 224.503906 137.679688 Z M 223.152344 149.722656 " fill-opacity="1" fill-rule="nonzero"/><path fill="#c6afc0" d="M 223.152344 151.042969 L 148.554688 151.042969 C 146.804688 151.042969 145.382812 149.617188 145.382812 147.871094 L 145.382812 139.535156 C 145.382812 137.785156 146.804688 136.363281 148.554688 136.363281 L 224.503906 136.363281 C 225.234375 136.363281 225.824219 136.953125 225.824219 137.679688 C 225.824219 138.410156 225.234375 139 224.503906 139 L 148.554688 139 C 148.257812 139 148.019531 139.238281 148.019531 139.535156 L 148.019531 147.871094 C 148.019531 148.164062 148.257812 148.402344 148.554688 148.402344 L 223.152344 148.402344 C 223.878906 148.402344 224.472656 148.992188 224.472656 149.722656 C 224.472656 150.449219 223.878906 151.042969 223.152344 151.042969 Z M 223.152344 151.042969 " fill-opacity="1" fill-rule="nonzero"/><path fill="#c6afc0" d="M 179.582031 127.421875 C 179.246094 127.421875 178.90625 127.292969 178.648438 127.035156 L 163.828125 112.214844 C 163.3125 111.699219 163.3125 110.863281 163.828125 110.351562 C 164.34375 109.835938 165.179688 109.835938 165.695312 110.351562 L 180.515625 125.167969 C 181.03125 125.683594 181.03125 126.519531 180.515625 127.035156 C 180.257812 127.292969 179.921875 127.421875 179.582031 127.421875 Z M 179.582031 127.421875 " fill-opacity="1" fill-rule="nonzero"/><path fill="#c6afc0" d="M 164.761719 127.421875 C 164.425781 127.421875 164.085938 127.292969 163.828125 127.035156 C 163.3125 126.519531 163.3125 125.683594 163.828125 125.167969 L 178.648438 110.351562 C 179.164062 109.835938 180 109.835938 180.515625 110.351562 C 181.03125 110.863281 181.03125 111.699219 180.515625 112.214844 L 165.695312 127.035156 C 165.4375 127.292969 165.101562 127.421875 164.761719 127.421875 Z M 164.761719 127.421875 " fill-opacity="1" fill-rule="nonzero"/><path fill="#fcfc62" d="M 220.207031 91.03125 C 220.59375 91.417969 220.941406 91.839844 221.246094 92.296875 C 221.546875 92.75 221.804688 93.230469 222.015625 93.738281 C 222.222656 94.242188 222.382812 94.761719 222.488281 95.300781 C 222.597656 95.835938 222.648438 96.378906 222.648438 96.925781 C 222.648438 97.472656 222.597656 98.015625 222.488281 98.554688 C 222.382812 99.089844 222.222656 99.609375 222.015625 100.117188 C 221.804688 100.621094 221.546875 101.101562 221.246094 101.558594 C 220.941406 102.011719 220.59375 102.433594 220.207031 102.820312 C 219.820312 103.207031 219.398438 103.554688 218.945312 103.859375 C 218.488281 104.164062 218.007812 104.417969 217.503906 104.628906 C 216.996094 104.839844 216.476562 104.996094 215.941406 105.101562 C 215.402344 105.210938 214.859375 105.261719 214.3125 105.261719 C 213.765625 105.261719 213.222656 105.210938 212.6875 105.101562 C 212.148438 104.996094 211.628906 104.839844 211.125 104.628906 C 210.617188 104.417969 210.136719 104.164062 209.683594 103.859375 C 209.226562 103.554688 208.804688 103.207031 208.417969 102.820312 C 208.03125 102.433594 207.6875 102.011719 207.382812 101.558594 C 207.078125 101.101562 206.820312 100.621094 206.613281 100.117188 C 206.402344 99.613281 206.242188 99.089844 206.136719 98.554688 C 206.03125 98.015625 205.976562 97.472656 205.976562 96.925781 C 205.976562 96.378906 206.03125 95.835938 206.136719 95.300781 C 206.242188 94.765625 206.402344 94.242188 206.613281 93.738281 C 206.820312 93.230469 207.078125 92.75 207.382812 92.296875 C 207.6875 91.839844 208.03125 91.417969 208.417969 91.03125 C 208.804688 90.644531 209.226562 90.300781 209.683594 89.996094 C 210.136719 89.691406 210.617188 89.433594 211.121094 89.226562 C 211.628906 89.015625 212.148438 88.859375 212.6875 88.75 C 213.222656 88.644531 213.765625 88.589844 214.3125 88.589844 C 214.859375 88.589844 215.402344 88.644531 215.9375 88.75 C 216.476562 88.859375 216.996094 89.015625 217.503906 89.226562 C 218.007812 89.433594 218.488281 89.691406 218.945312 89.996094 C 219.398438 90.300781 219.820312 90.644531 220.207031 91.03125 Z M 220.207031 91.03125 " fill-opacity="1" fill-rule="nonzero"/><path fill="#c6afc0" d="M 214.316406 106.582031 C 208.992188 106.582031 204.660156 102.25 204.660156 96.925781 C 204.660156 91.601562 208.992188 87.269531 214.316406 87.269531 C 219.640625 87.269531 223.972656 91.601562 223.972656 96.925781 C 223.972656 102.25 219.640625 106.582031 214.316406 106.582031 Z M 214.316406 89.910156 C 210.449219 89.910156 207.300781 93.058594 207.300781 96.925781 C 207.300781 100.796875 210.449219 103.941406 214.316406 103.941406 C 218.183594 103.941406 221.332031 100.796875 221.332031 96.925781 C 221.332031 93.058594 218.183594 89.910156 214.316406 89.910156 Z M 214.316406 89.910156 " fill-opacity="1" fill-rule="nonzero"/><path fill="#c6afc0" d="M 214.316406 99.171875 C 213.078125 99.171875 212.070312 98.164062 212.070312 96.925781 C 212.070312 95.6875 213.078125 94.679688 214.316406 94.679688 C 215.554688 94.679688 216.5625 95.6875 216.5625 96.925781 C 216.5625 98.164062 215.554688 99.171875 214.316406 99.171875 Z M 214.316406 96.53125 C 214.101562 96.53125 213.921875 96.710938 213.921875 96.925781 C 213.921875 97.144531 214.101562 97.320312 214.316406 97.320312 C 214.535156 97.320312 214.710938 97.144531 214.710938 96.925781 C 214.710938 96.710938 214.535156 96.53125 214.316406 96.53125 Z M 214.316406 96.53125 " fill-opacity="1" fill-rule="nonzero"/><path fill="#c6afc0" d="M 182.824219 119.550781 C 182.136719 119.550781 181.558594 119.019531 181.507812 118.328125 C 181.453125 117.601562 182 116.96875 182.726562 116.914062 C 182.753906 116.910156 185.792969 116.667969 189.882812 115.382812 C 193.625 114.210938 199.042969 111.898438 203.625 107.546875 C 204.152344 107.046875 204.988281 107.066406 205.488281 107.59375 C 205.992188 108.125 205.96875 108.957031 205.441406 109.460938 C 200.472656 114.179688 194.628906 116.667969 190.597656 117.925781 C 186.234375 119.289062 183.054688 119.535156 182.921875 119.546875 C 182.890625 119.546875 182.855469 119.550781 182.824219 119.550781 Z M 182.824219 119.550781 " fill-opacity="1" fill-rule="nonzero"/><path fill="#c6afc0" d="M 195.792969 89.910156 L 162.445312 89.910156 C 161.71875 89.910156 161.128906 89.320312 161.128906 88.589844 C 161.128906 87.859375 161.71875 87.269531 162.445312 87.269531 L 195.792969 87.269531 C 196.519531 87.269531 197.109375 87.859375 197.109375 88.589844 C 197.109375 89.320312 196.519531 89.910156 195.792969 89.910156 Z M 195.792969 89.910156 " fill-opacity="1" fill-rule="nonzero"/><path fill="#c6afc0" d="M 187.457031 100.097656 L 162.445312 100.097656 C 161.71875 100.097656 161.128906 99.507812 161.128906 98.777344 C 161.128906 98.050781 161.71875 97.460938 162.445312 97.460938 L 187.457031 97.460938 C 188.183594 97.460938 188.773438 98.050781 188.773438 98.777344 C 188.773438 99.507812 188.183594 100.097656 187.457031 100.097656 Z M 187.457031 100.097656 " fill-opacity="1" fill-rule="nonzero"/><path fill="#fcfc62" d="M 260.628906 171.953125 L 260.628906 174.726562 L 208.753906 174.726562 L 208.753906 171.953125 C 208.753906 168.371094 211.660156 165.46875 215.238281 165.46875 L 217.097656 165.46875 C 222.039062 156.207031 224.507812 146.945312 224.507812 137.683594 L 218.949219 137.683594 C 216.902344 137.683594 215.242188 136.019531 215.242188 133.976562 L 215.242188 116.378906 C 215.242188 115.863281 215.65625 115.453125 216.164062 115.453125 L 221.726562 115.453125 C 222.234375 115.453125 222.652344 115.863281 222.652344 116.378906 L 222.652344 123.789062 L 230.0625 123.789062 L 230.0625 116.378906 C 230.0625 115.863281 230.476562 115.453125 230.984375 115.453125 L 238.398438 115.453125 C 238.914062 115.453125 239.320312 115.863281 239.320312 116.378906 L 239.320312 123.789062 L 246.730469 123.789062 L 246.730469 116.378906 C 246.730469 115.863281 247.148438 115.453125 247.664062 115.453125 L 253.21875 115.453125 C 253.726562 115.453125 254.140625 115.863281 254.140625 116.378906 L 254.140625 133.976562 C 254.140625 136.019531 252.488281 137.683594 250.441406 137.683594 L 244.882812 137.683594 C 244.730469 146.945312 247.199219 156.207031 252.292969 165.46875 L 254.140625 165.46875 C 257.722656 165.46875 260.628906 168.371094 260.628906 171.953125 Z M 260.628906 171.953125 " fill-opacity="1" fill-rule="nonzero"/><path fill="#c6afc0" d="M 260.628906 176.046875 L 208.753906 176.046875 C 208.027344 176.046875 207.4375 175.457031 207.4375 174.726562 L 207.4375 171.953125 C 207.4375 167.648438 210.9375 164.148438 215.238281 164.148438 L 216.300781 164.148438 C 220.644531 155.792969 222.953125 147.34375 223.171875 139.003906 L 218.949219 139.003906 C 216.175781 139.003906 213.921875 136.75 213.921875 133.976562 L 213.921875 116.378906 C 213.921875 115.140625 214.925781 114.132812 216.164062 114.132812 L 221.726562 114.132812 C 222.964844 114.132812 223.96875 115.140625 223.96875 116.378906 L 223.96875 122.46875 L 228.742188 122.46875 L 228.742188 116.378906 C 228.742188 115.140625 229.75 114.132812 230.984375 114.132812 L 238.398438 114.132812 C 239.632812 114.132812 240.640625 115.140625 240.640625 116.378906 L 240.640625 122.46875 L 245.414062 122.46875 L 245.414062 116.378906 C 245.414062 115.140625 246.421875 114.132812 247.664062 114.132812 L 253.21875 114.132812 C 254.453125 114.132812 255.460938 115.140625 255.460938 116.378906 L 255.460938 133.976562 C 255.460938 136.75 253.210938 139.003906 250.441406 139.003906 L 246.195312 139.003906 C 246.289062 147.34375 248.601562 155.789062 253.078125 164.148438 L 254.140625 164.148438 C 258.445312 164.148438 261.945312 167.648438 261.945312 171.953125 L 261.945312 174.726562 C 261.945312 175.457031 261.355469 176.046875 260.628906 176.046875 Z M 210.074219 173.410156 L 259.308594 173.410156 L 259.308594 171.953125 C 259.308594 169.105469 256.992188 166.785156 254.140625 166.785156 L 252.292969 166.785156 C 251.808594 166.785156 251.367188 166.523438 251.136719 166.101562 C 245.953125 156.683594 243.40625 147.113281 243.5625 137.664062 C 243.574219 136.941406 244.160156 136.367188 244.882812 136.367188 L 250.441406 136.367188 C 251.753906 136.367188 252.824219 135.292969 252.824219 133.976562 L 252.824219 116.773438 L 248.050781 116.773438 L 248.050781 123.789062 C 248.050781 124.519531 247.460938 125.109375 246.730469 125.109375 L 239.320312 125.109375 C 238.59375 125.109375 238 124.519531 238 123.789062 L 238 116.773438 L 231.378906 116.773438 L 231.378906 123.789062 C 231.378906 124.519531 230.789062 125.109375 230.058594 125.109375 L 222.648438 125.109375 C 221.921875 125.109375 221.332031 124.519531 221.332031 123.789062 L 221.332031 116.773438 L 216.558594 116.773438 L 216.558594 133.976562 C 216.558594 135.292969 217.632812 136.367188 218.949219 136.367188 L 224.507812 136.367188 C 225.238281 136.367188 225.828125 136.957031 225.828125 137.683594 C 225.828125 147.121094 223.28125 156.679688 218.261719 166.089844 C 218.035156 166.519531 217.585938 166.785156 217.097656 166.785156 L 215.238281 166.785156 C 212.390625 166.785156 210.074219 169.105469 210.074219 171.953125 Z M 210.074219 173.410156 " fill-opacity="1" fill-rule="nonzero"/><path fill="#c6afc0" d="M 244.882812 139.003906 L 224.507812 139.003906 C 223.78125 139.003906 223.191406 138.414062 223.191406 137.683594 C 223.191406 136.957031 223.78125 136.367188 224.507812 136.367188 L 244.882812 136.367188 C 245.609375 136.367188 246.199219 136.957031 246.199219 137.683594 C 246.199219 138.414062 245.609375 139.003906 244.882812 139.003906 Z M 244.882812 139.003906 " fill-opacity="1" fill-rule="nonzero"/><path fill="#c6afc0" d="M 245.933594 166.785156 L 217.097656 166.785156 C 216.371094 166.785156 215.78125 166.195312 215.78125 165.46875 C 215.78125 164.738281 216.371094 164.148438 217.097656 164.148438 L 245.933594 164.148438 C 246.660156 164.148438 247.253906 164.738281 247.253906 165.46875 C 247.253906 166.195312 246.660156 166.785156 245.933594 166.785156 Z M 245.933594 166.785156 " fill-opacity="1" fill-rule="nonzero"/><path fill="#fcfc62" d="M 35.226562 90.277344 L 15.023438 110.480469 C 10.046875 115.457031 10.046875 123.527344 15.023438 128.507812 C 20 133.484375 28.070312 133.484375 33.046875 128.507812 L 53.25 108.300781 Z M 35.226562 90.277344 " fill-opacity="1" fill-rule="nonzero"/><path fill="#c6afc0" d="M 24.035156 133.550781 C 20.433594 133.550781 16.832031 132.179688 14.089844 129.4375 C 11.433594 126.78125 9.96875 123.25 9.96875 119.492188 C 9.96875 115.738281 11.433594 112.203125 14.089844 109.546875 L 34.292969 89.34375 C 34.808594 88.828125 35.644531 88.828125 36.160156 89.34375 C 36.675781 89.859375 36.675781 90.695312 36.160156 91.210938 L 15.957031 111.414062 C 13.796875 113.574219 12.609375 116.441406 12.609375 119.492188 C 12.609375 122.546875 13.796875 125.414062 15.957031 127.574219 C 18.183594 129.800781 21.109375 130.914062 24.035156 130.914062 C 26.960938 130.914062 29.886719 129.800781 32.113281 127.574219 L 52.316406 107.367188 C 52.832031 106.851562 53.667969 106.851562 54.183594 107.367188 C 54.699219 107.882812 54.699219 108.71875 54.183594 109.234375 L 33.980469 129.4375 C 31.238281 132.179688 27.636719 133.550781 24.035156 133.550781 Z M 24.035156 133.550781 " fill-opacity="1" fill-rule="nonzero"/><path fill="#fcfc62" d="M 38.570312 81.0625 L 31.90625 87.980469 C 30.667969 89.21875 30.667969 91.226562 31.90625 92.464844 L 51.058594 111.613281 C 52.296875 112.851562 54.304688 112.851562 55.542969 111.613281 L 62.355469 104.640625 Z M 38.570312 81.0625 " fill-opacity="1" fill-rule="nonzero"/><path fill="#c6afc0" d="M 53.300781 113.863281 C 52.101562 113.863281 50.972656 113.394531 50.125 112.546875 L 30.972656 93.398438 C 30.125 92.550781 29.660156 91.421875 29.660156 90.222656 C 29.660156 89.027344 30.121094 87.902344 30.964844 87.054688 L 37.621094 80.148438 C 38.125 79.621094 38.960938 79.605469 39.484375 80.113281 C 40.011719 80.617188 40.027344 81.453125 39.519531 81.976562 L 32.859375 88.894531 C 32.851562 88.902344 32.847656 88.90625 32.839844 88.914062 C 32.492188 89.261719 32.296875 89.726562 32.296875 90.222656 C 32.296875 90.714844 32.492188 91.179688 32.839844 91.53125 L 51.988281 110.679688 C 52.339844 111.03125 52.804688 111.222656 53.300781 111.222656 C 53.792969 111.222656 54.253906 111.03125 54.605469 110.683594 L 61.414062 103.71875 C 61.921875 103.195312 62.757812 103.1875 63.277344 103.695312 C 63.800781 104.207031 63.808594 105.039062 63.300781 105.5625 L 56.484375 112.535156 C 56.480469 112.539062 56.476562 112.542969 56.472656 112.546875 C 55.625 113.394531 54.5 113.863281 53.300781 113.863281 Z M 53.300781 113.863281 " fill-opacity="1" fill-rule="nonzero"/><path fill="#2e363e" d="M 111.382812 31.667969 C 112.417969 32.703125 113.402344 33.789062 114.332031 34.921875 C 115.265625 36.058594 116.136719 37.234375 116.953125 38.453125 C 117.765625 39.671875 118.519531 40.929688 119.210938 42.222656 C 119.902344 43.515625 120.53125 44.84375 121.089844 46.195312 C 121.652344 47.550781 122.144531 48.933594 122.570312 50.335938 C 122.996094 51.738281 123.355469 53.160156 123.640625 54.597656 C 123.925781 56.039062 124.140625 57.488281 124.285156 58.949219 C 124.429688 60.40625 124.5 61.871094 124.5 63.335938 C 124.5 64.804688 124.429688 66.269531 124.285156 67.726562 C 124.140625 69.1875 123.925781 70.636719 123.640625 72.074219 C 123.355469 73.515625 123 74.9375 122.574219 76.339844 C 122.148438 77.742188 121.652344 79.121094 121.09375 80.476562 C 120.53125 81.832031 119.902344 83.15625 119.210938 84.453125 C 118.519531 85.746094 117.769531 87 116.953125 88.222656 C 116.136719 89.441406 115.265625 90.617188 114.335938 91.753906 C 113.402344 92.886719 112.421875 93.972656 111.382812 95.007812 C 110.347656 96.046875 109.261719 97.03125 108.125 97.960938 C 106.992188 98.890625 105.816406 99.765625 104.597656 100.578125 C 103.375 101.394531 102.121094 102.148438 100.824219 102.839844 C 99.53125 103.53125 98.207031 104.15625 96.851562 104.71875 C 95.496094 105.28125 94.117188 105.773438 92.714844 106.199219 C 91.308594 106.625 89.890625 106.980469 88.449219 107.265625 C 87.011719 107.554688 85.5625 107.769531 84.101562 107.914062 C 82.640625 108.054688 81.179688 108.128906 79.710938 108.128906 C 78.246094 108.128906 76.78125 108.054688 75.320312 107.914062 C 73.863281 107.769531 72.414062 107.554688 70.972656 107.265625 C 69.535156 106.980469 68.113281 106.625 66.710938 106.199219 C 65.304688 105.773438 63.925781 105.28125 62.570312 104.71875 C 61.214844 104.15625 59.890625 103.53125 58.597656 102.839844 C 57.304688 102.148438 56.046875 101.394531 54.828125 100.578125 C 53.609375 99.765625 52.429688 98.890625 51.296875 97.960938 C 50.164062 97.03125 49.078125 96.046875 48.039062 95.011719 C 47.003906 93.972656 46.019531 92.886719 45.089844 91.753906 C 44.160156 90.621094 43.285156 89.441406 42.46875 88.222656 C 41.65625 87.003906 40.902344 85.746094 40.210938 84.453125 C 39.519531 83.160156 38.894531 81.835938 38.332031 80.480469 C 37.769531 79.125 37.277344 77.746094 36.851562 76.339844 C 36.425781 74.9375 36.070312 73.515625 35.78125 72.078125 C 35.496094 70.636719 35.28125 69.1875 35.136719 67.730469 C 34.992188 66.269531 34.921875 64.804688 34.921875 63.339844 C 34.921875 61.871094 34.992188 60.410156 35.136719 58.949219 C 35.28125 57.488281 35.496094 56.039062 35.78125 54.601562 C 36.066406 53.164062 36.425781 51.742188 36.851562 50.335938 C 37.277344 48.933594 37.769531 47.554688 38.332031 46.199219 C 38.890625 44.84375 39.519531 43.519531 40.210938 42.226562 C 40.902344 40.929688 41.65625 39.675781 42.46875 38.453125 C 43.285156 37.234375 44.15625 36.058594 45.085938 34.925781 C 46.019531 33.789062 47.003906 32.703125 48.039062 31.667969 C 49.078125 30.628906 50.164062 29.644531 51.296875 28.714844 C 52.429688 27.785156 53.605469 26.914062 54.828125 26.097656 C 56.046875 25.28125 57.304688 24.527344 58.597656 23.835938 C 59.890625 23.144531 61.214844 22.519531 62.570312 21.957031 C 63.925781 21.398438 65.304688 20.902344 66.707031 20.476562 C 68.113281 20.050781 69.535156 19.695312 70.972656 19.410156 C 72.410156 19.125 73.859375 18.90625 75.320312 18.765625 C 76.78125 18.621094 78.242188 18.546875 79.710938 18.546875 C 81.175781 18.546875 82.640625 18.621094 84.101562 18.765625 C 85.558594 18.90625 87.011719 19.121094 88.449219 19.410156 C 89.886719 19.695312 91.308594 20.050781 92.710938 20.476562 C 94.117188 20.902344 95.496094 21.394531 96.851562 21.957031 C 98.207031 22.519531 99.53125 23.144531 100.824219 23.835938 C 102.117188 24.527344 103.375 25.28125 104.59375 26.097656 C 105.8125 26.910156 106.992188 27.785156 108.125 28.714844 C 109.257812 29.644531 110.34375 30.628906 111.382812 31.667969 Z M 111.382812 31.667969 " fill-opacity="1" fill-rule="nonzero"/><path fill="#c6afc0" d="M 79.714844 109.449219 C 73.488281 109.449219 67.449219 108.226562 61.765625 105.824219 C 56.273438 103.5 51.34375 100.175781 47.109375 95.941406 C 42.875 91.707031 39.550781 86.777344 37.226562 81.285156 C 34.824219 75.601562 33.605469 69.5625 33.605469 63.339844 L 34.921875 63.339844 L 33.605469 63.339844 C 33.605469 57.113281 34.824219 51.074219 37.226562 45.390625 C 39.550781 39.898438 42.875 34.96875 47.109375 30.734375 C 51.34375 26.5 56.273438 23.175781 61.765625 20.851562 C 67.449219 18.449219 73.488281 17.230469 79.714844 17.230469 C 85.9375 17.230469 91.976562 18.449219 97.660156 20.851562 C 103.152344 23.175781 108.082031 26.5 112.316406 30.734375 C 116.550781 34.96875 119.875 39.898438 122.199219 45.390625 C 124.601562 51.074219 125.824219 57.113281 125.824219 63.339844 C 125.824219 69.5625 124.601562 75.601562 122.199219 81.285156 C 119.875 86.777344 116.550781 91.707031 112.316406 95.941406 C 108.082031 100.175781 103.152344 103.5 97.660156 105.824219 C 91.976562 108.226562 85.9375 109.449219 79.714844 109.449219 Z M 79.714844 19.867188 C 55.742188 19.867188 36.242188 39.367188 36.242188 63.335938 C 36.242188 87.308594 55.742188 106.808594 79.714844 106.808594 C 103.683594 106.808594 123.183594 87.308594 123.183594 63.339844 C 123.183594 51.726562 118.660156 40.808594 110.453125 32.601562 C 102.242188 24.390625 91.324219 19.867188 79.714844 19.867188 Z M 79.714844 19.867188 " fill-opacity="1" fill-rule="nonzero"/><path fill="#fcfc62" d="M 105.328125 106.222656 L 105.328125 132.238281 L 124.503906 132.238281 L 124.503906 99.25 C 124.503906 97.898438 123.40625 96.800781 122.054688 96.800781 L 117.425781 96.800781 Z M 105.328125 106.222656 " fill-opacity="1" fill-rule="nonzero"/><path fill="#c6afc0" d="M 124.503906 133.558594 L 105.328125 133.558594 C 104.601562 133.558594 104.007812 132.96875 104.007812 132.238281 L 104.007812 106.222656 C 104.007812 105.492188 104.601562 104.902344 105.328125 104.902344 C 106.058594 104.902344 106.648438 105.492188 106.648438 106.222656 L 106.648438 130.917969 L 123.183594 130.917969 L 123.183594 99.25 C 123.183594 98.628906 122.675781 98.121094 122.054688 98.121094 L 117.425781 98.121094 C 116.695312 98.121094 116.105469 97.53125 116.105469 96.800781 C 116.105469 96.074219 116.695312 95.484375 117.425781 95.484375 L 122.054688 95.484375 C 124.132812 95.484375 125.824219 97.171875 125.824219 99.25 L 125.824219 132.238281 C 125.824219 132.96875 125.230469 133.558594 124.503906 133.558594 Z M 124.503906 133.558594 " fill-opacity="1" fill-rule="nonzero"/><path fill="#fcfc62" d="M 77.660156 132.238281 L 96.835938 132.238281 L 96.835938 117.421875 C 96.835938 116.070312 95.738281 114.972656 94.386719 114.972656 L 80.109375 114.972656 C 78.757812 114.972656 77.660156 116.070312 77.660156 117.421875 Z M 77.660156 132.238281 " fill-opacity="1" fill-rule="nonzero"/><path fill="#c6afc0" d="M 96.835938 133.558594 L 77.660156 133.558594 C 76.933594 133.558594 76.34375 132.96875 76.34375 132.238281 L 76.34375 117.421875 C 76.34375 115.34375 78.03125 113.65625 80.109375 113.65625 L 94.386719 113.65625 C 96.464844 113.65625 98.15625 115.34375 98.15625 117.421875 L 98.15625 132.238281 C 98.15625 132.96875 97.566406 133.558594 96.835938 133.558594 Z M 78.980469 130.917969 L 95.515625 130.917969 L 95.515625 117.421875 C 95.515625 116.800781 95.011719 116.292969 94.386719 116.292969 L 80.109375 116.292969 C 79.488281 116.292969 78.980469 116.800781 78.980469 117.421875 Z M 78.980469 130.917969 " fill-opacity="1" fill-rule="nonzero"/><path fill="#fcfc62" d="M 49.996094 132.238281 L 69.167969 132.238281 L 69.167969 125.417969 C 69.167969 124.066406 68.074219 122.96875 66.71875 122.96875 L 52.445312 122.96875 C 51.089844 122.96875 49.996094 124.066406 49.996094 125.417969 Z M 49.996094 132.238281 " fill-opacity="1" fill-rule="nonzero"/><path fill="#c6afc0" d="M 69.167969 133.558594 L 49.996094 133.558594 C 49.265625 133.558594 48.675781 132.96875 48.675781 132.238281 L 48.675781 125.417969 C 48.675781 123.339844 50.367188 121.648438 52.445312 121.648438 L 66.71875 121.648438 C 68.796875 121.648438 70.488281 123.339844 70.488281 125.417969 L 70.488281 132.238281 C 70.488281 132.96875 69.898438 133.558594 69.167969 133.558594 Z M 51.3125 130.917969 L 67.847656 130.917969 L 67.847656 125.417969 C 67.847656 124.796875 67.34375 124.289062 66.71875 124.289062 L 52.445312 124.289062 C 51.820312 124.289062 51.316406 124.796875 51.316406 125.417969 L 51.316406 130.917969 Z M 51.3125 130.917969 " fill-opacity="1" fill-rule="nonzero"/><path fill="#c6afc0" d="M 129.652344 133.558594 L 43.089844 133.558594 C 42.363281 133.558594 41.769531 132.96875 41.769531 132.238281 C 41.769531 131.511719 42.363281 130.917969 43.089844 130.917969 L 129.652344 130.917969 C 130.378906 130.917969 130.972656 131.511719 130.972656 132.238281 C 130.972656 132.96875 130.378906 133.558594 129.652344 133.558594 Z M 129.652344 133.558594 " fill-opacity="1" fill-rule="nonzero"/><path fill="#fcfc62" d="M 54.402344 62.96875 L 54.402344 83.539062 C 54.402344 84.6875 55.332031 85.613281 56.476562 85.613281 L 102.953125 85.613281 C 104.09375 85.613281 105.023438 84.6875 105.023438 83.539062 L 105.023438 62.96875 Z M 54.402344 62.96875 " fill-opacity="1" fill-rule="nonzero"/><path fill="#c6afc0" d="M 102.953125 86.933594 L 56.476562 86.933594 C 54.605469 86.933594 53.085938 85.410156 53.085938 83.539062 L 53.085938 62.96875 C 53.085938 62.238281 53.675781 61.648438 54.402344 61.648438 C 55.132812 61.648438 55.722656 62.238281 55.722656 62.96875 L 55.722656 83.539062 C 55.722656 83.957031 56.0625 84.292969 56.476562 84.292969 L 102.953125 84.292969 C 103.367188 84.292969 103.703125 83.957031 103.703125 83.539062 L 103.703125 62.96875 C 103.703125 62.238281 104.296875 61.648438 105.023438 61.648438 C 105.753906 61.648438 106.34375 62.238281 106.34375 62.96875 L 106.34375 83.539062 C 106.34375 85.410156 104.820312 86.933594 102.953125 86.933594 Z M 102.953125 86.933594 " fill-opacity="1" fill-rule="nonzero"/><path fill="#2e363e" d="M 92.636719 44.585938 L 92.636719 39.21875 C 92.636719 36.902344 90.761719 35.027344 88.445312 35.027344 L 70.980469 35.027344 C 68.664062 35.027344 66.789062 36.902344 66.789062 39.21875 L 66.789062 44.585938 Z M 92.636719 44.585938 " fill-opacity="1" fill-rule="nonzero"/><path fill="#c6afc0" d="M 92.636719 45.90625 C 91.910156 45.90625 91.320312 45.316406 91.320312 44.585938 L 91.320312 39.21875 C 91.320312 37.632812 90.03125 36.34375 88.445312 36.34375 L 70.980469 36.34375 C 69.394531 36.34375 68.109375 37.632812 68.109375 39.21875 L 68.109375 44.585938 C 68.109375 45.316406 67.515625 45.90625 66.789062 45.90625 C 66.058594 45.90625 65.46875 45.316406 65.46875 44.585938 L 65.46875 39.21875 C 65.46875 36.179688 67.941406 33.707031 70.980469 33.707031 L 88.445312 33.707031 C 91.484375 33.707031 93.957031 36.179688 93.957031 39.21875 L 93.957031 44.585938 C 93.957031 45.316406 93.367188 45.90625 92.636719 45.90625 Z M 92.636719 45.90625 " fill-opacity="1" fill-rule="nonzero"/><path fill="#fcfc62" d="M 87.320312 65.1875 L 105.34375 65.1875 C 106.488281 65.1875 107.417969 64.257812 107.417969 63.113281 L 107.417969 46.660156 C 107.417969 45.515625 106.488281 44.585938 105.34375 44.585938 L 54.082031 44.585938 C 52.9375 44.585938 52.011719 45.515625 52.011719 46.660156 L 52.011719 63.113281 C 52.011719 64.257812 52.9375 65.1875 54.082031 65.1875 Z M 87.320312 65.1875 " fill-opacity="1" fill-rule="nonzero"/><path fill="#c6afc0" d="M 105.34375 66.507812 L 87.320312 66.507812 C 86.589844 66.507812 86 65.914062 86 65.1875 C 86 64.457031 86.589844 63.867188 87.320312 63.867188 L 105.34375 63.867188 C 105.757812 63.867188 106.097656 63.53125 106.097656 63.113281 L 106.097656 46.660156 C 106.097656 46.246094 105.757812 45.90625 105.34375 45.90625 L 54.082031 45.90625 C 53.667969 45.90625 53.332031 46.246094 53.332031 46.660156 L 53.332031 63.113281 C 53.332031 63.53125 53.667969 63.867188 54.082031 63.867188 L 72.105469 63.867188 C 72.835938 63.867188 73.425781 64.457031 73.425781 65.1875 C 73.425781 65.914062 72.835938 66.507812 72.105469 66.507812 L 54.082031 66.507812 C 52.210938 66.507812 50.691406 64.984375 50.691406 63.113281 L 50.691406 46.660156 C 50.691406 44.789062 52.210938 43.269531 54.082031 43.269531 L 105.34375 43.269531 C 107.214844 43.269531 108.734375 44.789062 108.734375 46.660156 L 108.734375 63.113281 C 108.734375 64.984375 107.214844 66.507812 105.34375 66.507812 Z M 105.34375 66.507812 " fill-opacity="1" fill-rule="nonzero"/><path fill="#2e363e" d="M 74.179688 70.308594 L 85.246094 70.308594 C 86.390625 70.308594 87.320312 69.382812 87.320312 68.238281 L 87.320312 62.136719 C 87.320312 60.992188 86.390625 60.066406 85.246094 60.066406 L 74.179688 60.066406 C 73.035156 60.066406 72.105469 60.992188 72.105469 62.136719 L 72.105469 68.238281 C 72.105469 69.382812 73.035156 70.308594 74.179688 70.308594 Z M 74.179688 70.308594 " fill-opacity="1" fill-rule="nonzero"/><path fill="#c6afc0" d="M 85.246094 71.628906 L 74.179688 71.628906 C 72.308594 71.628906 70.789062 70.105469 70.789062 68.238281 L 70.789062 62.136719 C 70.789062 60.265625 72.308594 58.746094 74.179688 58.746094 L 85.246094 58.746094 C 87.117188 58.746094 88.640625 60.265625 88.640625 62.136719 L 88.640625 68.238281 C 88.640625 70.105469 87.117188 71.628906 85.246094 71.628906 Z M 74.179688 61.382812 C 73.765625 61.382812 73.425781 61.722656 73.425781 62.136719 L 73.425781 68.238281 C 73.425781 68.652344 73.765625 68.988281 74.179688 68.988281 L 85.246094 68.988281 C 85.664062 68.988281 86 68.652344 86 68.238281 L 86 62.136719 C 86 61.722656 85.664062 61.382812 85.246094 61.382812 Z M 74.179688 61.382812 " fill-opacity="1" fill-rule="nonzero"/><path fill="#2e363e" d="M 137.964844 150.972656 C 140.402344 150.972656 142.378906 152.949219 142.378906 155.390625 L 142.378906 252.003906 C 142.378906 254.445312 140.402344 256.421875 137.960938 256.421875 L 64.703125 256.421875 C 61.046875 256.421875 58.082031 253.457031 58.082031 249.796875 L 58.082031 155.390625 C 58.082031 152.949219 60.058594 150.972656 62.496094 150.972656 Z M 137.964844 150.972656 " fill-opacity="1" fill-rule="nonzero"/><path fill="#c6afc0" d="M 137.960938 257.742188 L 64.703125 257.742188 C 60.324219 257.742188 56.761719 254.175781 56.761719 249.796875 L 56.761719 155.390625 C 56.761719 152.226562 59.335938 149.652344 62.496094 149.652344 L 137.964844 149.652344 C 141.125 149.652344 143.699219 152.226562 143.699219 155.390625 L 143.699219 252.003906 C 143.699219 255.167969 141.125 257.742188 137.960938 257.742188 Z M 62.496094 152.292969 C 60.789062 152.292969 59.402344 153.683594 59.402344 155.390625 L 59.402344 249.796875 C 59.402344 252.722656 61.78125 255.101562 64.703125 255.101562 L 137.960938 255.101562 C 139.671875 255.101562 141.058594 253.710938 141.058594 252.003906 L 141.058594 155.390625 C 141.058594 153.683594 139.671875 152.292969 137.964844 152.292969 Z M 62.496094 152.292969 " fill-opacity="1" fill-rule="nonzero"/><path fill="#2e363e" d="M 58.082031 155.390625 C 58.082031 152.949219 60.058594 150.972656 62.496094 150.972656 L 137.964844 150.972656 C 140.402344 150.972656 142.378906 152.949219 142.378906 155.390625 L 142.378906 183.5625 L 58.082031 183.5625 Z M 58.082031 155.390625 " fill-opacity="1" fill-rule="nonzero"/><path fill="#c6afc0" d="M 142.378906 184.882812 L 58.082031 184.882812 C 57.351562 184.882812 56.761719 184.292969 56.761719 183.5625 L 56.761719 155.390625 C 56.761719 152.226562 59.335938 149.652344 62.496094 149.652344 L 137.964844 149.652344 C 141.125 149.652344 143.699219 152.226562 143.699219 155.390625 L 143.699219 183.5625 C 143.699219 184.292969 143.109375 184.882812 142.378906 184.882812 Z M 59.402344 182.242188 L 141.058594 182.242188 L 141.058594 155.390625 C 141.058594 153.683594 139.671875 152.292969 137.964844 152.292969 L 62.496094 152.292969 C 60.789062 152.292969 59.402344 153.683594 59.402344 155.390625 Z M 59.402344 182.242188 " fill-opacity="1" fill-rule="nonzero"/><path fill="#c6afc0" d="M 117.101562 175.890625 C 116.375 175.890625 115.78125 175.300781 115.78125 174.574219 L 115.78125 160.71875 C 115.78125 160.191406 115.976562 159.71875 116.34375 159.34375 C 116.714844 158.972656 117.203125 158.769531 117.730469 158.769531 C 118.320312 158.769531 118.851562 159.019531 119.226562 159.476562 C 119.238281 159.488281 119.25 159.503906 119.257812 159.519531 L 127.410156 170.308594 L 127.410156 160.039062 C 127.410156 159.308594 128 158.71875 128.730469 158.71875 C 129.457031 158.71875 130.050781 159.308594 130.050781 160.039062 L 130.050781 174.246094 C 130.050781 174.8125 129.6875 175.316406 129.148438 175.496094 C 128.609375 175.675781 128.019531 175.496094 127.675781 175.042969 L 118.421875 162.789062 L 118.421875 174.574219 C 118.421875 175.300781 117.832031 175.890625 117.101562 175.890625 Z M 117.101562 175.890625 " fill-opacity="1" fill-rule="nonzero"/><path fill="#c6afc0" d="M 72.046875 175.890625 C 71.316406 175.890625 70.726562 175.300781 70.726562 174.574219 L 70.726562 160.652344 C 70.726562 160.136719 70.925781 159.652344 71.285156 159.289062 C 71.65625 158.914062 72.132812 158.71875 72.664062 158.71875 L 75.992188 158.71875 C 77.792969 158.71875 79.339844 159.347656 80.589844 160.589844 C 81.867188 161.824219 82.519531 163.347656 82.519531 165.125 C 82.519531 166.890625 81.867188 168.417969 80.585938 169.667969 C 79.320312 170.90625 77.777344 171.53125 75.992188 171.53125 L 73.367188 171.53125 L 73.367188 174.574219 C 73.367188 175.300781 72.777344 175.890625 72.046875 175.890625 Z M 73.367188 168.894531 L 75.992188 168.894531 C 77.078125 168.894531 77.976562 168.527344 78.742188 167.78125 C 79.507812 167.035156 79.878906 166.167969 79.878906 165.125 C 79.878906 164.078125 79.511719 163.214844 78.753906 162.488281 C 78.746094 162.480469 78.738281 162.476562 78.734375 162.46875 C 77.984375 161.722656 77.085938 161.359375 75.992188 161.359375 L 73.367188 161.359375 Z M 73.367188 168.894531 " fill-opacity="1" fill-rule="nonzero"/><path fill="#c6afc0" d="M 99.890625 176.050781 C 99.714844 176.050781 99.535156 176.015625 99.359375 175.941406 C 98.695312 175.648438 98.390625 174.871094 98.679688 174.203125 L 104.972656 159.828125 C 105.179688 159.351562 105.648438 159.042969 106.167969 159.035156 C 106.691406 159.03125 107.160156 159.332031 107.378906 159.804688 L 113.992188 174.179688 C 114.296875 174.839844 114.007812 175.625 113.34375 175.929688 C 112.683594 176.234375 111.898438 175.945312 111.59375 175.28125 L 109.867188 171.53125 L 102.730469 171.53125 L 101.097656 175.261719 C 100.882812 175.753906 100.398438 176.050781 99.890625 176.050781 Z M 103.886719 168.890625 L 108.65625 168.890625 L 106.210938 163.578125 Z M 103.886719 168.890625 " fill-opacity="1" fill-rule="nonzero"/><path fill="#c6afc0" d="M 95.300781 175.890625 L 86.582031 175.890625 C 85.851562 175.890625 85.261719 175.300781 85.261719 174.574219 L 85.261719 160.039062 C 85.261719 159.308594 85.851562 158.71875 86.582031 158.71875 C 87.308594 158.71875 87.902344 159.308594 87.902344 160.039062 L 87.902344 173.253906 L 95.300781 173.253906 C 96.027344 173.253906 96.621094 173.84375 96.621094 174.574219 C 96.621094 175.300781 96.027344 175.890625 95.300781 175.890625 Z M 95.300781 175.890625 " fill-opacity="1" fill-rule="nonzero"/><path fill="#c6afc0" d="M 80.386719 214.984375 C 79.660156 214.984375 79.070312 214.394531 79.070312 213.667969 L 79.070312 201.019531 L 74.730469 206.328125 C 74.269531 206.890625 73.441406 206.976562 72.875 206.515625 C 72.3125 206.054688 72.226562 205.222656 72.6875 204.65625 L 79.367188 196.484375 C 79.71875 196.054688 80.304688 195.890625 80.832031 196.078125 C 81.355469 196.265625 81.707031 196.761719 81.707031 197.320312 L 81.707031 213.667969 C 81.707031 214.394531 81.117188 214.984375 80.386719 214.984375 Z M 80.386719 214.984375 " fill-opacity="1" fill-rule="nonzero"/><path fill="#c6afc0" d="M 85.4375 241.992188 L 75.855469 241.992188 C 75.296875 241.992188 74.796875 241.636719 74.609375 241.109375 C 74.425781 240.578125 74.59375 239.992188 75.03125 239.640625 L 75.101562 239.585938 C 76.9375 238.101562 78.617188 236.460938 80.097656 234.714844 C 81.90625 232.574219 83.882812 229.84375 83.070312 227.71875 C 82.785156 226.96875 82.074219 225.699219 80.574219 225.648438 C 79.210938 225.601562 77.941406 226.222656 77.117188 226.75 C 76.503906 227.144531 75.6875 226.964844 75.292969 226.351562 C 74.898438 225.738281 75.078125 224.921875 75.691406 224.527344 C 76.832031 223.796875 78.621094 222.941406 80.660156 223.011719 C 82.839844 223.082031 84.660156 224.492188 85.535156 226.777344 C 87.011719 230.628906 83.578125 234.6875 82.109375 236.421875 C 81.253906 237.433594 80.332031 238.414062 79.355469 239.351562 L 85.4375 239.351562 C 86.167969 239.351562 86.757812 239.945312 86.757812 240.671875 C 86.757812 241.402344 86.167969 241.992188 85.4375 241.992188 Z M 85.4375 241.992188 " fill-opacity="1" fill-rule="nonzero"/><path fill="#c6afc0" d="M 107.800781 211.132812 L 94.226562 211.132812 C 93.5 211.132812 92.90625 210.542969 92.90625 209.8125 C 92.90625 209.085938 93.5 208.496094 94.226562 208.496094 L 107.800781 208.496094 C 108.527344 208.496094 109.117188 209.085938 109.117188 209.8125 C 109.117188 210.542969 108.527344 211.132812 107.800781 211.132812 Z M 107.800781 211.132812 " fill-opacity="1" fill-rule="nonzero"/><path fill="#c6afc0" d="M 125.691406 201.671875 L 94.226562 201.671875 C 93.5 201.671875 92.910156 201.082031 92.910156 200.351562 C 92.910156 199.625 93.5 199.03125 94.226562 199.03125 L 125.691406 199.03125 C 126.417969 199.03125 127.011719 199.625 127.011719 200.351562 C 127.011719 201.082031 126.417969 201.671875 125.691406 201.671875 Z M 125.691406 201.671875 " fill-opacity="1" fill-rule="nonzero"/><path fill="#c6afc0" d="M 125.691406 238.550781 L 94.226562 238.550781 C 93.5 238.550781 92.910156 237.957031 92.910156 237.230469 C 92.910156 236.5 93.5 235.910156 94.226562 235.910156 L 125.691406 235.910156 C 126.417969 235.910156 127.011719 236.5 127.011719 237.230469 C 127.011719 237.957031 126.417969 238.550781 125.691406 238.550781 Z M 125.691406 238.550781 " fill-opacity="1" fill-rule="nonzero"/><path fill="#c6afc0" d="M 125.691406 229.085938 L 94.226562 229.085938 C 93.5 229.085938 92.910156 228.496094 92.910156 227.769531 C 92.910156 227.039062 93.5 226.449219 94.226562 226.449219 L 125.691406 226.449219 C 126.417969 226.449219 127.011719 227.039062 127.011719 227.769531 C 127.011719 228.496094 126.417969 229.085938 125.691406 229.085938 Z M 125.691406 229.085938 " fill-opacity="1" fill-rule="nonzero"/><path fill="#fcfc62" d="M 150.113281 215.0625 L 155.902344 215.0625 C 156.476562 215.0625 156.941406 215.527344 156.941406 216.101562 L 156.941406 219.921875 C 156.941406 220.832031 158.027344 221.304688 158.691406 220.679688 L 168.101562 211.875 C 168.542969 211.464844 168.542969 210.765625 168.101562 210.355469 L 158.691406 201.550781 C 158.027344 200.929688 156.941406 201.398438 156.941406 202.308594 L 156.941406 205.949219 C 156.941406 206.523438 156.476562 206.992188 155.902344 206.992188 L 131.171875 206.992188 C 115.9375 206.992188 103.296875 219.261719 103.386719 234.496094 C 103.480469 249.628906 115.867188 261.847656 131.066406 261.660156 C 145.578125 261.484375 157.558594 249.769531 158.046875 235.261719 C 158.117188 233.140625 157.945312 231.070312 157.558594 229.082031 Z M 150.113281 215.0625 " fill-opacity="1" fill-rule="nonzero"/><g clip-path="url(#b0d93117b6)"><path fill="#c6afc0" d="M 130.722656 262.984375 C 123.164062 262.984375 116.046875 260.078125 110.648438 254.773438 C 105.164062 249.386719 102.117188 242.191406 102.070312 234.503906 C 102.023438 226.921875 104.972656 219.753906 110.375 214.320312 C 113.066406 211.613281 116.214844 209.484375 119.730469 207.992188 C 123.363281 206.453125 127.210938 205.671875 131.171875 205.671875 L 155.621094 205.671875 L 155.621094 202.308594 C 155.621094 201.367188 156.179688 200.519531 157.042969 200.144531 C 157.90625 199.769531 158.90625 199.945312 159.59375 200.585938 L 169.003906 209.394531 C 169.480469 209.835938 169.75 210.464844 169.75 211.117188 C 169.75 211.765625 169.480469 212.394531 169.003906 212.839844 L 159.59375 221.644531 C 158.90625 222.289062 157.90625 222.460938 157.042969 222.085938 C 156.179688 221.710938 155.621094 220.863281 155.621094 219.921875 L 155.621094 216.382812 L 150.113281 216.382812 C 149.386719 216.382812 148.796875 215.789062 148.796875 215.0625 C 148.796875 214.332031 149.386719 213.742188 150.113281 213.742188 L 155.902344 213.742188 C 157.203125 213.742188 158.261719 214.800781 158.261719 216.101562 L 158.261719 219.277344 L 166.984375 211.117188 L 158.261719 202.953125 L 158.261719 205.949219 C 158.261719 207.25 157.203125 208.308594 155.902344 208.308594 L 131.171875 208.308594 C 124.011719 208.308594 117.292969 211.105469 112.246094 216.179688 C 107.34375 221.113281 104.664062 227.617188 104.707031 234.488281 C 104.75 241.464844 107.515625 248 112.496094 252.890625 C 117.476562 257.78125 124.070312 260.429688 131.046875 260.34375 C 144.75 260.175781 156.269531 248.90625 156.726562 235.21875 C 156.792969 233.238281 156.636719 231.257812 156.261719 229.332031 C 156.121094 228.617188 156.589844 227.925781 157.304688 227.785156 C 158.019531 227.644531 158.714844 228.113281 158.851562 228.828125 C 159.265625 230.945312 159.4375 233.125 159.363281 235.308594 C 159.117188 242.664062 156.054688 249.578125 150.738281 254.78125 C 145.421875 259.980469 138.441406 262.890625 131.082031 262.980469 C 130.960938 262.980469 130.839844 262.984375 130.722656 262.984375 Z M 155.902344 216.382812 Z M 155.902344 216.382812 " fill-opacity="1" fill-rule="nonzero"/></g><path fill="#2e363e" d="M 149.988281 234.328125 C 149.988281 234.957031 149.957031 235.585938 149.898438 236.214844 C 149.835938 236.84375 149.742188 237.464844 149.621094 238.085938 C 149.496094 238.703125 149.34375 239.316406 149.160156 239.917969 C 148.976562 240.523438 148.765625 241.117188 148.523438 241.699219 C 148.28125 242.28125 148.011719 242.851562 147.714844 243.410156 C 147.417969 243.964844 147.09375 244.503906 146.742188 245.03125 C 146.390625 245.554688 146.015625 246.0625 145.617188 246.550781 C 145.214844 247.035156 144.792969 247.503906 144.347656 247.949219 C 143.902344 248.394531 143.433594 248.820312 142.945312 249.21875 C 142.457031 249.621094 141.953125 249.996094 141.425781 250.347656 C 140.902344 250.695312 140.363281 251.019531 139.804688 251.316406 C 139.25 251.613281 138.679688 251.882812 138.097656 252.125 C 137.515625 252.367188 136.921875 252.578125 136.316406 252.761719 C 135.710938 252.945312 135.101562 253.097656 134.484375 253.222656 C 133.863281 253.34375 133.242188 253.4375 132.613281 253.5 C 131.984375 253.5625 131.355469 253.59375 130.722656 253.59375 C 130.09375 253.59375 129.464844 253.5625 128.835938 253.5 C 128.207031 253.4375 127.585938 253.34375 126.964844 253.222656 C 126.347656 253.097656 125.734375 252.945312 125.132812 252.761719 C 124.527344 252.578125 123.933594 252.367188 123.351562 252.125 C 122.769531 251.882812 122.199219 251.613281 121.640625 251.316406 C 121.085938 251.019531 120.546875 250.695312 120.019531 250.347656 C 119.496094 249.996094 118.988281 249.621094 118.503906 249.21875 C 118.015625 248.820312 117.546875 248.394531 117.101562 247.949219 C 116.65625 247.503906 116.230469 247.035156 115.832031 246.550781 C 115.429688 246.0625 115.054688 245.554688 114.707031 245.03125 C 114.355469 244.503906 114.03125 243.964844 113.734375 243.410156 C 113.4375 242.851562 113.167969 242.28125 112.925781 241.699219 C 112.683594 241.117188 112.472656 240.523438 112.289062 239.917969 C 112.105469 239.316406 111.953125 238.703125 111.828125 238.085938 C 111.707031 237.464844 111.613281 236.84375 111.550781 236.214844 C 111.488281 235.585938 111.457031 234.957031 111.457031 234.328125 C 111.457031 233.695312 111.488281 233.066406 111.550781 232.4375 C 111.613281 231.8125 111.707031 231.1875 111.828125 230.570312 C 111.953125 229.949219 112.105469 229.339844 112.289062 228.734375 C 112.472656 228.128906 112.683594 227.539062 112.925781 226.953125 C 113.167969 226.371094 113.4375 225.800781 113.734375 225.246094 C 114.03125 224.6875 114.355469 224.148438 114.707031 223.625 C 115.054688 223.097656 115.429688 222.59375 115.832031 222.105469 C 116.230469 221.617188 116.65625 221.152344 117.101562 220.703125 C 117.546875 220.257812 118.015625 219.835938 118.503906 219.433594 C 118.988281 219.035156 119.496094 218.660156 120.019531 218.308594 C 120.546875 217.957031 121.085938 217.632812 121.640625 217.335938 C 122.199219 217.039062 122.769531 216.769531 123.351562 216.527344 C 123.933594 216.285156 124.527344 216.074219 125.132812 215.890625 C 125.734375 215.707031 126.347656 215.554688 126.964844 215.433594 C 127.585938 215.308594 128.207031 215.214844 128.835938 215.15625 C 129.464844 215.09375 130.09375 215.0625 130.722656 215.0625 C 131.355469 215.0625 131.984375 215.09375 132.613281 215.15625 C 133.242188 215.214844 133.863281 215.308594 134.484375 215.433594 C 135.101562 215.554688 135.710938 215.707031 136.316406 215.890625 C 136.921875 216.074219 137.515625 216.285156 138.097656 216.527344 C 138.679688 216.769531 139.25 217.039062 139.804688 217.335938 C 140.363281 217.632812 140.902344 217.957031 141.425781 218.308594 C 141.953125 218.660156 142.457031 219.035156 142.945312 219.433594 C 143.433594 219.835938 143.902344 220.257812 144.347656 220.703125 C 144.792969 221.152344 145.214844 221.617188 145.617188 222.105469 C 146.015625 222.59375 146.390625 223.097656 146.742188 223.625 C 147.09375 224.148438 147.417969 224.6875 147.714844 225.246094 C 148.011719 225.800781 148.28125 226.371094 148.523438 226.953125 C 148.765625 227.539062 148.976562 228.128906 149.160156 228.734375 C 149.34375 229.339844 149.496094 229.949219 149.621094 230.570312 C 149.742188 231.1875 149.835938 231.8125 149.898438 232.4375 C 149.957031 233.066406 149.988281 233.695312 149.988281 234.328125 Z M 149.988281 234.328125 " fill-opacity="1" fill-rule="nonzero"/><path fill="#c6afc0" d="M 130.722656 254.910156 C 119.375 254.910156 110.140625 245.675781 110.140625 234.328125 C 110.140625 222.976562 119.375 213.742188 130.722656 213.742188 C 142.074219 213.742188 151.308594 222.976562 151.308594 234.328125 C 151.308594 245.675781 142.074219 254.910156 130.722656 254.910156 Z M 130.722656 216.382812 C 120.828125 216.382812 112.777344 224.433594 112.777344 234.328125 C 112.777344 244.222656 120.828125 252.273438 130.722656 252.273438 C 140.621094 252.273438 148.671875 244.222656 148.671875 234.328125 C 148.671875 224.433594 140.621094 216.382812 130.722656 216.382812 Z M 130.722656 216.382812 " fill-opacity="1" fill-rule="nonzero"/><path fill="#c6afc0" d="M 137.441406 235.648438 L 130.722656 235.648438 C 129.996094 235.648438 129.40625 235.054688 129.40625 234.328125 L 129.40625 222.8125 C 129.40625 222.085938 129.996094 221.496094 130.722656 221.496094 C 131.453125 221.496094 132.042969 222.085938 132.042969 222.8125 L 132.042969 233.007812 L 137.441406 233.007812 C 138.171875 233.007812 138.761719 233.597656 138.761719 234.328125 C 138.761719 235.054688 138.171875 235.648438 137.441406 235.648438 Z M 137.441406 235.648438 " fill-opacity="1" fill-rule="nonzero"/><path fill="#c6afc0" d="M 150.113281 216.382812 L 146.34375 216.382812 C 145.617188 216.382812 145.027344 215.789062 145.027344 215.0625 C 145.027344 214.332031 145.617188 213.742188 146.34375 213.742188 L 150.113281 213.742188 C 150.84375 213.742188 151.433594 214.332031 151.433594 215.0625 C 151.433594 215.789062 150.84375 216.382812 150.113281 216.382812 Z M 150.113281 216.382812 " fill-opacity="1" fill-rule="nonzero"/></svg>