<svg xmlns="http://www.w3.org/2000/svg" xmlns:xlink="http://www.w3.org/1999/xlink" width="600" zoomAndPan="magnify" viewBox="0 0 450 213.75" height="285" preserveAspectRatio="xMidYMid meet" version="1.0"><defs><clipPath id="1dc8cc5fc1"><path d="M 5 8 L 443 8 L 443 213.5 L 5 213.5 Z M 5 8 " clip-rule="nonzero"/></clipPath></defs><g clip-path="url(#1dc8cc5fc1)"><path fill="#c6afc0" d="M 154.285156 88.824219 L 154.285156 88.84375 Z M 28.566406 92.324219 C 28.609375 92.339844 28.65625 92.339844 28.699219 92.359375 L 28.433594 92.253906 C 28.484375 92.269531 28.523438 92.296875 28.566406 92.324219 Z M 431.710938 88.976562 L 421.949219 100.050781 C 426 108.75 435.019531 131.679688 427.703125 150.15625 L 427.589844 150.441406 C 426.792969 152.644531 426.105469 154.875 425.507812 157.132812 L 422.066406 170.195312 C 421.871094 171.21875 420.871094 171.898438 419.84375 171.691406 C 418.816406 171.496094 418.140625 170.496094 418.34375 169.472656 L 420.378906 159.015625 L 413.796875 166.828125 C 413.117188 167.632812 411.921875 167.730469 411.128906 167.0625 C 410.324219 166.382812 410.226562 165.1875 410.894531 164.394531 L 422.484375 150.628906 L 410.449219 154.527344 C 409.433594 154.792969 408.398438 154.1875 408.128906 153.179688 C 407.863281 152.164062 408.46875 151.128906 409.476562 150.859375 L 425.1875 145.773438 C 429.613281 130.320312 422.964844 111.816406 419.183594 103.199219 L 372.121094 156.585938 L 372.121094 209.699219 L 383.65625 209.699219 L 383.65625 213.492188 L 368.320312 213.492188 L 368.320312 160.886719 L 368.035156 161.210938 C 366.589844 162.851562 364.5 163.832031 362.316406 163.902344 C 362.234375 163.902344 362.144531 163.902344 362.066406 163.902344 C 359.96875 163.902344 357.925781 163.066406 356.4375 161.574219 L 353.1875 158.328125 L 358.953125 213.484375 L 343.347656 213.484375 L 343.347656 209.691406 L 354.617188 209.691406 L 348.925781 154.054688 L 315.964844 121.113281 C 314.359375 123.933594 312.148438 126.753906 309.320312 129.527344 C 298.84375 139.804688 284.347656 145.515625 269.394531 145.515625 C 268.929688 145.515625 268.464844 145.480469 268.003906 145.472656 L 268.003906 151.566406 L 249.007812 143 C 243.914062 142.1875 239.355469 141.945312 235.179688 142.347656 C 217.613281 144 202.765625 128.082031 194.800781 117.242188 C 192.898438 133 178.0625 145.640625 177.320312 146.265625 L 177.125 146.425781 L 176.910156 146.550781 C 172.433594 149.183594 167.835938 150.707031 163.285156 151.402344 C 161.492188 151.679688 159.710938 151.816406 157.933594 151.851562 L 157.953125 151.691406 L 147.308594 150.824219 C 137.144531 148.738281 127.929688 143.640625 122.078125 139.816406 L 118.382812 208.773438 L 128.375 208.773438 C 129.417969 208.773438 130.277344 209.691406 130.277344 210.832031 C 130.277344 211.976562 129.429688 212.894531 128.375 212.894531 L 114.367188 212.894531 L 118.390625 137.28125 C 117.972656 136.976562 117.589844 136.691406 117.257812 136.441406 C 115.796875 137.46875 114.269531 138.308594 112.691406 139.003906 L 112.664062 138.859375 L 111.585938 139.09375 C 107.730469 139.929688 103.8125 140.207031 99.949219 139.914062 L 110.050781 212.882812 L 93.25 212.882812 C 92.207031 212.882812 91.351562 211.964844 91.351562 210.824219 C 91.351562 209.683594 92.199219 208.761719 93.25 208.761719 L 105.625 208.761719 L 96.035156 139.421875 C 93.195312 138.921875 90.421875 138.101562 87.761719 136.949219 C 87.101562 136.664062 86.566406 136.40625 86.210938 136.191406 C 83.910156 137.753906 81.339844 138.804688 78.519531 139.242188 C 76.398438 139.574219 74.148438 139.617188 71.765625 139.394531 C 62.765625 138.53125 54.949219 132.785156 51.351562 124.378906 C 48.855469 125.039062 46.492188 125.558594 44.285156 125.886719 C 34.722656 127.351562 27.863281 125.796875 23.828125 121.222656 C 22.117188 119.277344 21.132812 116.886719 20.652344 114.332031 C 19.859375 121.933594 19.625 133.25 23.363281 142.582031 L 39.015625 146.488281 C 40.039062 146.746094 40.699219 147.953125 40.484375 149.183594 C 40.273438 150.414062 39.265625 151.207031 38.238281 150.949219 L 26.105469 147.914062 L 35.070312 162.253906 C 35.695312 163.261719 35.527344 164.6875 34.695312 165.4375 C 33.855469 166.195312 32.671875 165.992188 32.039062 164.984375 L 27.53125 157.785156 L 30.296875 168.425781 C 30.609375 169.632812 30.046875 170.90625 29.046875 171.273438 C 28.050781 171.648438 26.988281 170.980469 26.675781 169.773438 L 20.421875 145.667969 C 13.980469 131 16.835938 112.191406 17.957031 106.332031 C 14.15625 104.207031 11.089844 101.726562 8.910156 98.996094 C 7.574219 97.515625 6.691406 95.902344 6.128906 94.269531 C 5.671875 93.101562 5.359375 91.914062 5.210938 90.699219 C 3.925781 80.566406 12.75 71.597656 14.96875 69.511719 C 14.078125 66.351562 13.863281 63.21875 14.46875 60.4375 C 17.574219 46.144531 37.96875 37.945312 39.050781 37.515625 C 42.109375 31.671875 46.480469 27.355469 51.101562 24.5 C 58.019531 20.226562 66.253906 20.351562 73.050781 21.679688 C 92.054688 0 113.617188 11.507812 120.480469 16.121094 C 122.808594 13.835938 125.421875 12.242188 128.339844 11.464844 C 143.007812 7.558594 162.625 24.554688 162.804688 25.632812 C 165.695312 24.980469 168.210938 24.8125 169.960938 25.195312 C 184.628906 28.398438 192.605469 46.820312 193.800781 49.765625 C 198.5 50.917969 202.132812 53.023438 204.195312 56.152344 C 210.847656 66.273438 202.550781 82.125 201.640625 83.792969 C 204.730469 92.714844 201.632812 101.460938 201.160156 102.683594 C 200.304688 105.394531 199.125 107.875 197.261719 109.738281 C 203.488281 119.035156 218.085938 137.609375 234.574219 136.058594 C 237.078125 135.816406 239.683594 135.78125 242.414062 135.914062 L 267.984375 124.378906 L 267.984375 139.179688 C 281.796875 139.554688 295.257812 134.460938 304.886719 125.03125 C 307.855469 122.113281 309.996094 119.242188 311.28125 116.449219 L 291.183594 96.355469 C 283.5 88.683594 278.234375 79.351562 275.953125 69.359375 C 273.4375 58.367188 274.640625 48.320312 279.53125 39.480469 C 284.527344 30.449219 293.1875 23.742188 303.914062 20.601562 C 317.4375 16.640625 329.214844 17.503906 338.914062 23.171875 C 348.789062 28.941406 354.480469 38.515625 357.667969 46.347656 C 362.886719 33.0625 370.542969 23.9375 380.507812 19.144531 C 396.746094 11.339844 412.859375 18.183594 413.535156 18.476562 C 426.097656 23.632812 434.886719 31.859375 439.578125 42.914062 C 446.054688 58.136719 442.960938 76.210938 431.710938 88.976562 Z M 118.179688 29.015625 C 120.703125 27.933594 123.425781 27.257812 126.234375 27.308594 C 132.355469 27.417969 137.816406 30.273438 142.480469 35.785156 C 142.550781 35.820312 142.640625 35.867188 142.730469 35.910156 C 146.628906 32.457031 151.421875 29.691406 156.023438 27.808594 C 152.410156 24.542969 140.070312 14.335938 129.695312 17.101562 C 124.957031 18.378906 121.09375 22.375 118.179688 29.015625 Z M 122.371094 123.628906 C 123.46875 121.917969 123.191406 119.265625 122.53125 117.367188 L 120.105469 109.648438 C 119.578125 107.980469 120.648438 106.144531 122.46875 105.832031 C 123.90625 105.582031 125.253906 106.535156 125.691406 107.910156 L 126.976562 111.996094 C 130.828125 114.144531 141.105469 118.957031 149.992188 115.082031 C 156.59375 112.210938 161.332031 105.027344 164.132812 93.742188 C 164.035156 93.761719 163.9375 93.777344 163.839844 93.796875 C 161.066406 94.222656 157.933594 94.375 155.523438 94.421875 C 153.617188 94.457031 152.179688 92.851562 152.304688 90.992188 C 152.519531 90.378906 152.910156 89.859375 153.402344 89.46875 L 153.4375 89.261719 C 153.429688 89.324219 153.429688 89.386719 153.417969 89.449219 C 154 89.003906 154.710938 88.738281 155.488281 88.738281 C 159.671875 88.761719 167.515625 88.238281 171.648438 84.257812 C 174.234375 81.769531 174.921875 76.476562 174.769531 71.5625 C 174.714844 69.824219 176.1875 68.339844 178.015625 68.503906 C 179.453125 68.628906 180.542969 69.894531 180.578125 71.339844 C 180.773438 77.984375 179.453125 84.75 175.582031 88.460938 C 174.039062 89.941406 172.289062 91.03125 170.46875 91.859375 C 169.46875 96.695312 168.15625 100.960938 166.535156 104.664062 C 172.058594 106.527344 184.484375 109.558594 191.285156 106.144531 L 191.398438 106.082031 C 193.53125 104.976562 194.921875 103.296875 195.644531 100.960938 L 195.734375 100.71875 C 195.761719 100.648438 198.75 92.964844 196.074219 85.578125 C 195.261719 83.332031 192.683594 81.519531 190.980469 79.761719 C 189.785156 78.53125 189.902344 76.453125 191.425781 75.328125 C 192.59375 74.460938 194.238281 74.660156 195.234375 75.683594 C 196.074219 76.539062 197.003906 77.414062 197.894531 78.335938 C 200.125 73.203125 202.695312 64.558594 199.320312 59.445312 C 196.082031 54.53125 186.449219 54.164062 179.320312 54.746094 C 177.570312 54.886719 176.097656 53.441406 176.269531 51.59375 C 176.402344 50.148438 177.679688 49.027344 179.113281 48.910156 C 182.023438 48.679688 184.789062 48.640625 187.359375 48.8125 C 184.992188 44.066406 178.535156 33.074219 168.59375 30.914062 C 162.109375 29.503906 155.015625 32.136719 147.496094 38.710938 C 152.347656 41.960938 158.648438 47.542969 159.113281 54.851562 C 159.503906 61.125 155.648438 67.136719 147.636719 72.757812 C 147.136719 76.050781 145.253906 83.828125 138.5625 87.917969 C 133.132812 91.234375 126.039062 91.261719 117.417969 88.015625 C 116.722656 92.734375 114.644531 100.085938 108.480469 104.054688 C 106.535156 105.304688 104.367188 106.117188 101.976562 106.484375 C 97.113281 107.230469 90.351562 106.109375 83.488281 103.199219 C 81.855469 102.511719 81.269531 100.441406 82.320312 98.898438 C 83.140625 97.695312 84.765625 97.363281 86.078125 97.917969 C 94.1875 101.371094 101.304688 101.808594 105.417969 99.15625 C 111.90625 94.980469 111.949219 83.953125 111.949219 83.847656 L 111.886719 79.128906 L 116.117188 81.089844 C 124.601562 85.027344 131.148438 85.648438 135.585938 82.964844 C 141.367188 79.457031 141.992188 71.089844 142 71.007812 L 142.097656 69.535156 L 143.335938 68.707031 C 150.207031 64.140625 153.5625 59.652344 153.292969 55.367188 C 152.867188 48.472656 143.105469 42.558594 139.375 40.851562 L 138.777344 40.578125 L 138.359375 40.058594 C 134.710938 35.570312 130.5625 33.25 126.019531 33.164062 C 119.285156 33.039062 112.769531 38.960938 109.640625 42.289062 C 108.425781 43.582031 106.347656 43.554688 105.242188 42.121094 C 104.347656 40.96875 104.570312 39.292969 105.589844 38.222656 C 106.890625 36.855469 108.746094 35.0625 110.996094 33.332031 C 112.519531 28.550781 114.378906 24.367188 116.589844 20.957031 C 110.675781 17.039062 94.714844 8.992188 79.742188 23.472656 C 81.285156 23.992188 82.632812 24.507812 83.710938 24.953125 C 85.28125 25.605469 85.96875 27.523438 85.195312 29.113281 C 84.507812 30.53125 82.902344 31.171875 81.492188 30.59375 C 76.128906 28.378906 63.121094 24.0625 53.992188 29.71875 C 48.085938 33.375 42.109375 40.46875 40.808594 51.40625 C 40.601562 53.148438 38.863281 54.378906 37.097656 53.914062 C 35.722656 53.550781 34.867188 52.140625 35.035156 50.710938 C 35.257812 48.828125 35.605469 47.054688 36.042969 45.359375 C 30.378906 48.382812 21.742188 54.121094 20.125 61.597656 C 19.199219 65.878906 21.410156 72.078125 25.53125 76.738281 C 26.683594 78.039062 26.398438 80.144531 24.808594 81.152344 C 23.5625 81.949219 21.957031 81.589844 21.011719 80.503906 C 19.589844 78.878906 18.367188 77.121094 17.371094 75.300781 C 14.71875 78.171875 10.214844 84.027344 10.964844 89.90625 C 11.527344 94.285156 15.003906 98.132812 21.3125 101.371094 C 21.6875 99.710938 22.117188 98.222656 22.5 97.015625 C 23.027344 95.347656 24.820312 94.457031 26.433594 95 C 27.808594 95.617188 28.511719 97.167969 28.050781 98.648438 C 26.425781 103.859375 24.507812 113.148438 28.21875 117.339844 C 31.574219 121.132812 38.960938 121.640625 49.632812 118.867188 C 49.183594 116.457031 49.195312 114.171875 49.65625 112.03125 C 42.324219 106.546875 38.640625 100.621094 38.710938 94.382812 C 38.792969 87.792969 43.101562 82.839844 45.757812 80.414062 C 42.679688 73.730469 42.46875 68.199219 45.117188 63.941406 C 48.460938 58.570312 55.414062 57.089844 59.347656 56.699219 C 59.890625 52.28125 61.710938 48.785156 64.789062 46.269531 C 69.9375 42.066406 77.261719 41.960938 81.429688 42.335938 C 83.230469 42.496094 84.425781 44.269531 83.875 46.0625 C 83.453125 47.429688 82.035156 48.257812 80.632812 48.140625 C 77.378906 47.867188 71.882812 47.917969 68.386719 50.785156 C 66.117188 52.640625 65.003906 55.46875 64.996094 59.417969 L 64.984375 62.460938 L 61.960938 62.390625 C 59.464844 62.347656 52.433594 63.078125 50.023438 66.957031 C 47.882812 70.421875 49.90625 75.808594 51.976562 79.71875 L 53.199219 82.019531 L 51.015625 83.527344 C 50.960938 83.5625 44.582031 88.101562 44.527344 94.339844 C 44.492188 98.347656 47.042969 102.414062 52.09375 106.457031 C 54.832031 102.558594 58.980469 100.390625 61.808594 99.292969 C 58.882812 88.816406 59.773438 81.046875 64.476562 76.164062 C 71.097656 69.289062 83.160156 70.6875 88.824219 71.839844 C 91.074219 62.890625 95.375 56.914062 101.617188 54.058594 C 110.996094 49.765625 122.933594 55.109375 127.957031 57.582031 C 129.5625 58.367188 130.042969 60.453125 128.929688 61.945312 C 128.054688 63.113281 126.429688 63.390625 125.144531 62.765625 C 120.871094 60.675781 110.949219 56.136719 103.910156 59.367188 C 98.863281 61.6875 95.480469 67.234375 93.867188 75.855469 L 93.257812 79.101562 L 90.136719 78.183594 C 85.890625 76.933594 73.730469 74.863281 68.609375 80.191406 C 64.296875 84.667969 66.011719 93.554688 68.207031 100.210938 L 69.242188 103.34375 L 65.992188 104.039062 C 65.929688 104.054688 58.855469 105.679688 56.171875 110.820312 C 54.628906 113.773438 54.796875 117.511719 56.671875 121.925781 C 59.445312 128.464844 65.484375 132.9375 72.453125 133.605469 C 81.125 134.433594 87.191406 129.582031 90.636719 121.132812 C 91.296875 119.507812 93.285156 118.785156 94.847656 119.722656 C 96.070312 120.445312 96.496094 122.042969 95.953125 123.378906 C 94.597656 126.691406 92.867188 129.617188 90.816406 132.050781 C 93.910156 133.683594 99.488281 135.933594 105.570312 135.085938 C 105.652344 135.078125 105.730469 135.066406 105.8125 135.050781 C 111.984375 134.085938 117.910156 130.570312 122.371094 123.628906 Z M 189.167969 113.511719 C 188.890625 113.566406 188.617188 113.628906 188.332031 113.671875 C 178.613281 115.164062 166.480469 110.871094 163.796875 109.925781 C 160.691406 114.90625 157.34375 118.910156 152.695312 120.925781 C 150.789062 121.757812 148.851562 122.28125 146.941406 122.578125 C 140.277344 123.59375 133.28125 121.292969 128.6875 119.375 C 128.6875 121.765625 128.546875 124.648438 127.222656 126.707031 C 125.707031 129.074219 124.085938 131.152344 122.351562 132.953125 C 129.695312 138.199219 151.199219 151.539062 170.371094 143.367188 C 172.617188 142.410156 174.644531 140.957031 176.367188 139.199219 C 180.917969 134.585938 189.445312 124.398438 189.167969 113.511719 Z M 360.789062 56.152344 C 360.789062 56.164062 360.789062 56.164062 360.789062 56.152344 C 360.789062 56.164062 360.789062 56.164062 360.789062 56.152344 Z M 426.027344 83.953125 C 435.359375 73.375 437.9375 58.429688 432.609375 45.886719 C 428.722656 36.730469 421.316406 29.863281 410.59375 25.464844 C 410.394531 25.382812 396.789062 19.691406 383.726562 26.015625 C 373.609375 30.914062 366.242188 41.683594 361.816406 58.027344 C 361.308594 59.917969 359.59375 61.230469 357.632812 61.230469 C 357.605469 61.230469 357.578125 61.230469 357.550781 61.230469 C 355.5625 61.195312 353.847656 59.8125 353.402344 57.875 C 351.992188 51.800781 347.378906 36.902344 335.085938 29.71875 C 330.570312 27.078125 325.398438 25.757812 319.632812 25.757812 C 315.414062 25.757812 310.882812 26.460938 306.046875 27.878906 C 297.257812 30.460938 290.199219 35.875 286.175781 43.15625 C 282.214844 50.308594 281.269531 58.554688 283.355469 67.664062 C 285.320312 76.253906 289.886719 84.320312 296.554688 90.984375 L 361.808594 156.214844 C 361.886719 156.292969 361.984375 156.328125 362.082031 156.320312 C 362.246094 156.3125 362.324219 156.222656 362.351562 156.195312 L 368.328125 149.414062 L 368.328125 149.40625 L 368.339844 149.40625 Z M 241.15625 117.847656 L 243.308594 119.179688 C 243.539062 118.8125 249.105469 110.308594 265.058594 115.664062 L 265.863281 113.261719 C 247.910156 107.242188 241.425781 117.410156 241.15625 117.847656 Z M 252.140625 106.144531 C 255.976562 105.171875 260.214844 106.214844 264.753906 109.238281 L 266.15625 107.132812 C 260.980469 103.691406 256.054688 102.53125 251.488281 103.699219 C 244.636719 105.449219 241.253906 111.789062 241.113281 112.058594 L 243.351562 113.238281 C 243.386719 113.175781 246.394531 107.597656 252.140625 106.144531 Z M 257.3125 165.207031 C 260.367188 165.207031 263.460938 164.199219 266.308594 161.59375 L 264.59375 159.726562 C 255.324219 168.230469 243.636719 155.988281 243.144531 155.464844 L 241.300781 157.195312 C 244.546875 160.648438 250.828125 165.207031 257.3125 165.207031 Z M 258.324219 170.792969 C 251.222656 171.09375 243.207031 163.164062 243.128906 163.082031 L 241.335938 164.867188 C 241.683594 165.222656 249.828125 173.335938 257.921875 173.335938 C 258.089844 173.335938 258.261719 173.335938 258.429688 173.324219 C 261.578125 173.191406 264.273438 171.808594 266.433594 169.210938 L 264.488281 167.597656 C 262.785156 169.640625 260.765625 170.683594 258.324219 170.792969 Z M 258.324219 170.792969 " fill-opacity="1" fill-rule="nonzero"/></g></svg>