<svg xmlns="http://www.w3.org/2000/svg" xmlns:xlink="http://www.w3.org/1999/xlink" width="80" zoomAndPan="magnify" viewBox="0 0 60 60" height="80" preserveAspectRatio="xMidYMid meet" version="1.0"><path fill="#f8f9ee" d="M 29.988281 5.410156 C 37.992188 5.410156 38.941406 5.4375 42.109375 5.582031 C 45.027344 5.710938 46.617188 6.199219 47.683594 6.621094 C 49.074219 7.15625 50.074219 7.816406 51.125 8.867188 C 52.179688 9.917969 52.820312 10.917969 53.375 12.3125 C 53.78125 13.363281 54.269531 14.953125 54.414062 17.886719 C 54.558594 21.054688 54.582031 22 54.582031 30.007812 C 54.582031 38.011719 54.558594 38.960938 54.414062 42.128906 C 54.28125 45.046875 53.792969 46.636719 53.375 47.703125 C 52.835938 49.09375 52.179688 50.09375 51.125 51.144531 C 50.074219 52.199219 49.074219 52.84375 47.683594 53.394531 C 46.628906 53.800781 45.039062 54.289062 42.109375 54.433594 C 38.941406 54.578125 37.992188 54.601562 29.988281 54.601562 C 21.980469 54.601562 21.035156 54.578125 17.867188 54.433594 C 14.949219 54.300781 13.355469 53.816406 12.292969 53.394531 C 10.898438 52.855469 9.898438 52.199219 8.847656 51.144531 C 7.796875 50.09375 7.152344 49.09375 6.597656 47.703125 C 6.191406 46.648438 5.707031 45.058594 5.5625 42.128906 C 5.417969 38.960938 5.390625 38.011719 5.390625 30.007812 C 5.390625 22 5.417969 21.054688 5.5625 17.886719 C 5.691406 14.96875 6.179688 13.375 6.597656 12.3125 C 7.136719 10.917969 7.796875 9.917969 8.847656 8.867188 C 9.898438 7.816406 10.898438 7.171875 12.292969 6.621094 C 13.34375 6.210938 14.933594 5.726562 17.867188 5.582031 C 21.035156 5.4375 21.980469 5.410156 29.988281 5.410156 M 29.988281 0.0078125 C 21.835938 0.0078125 20.824219 0.046875 17.617188 0.191406 C 14.421875 0.335938 12.238281 0.847656 10.332031 1.585938 C 8.359375 2.347656 6.691406 3.371094 5.023438 5.042969 C 3.367188 6.710938 2.339844 8.378906 1.578125 10.351562 C 0.839844 12.257812 0.328125 14.441406 0.183594 17.636719 C 0.0390625 20.832031 0 21.855469 0 29.992188 C 0 38.144531 0.0390625 39.15625 0.183594 42.363281 C 0.328125 45.558594 0.839844 47.742188 1.578125 49.648438 C 2.339844 51.621094 3.367188 53.289062 5.035156 54.957031 C 6.703125 56.628906 8.375 57.652344 10.347656 58.414062 C 12.253906 59.152344 14.433594 59.664062 17.628906 59.808594 C 20.824219 59.953125 21.847656 59.992188 30 59.992188 C 38.152344 59.992188 39.164062 59.953125 42.371094 59.808594 C 45.566406 59.664062 47.746094 59.152344 49.652344 58.414062 C 51.625 57.652344 53.296875 56.628906 54.964844 54.957031 C 56.632812 53.289062 57.660156 51.621094 58.421875 49.648438 C 59.160156 47.742188 59.671875 45.558594 59.816406 42.363281 C 59.960938 39.167969 60 38.144531 60 29.992188 C 60 21.84375 59.960938 20.832031 59.816406 17.621094 C 59.671875 14.429688 59.160156 12.246094 58.421875 10.339844 C 57.660156 8.367188 56.632812 6.699219 54.964844 5.027344 C 53.296875 3.359375 51.625 2.332031 49.652344 1.570312 C 47.746094 0.835938 45.566406 0.320312 42.371094 0.175781 C 39.164062 0.046875 38.136719 0.0078125 29.988281 0.0078125 " fill-opacity="1" fill-rule="nonzero"/><path fill="#f8f9ee" d="M 29.988281 14.597656 C 21.480469 14.597656 14.59375 21.488281 14.59375 29.992188 C 14.59375 38.5 21.496094 45.402344 30 45.402344 C 38.503906 45.402344 45.40625 38.511719 45.40625 29.992188 C 45.394531 21.488281 38.492188 14.597656 29.988281 14.597656 M 29.988281 39.996094 C 24.464844 39.996094 19.996094 35.527344 19.996094 30.007812 C 19.996094 24.484375 24.464844 20.015625 29.988281 20.015625 C 35.507812 20.015625 39.976562 24.484375 39.976562 30.007812 C 39.992188 35.515625 35.507812 39.996094 29.988281 39.996094 " fill-opacity="1" fill-rule="nonzero"/><path fill="#f8f9ee" d="M 49.601562 13.996094 C 49.601562 15.980469 47.984375 17.597656 46 17.597656 C 44.015625 17.597656 42.398438 15.980469 42.398438 13.996094 C 42.398438 12.007812 44.015625 10.390625 46 10.390625 C 47.984375 10.390625 49.601562 11.996094 49.601562 13.996094 " fill-opacity="1" fill-rule="nonzero"/></svg>