<svg xmlns="http://www.w3.org/2000/svg" xmlns:xlink="http://www.w3.org/1999/xlink" width="80" zoomAndPan="magnify" viewBox="0 0 60 60" height="80" preserveAspectRatio="xMidYMid meet" version="1.0"><defs><clipPath id="003f9f694e"><path d="M 0 8 L 60 8 L 60 48.75 L 0 48.75 Z M 0 8 " clip-rule="nonzero"/></clipPath></defs><g clip-path="url(#003f9f694e)"><path fill="#2e363e" d="M 31.144531 37.226562 C 30.742188 37.628906 30.199219 37.851562 29.628906 37.851562 C 29.058594 37.851562 28.515625 37.628906 28.113281 37.226562 L 0.210938 9.320312 C 0.125 9.664062 0 9.992188 0 10.367188 L 0 44.652344 C 0 47.019531 1.917969 48.9375 4.285156 48.9375 L 55.714844 48.9375 C 58.074219 48.9375 60 47.019531 60 44.652344 L 60 10.367188 C 60 9.777344 59.875 9.214844 59.664062 8.710938 Z M 31.144531 37.226562 " fill-opacity="1" fill-rule="nonzero"/></g><path fill="#2e363e" d="M 29.628906 32.683594 L 56.144531 6.167969 C 55.992188 6.152344 55.867188 6.082031 55.714844 6.082031 L 4.285156 6.082031 C 3.914062 6.082031 3.585938 6.203125 3.238281 6.289062 Z M 29.628906 32.683594 " fill-opacity="1" fill-rule="nonzero"/></svg>