<svg xmlns="http://www.w3.org/2000/svg" xmlns:xlink="http://www.w3.org/1999/xlink" width="80" zoomAndPan="magnify" viewBox="0 0 60 60" height="80" preserveAspectRatio="xMidYMid meet" version="1.0"><path fill="#f8f9ee" d="M 20.511719 8.191406 C 20.796875 8.171875 21.046875 8.175781 21.316406 8.214844 C 21.464844 8.234375 21.679688 8.242188 22 8.40625 C 22.320312 8.574219 22.460938 8.761719 22.5 8.800781 C 23 9.316406 23.242188 9.882812 23.945312 11.542969 C 24.652344 13.195312 25.785156 15.964844 26.4375 17.640625 C 26.761719 18.484375 26.964844 19.046875 27.082031 19.53125 C 27.191406 19.980469 27.207031 20.550781 27.113281 20.902344 C 26.875 21.78125 26.28125 22.28125 25.296875 23.039062 C 24.550781 23.613281 23.628906 24.289062 22.941406 24.84375 C 23.828125 26.632812 24.886719 28.359375 26.144531 29.988281 L 26.277344 30.15625 C 28.515625 33.015625 31.199219 35.351562 34.128906 37.203125 C 34.742188 36.582031 35.480469 35.796875 36.113281 35.152344 C 36.984375 34.261719 37.546875 33.730469 38.453125 33.59375 C 38.808594 33.542969 39.375 33.628906 39.8125 33.792969 C 40.273438 33.964844 40.808594 34.230469 41.613281 34.65625 C 43.199219 35.496094 45.816406 36.945312 47.375 37.839844 C 48.941406 38.734375 49.46875 39.042969 49.921875 39.597656 C 49.960938 39.640625 50.128906 39.804688 50.253906 40.140625 C 50.386719 40.476562 50.363281 40.695312 50.371094 40.84375 C 50.375 41.382812 50.269531 41.839844 50.058594 42.628906 C 49.640625 44.191406 48.769531 46.832031 48.144531 48.453125 C 47.832031 49.261719 47.597656 49.789062 47.347656 50.226562 C 47.105469 50.65625 46.789062 51.023438 46.511719 51.25 C 46.320312 51.402344 45.683594 51.710938 45.207031 51.777344 C 44.632812 51.84375 43.984375 51.828125 42.945312 51.726562 C 40.871094 51.523438 37.222656 50.957031 33.292969 49.148438 C 32.546875 48.804688 31.796875 48.414062 31.054688 48.003906 C 30.53125 47.710938 30.015625 47.414062 29.511719 47.105469 C 25.035156 44.351562 21.019531 40.742188 17.765625 36.535156 C 17.75 36.523438 17.738281 36.507812 17.726562 36.5 C 15.367188 33.445312 13.417969 30.085938 11.933594 26.554688 C 11.617188 25.769531 11.3125 24.976562 11.0625 24.195312 C 9.726562 20.082031 9.59375 16.390625 9.636719 14.308594 C 9.65625 13.261719 9.714844 12.617188 9.855469 12.058594 C 9.972656 11.597656 10.355469 10.996094 10.535156 10.820312 C 10.785156 10.574219 11.1875 10.300781 11.648438 10.105469 C 12.109375 9.914062 12.660156 9.742188 13.496094 9.53125 C 15.1875 9.101562 17.902344 8.542969 19.507812 8.308594 C 19.910156 8.25 20.230469 8.214844 20.511719 8.191406 Z M 7.867188 0 C 3.511719 0 0 3.511719 0 7.867188 L 0 52.132812 C 0 56.488281 3.511719 60 7.867188 60 L 52.132812 60 C 56.488281 60 60 56.488281 60 52.132812 L 60 7.867188 C 60 3.511719 56.488281 0 52.132812 0 L 7.867188 0 " fill-opacity="1" fill-rule="nonzero"/></svg>