<svg xmlns="http://www.w3.org/2000/svg" xmlns:xlink="http://www.w3.org/1999/xlink" width="600" zoomAndPan="magnify" viewBox="0 0 450 213.75" height="285" preserveAspectRatio="xMidYMid meet" version="1.0"><defs><clipPath id="21f104b6b6"><path d="M 148 55 L 279 55 L 279 165 L 148 165 Z M 148 55 " clip-rule="nonzero"/></clipPath><clipPath id="43e807c5b4"><path d="M 200.328125 332.121094 L 0.300781 105 L 249.910156 -114.832031 L 449.9375 112.289062 Z M 200.328125 332.121094 " clip-rule="nonzero"/></clipPath><clipPath id="0521cfa6aa"><path d="M 200.328125 332.121094 L 0.300781 105 L 249.910156 -114.832031 L 449.9375 112.289062 Z M 200.328125 332.121094 " clip-rule="nonzero"/></clipPath><clipPath id="23dbff3bae"><path d="M 277 79 L 435 79 L 435 161 L 277 161 Z M 277 79 " clip-rule="nonzero"/></clipPath><clipPath id="75ddc82fdc"><path d="M 200.328125 332.121094 L 0.300781 105 L 249.910156 -114.832031 L 449.9375 112.289062 Z M 200.328125 332.121094 " clip-rule="nonzero"/></clipPath><clipPath id="b7e23adb13"><path d="M 200.328125 332.121094 L 0.300781 105 L 249.910156 -114.832031 L 449.9375 112.289062 Z M 200.328125 332.121094 " clip-rule="nonzero"/></clipPath><clipPath id="bda1abb1ac"><path d="M 144 64 L 180 64 L 180 161 L 144 161 Z M 144 64 " clip-rule="nonzero"/></clipPath><clipPath id="0993b2c765"><path d="M 200.328125 332.121094 L 0.300781 105 L 249.910156 -114.832031 L 449.9375 112.289062 Z M 200.328125 332.121094 " clip-rule="nonzero"/></clipPath><clipPath id="e539c5b233"><path d="M 200.328125 332.121094 L 0.300781 105 L 249.910156 -114.832031 L 449.9375 112.289062 Z M 200.328125 332.121094 " clip-rule="nonzero"/></clipPath><clipPath id="1115924ffd"><path d="M 153 145 L 275 145 L 275 172 L 153 172 Z M 153 145 " clip-rule="nonzero"/></clipPath><clipPath id="a9e98ed217"><path d="M 200.328125 332.121094 L 0.300781 105 L 249.910156 -114.832031 L 449.9375 112.289062 Z M 200.328125 332.121094 " clip-rule="nonzero"/></clipPath><clipPath id="c342c1532d"><path d="M 200.328125 332.121094 L 0.300781 105 L 249.910156 -114.832031 L 449.9375 112.289062 Z M 200.328125 332.121094 " clip-rule="nonzero"/></clipPath><clipPath id="f495288ffb"><path d="M 26 113 L 117 113 L 117 121 L 26 121 Z M 26 113 " clip-rule="nonzero"/></clipPath><clipPath id="2e636bf4b8"><path d="M 200.328125 332.121094 L 0.300781 105 L 249.910156 -114.832031 L 449.9375 112.289062 Z M 200.328125 332.121094 " clip-rule="nonzero"/></clipPath><clipPath id="24569a4ac9"><path d="M 200.328125 332.121094 L 0.300781 105 L 249.910156 -114.832031 L 449.9375 112.289062 Z M 200.328125 332.121094 " clip-rule="nonzero"/></clipPath><clipPath id="efd8106e69"><path d="M 274 121 L 384 121 L 384 129 L 274 129 Z M 274 121 " clip-rule="nonzero"/></clipPath><clipPath id="90b0928dba"><path d="M 200.328125 332.121094 L 0.300781 105 L 249.910156 -114.832031 L 449.9375 112.289062 Z M 200.328125 332.121094 " clip-rule="nonzero"/></clipPath><clipPath id="c7aa36b5af"><path d="M 200.328125 332.121094 L 0.300781 105 L 249.910156 -114.832031 L 449.9375 112.289062 Z M 200.328125 332.121094 " clip-rule="nonzero"/></clipPath><clipPath id="69b1e0a725"><path d="M 68 43 L 127 43 L 127 79 L 68 79 Z M 68 43 " clip-rule="nonzero"/></clipPath><clipPath id="eb26ecc9bc"><path d="M 200.328125 332.121094 L 0.300781 105 L 249.910156 -114.832031 L 449.9375 112.289062 Z M 200.328125 332.121094 " clip-rule="nonzero"/></clipPath><clipPath id="39c3a84ae2"><path d="M 200.328125 332.121094 L 0.300781 105 L 249.910156 -114.832031 L 449.9375 112.289062 Z M 200.328125 332.121094 " clip-rule="nonzero"/></clipPath><clipPath id="655e639479"><path d="M 138 76 L 153 76 L 153 161 L 138 161 Z M 138 76 " clip-rule="nonzero"/></clipPath><clipPath id="d19b97dfde"><path d="M 200.328125 332.121094 L 0.300781 105 L 249.910156 -114.832031 L 449.9375 112.289062 Z M 200.328125 332.121094 " clip-rule="nonzero"/></clipPath><clipPath id="0e58818502"><path d="M 200.328125 332.121094 L 0.300781 105 L 249.910156 -114.832031 L 449.9375 112.289062 Z M 200.328125 332.121094 " clip-rule="nonzero"/></clipPath><clipPath id="c21d9961aa"><path d="M 65 155 L 129 155 L 129 181 L 65 181 Z M 65 155 " clip-rule="nonzero"/></clipPath><clipPath id="7ee08750d3"><path d="M 200.328125 332.121094 L 0.300781 105 L 249.910156 -114.832031 L 449.9375 112.289062 Z M 200.328125 332.121094 " clip-rule="nonzero"/></clipPath><clipPath id="d6bc15f85c"><path d="M 200.328125 332.121094 L 0.300781 105 L 249.910156 -114.832031 L 449.9375 112.289062 Z M 200.328125 332.121094 " clip-rule="nonzero"/></clipPath><clipPath id="ac30293579"><path d="M 69 85 L 118 85 L 118 98 L 69 98 Z M 69 85 " clip-rule="nonzero"/></clipPath><clipPath id="4264625875"><path d="M 200.328125 332.121094 L 0.300781 105 L 249.910156 -114.832031 L 449.9375 112.289062 Z M 200.328125 332.121094 " clip-rule="nonzero"/></clipPath><clipPath id="b9549849db"><path d="M 200.328125 332.121094 L 0.300781 105 L 249.910156 -114.832031 L 449.9375 112.289062 Z M 200.328125 332.121094 " clip-rule="nonzero"/></clipPath><clipPath id="24f375a177"><path d="M 106 18 L 133 18 L 133 49 L 106 49 Z M 106 18 " clip-rule="nonzero"/></clipPath><clipPath id="ec77848143"><path d="M 200.328125 332.121094 L 0.300781 105 L 249.910156 -114.832031 L 449.9375 112.289062 Z M 200.328125 332.121094 " clip-rule="nonzero"/></clipPath><clipPath id="85d7ca9355"><path d="M 200.328125 332.121094 L 0.300781 105 L 249.910156 -114.832031 L 449.9375 112.289062 Z M 200.328125 332.121094 " clip-rule="nonzero"/></clipPath><clipPath id="6d93e86a3d"><path d="M 116 176 L 148 176 L 148 203 L 116 203 Z M 116 176 " clip-rule="nonzero"/></clipPath><clipPath id="4b96d1961a"><path d="M 200.328125 332.121094 L 0.300781 105 L 249.910156 -114.832031 L 449.9375 112.289062 Z M 200.328125 332.121094 " clip-rule="nonzero"/></clipPath><clipPath id="3bfc55b0c1"><path d="M 200.328125 332.121094 L 0.300781 105 L 249.910156 -114.832031 L 449.9375 112.289062 Z M 200.328125 332.121094 " clip-rule="nonzero"/></clipPath><clipPath id="4e955f41bd"><path d="M 66 139 L 113 139 L 113 151 L 66 151 Z M 66 139 " clip-rule="nonzero"/></clipPath><clipPath id="fb88aa3ccf"><path d="M 200.328125 332.121094 L 0.300781 105 L 249.910156 -114.832031 L 449.9375 112.289062 Z M 200.328125 332.121094 " clip-rule="nonzero"/></clipPath><clipPath id="211d2927c5"><path d="M 200.328125 332.121094 L 0.300781 105 L 249.910156 -114.832031 L 449.9375 112.289062 Z M 200.328125 332.121094 " clip-rule="nonzero"/></clipPath><clipPath id="3132f91eb2"><path d="M 394 120 L 405 120 L 405 128 L 394 128 Z M 394 120 " clip-rule="nonzero"/></clipPath><clipPath id="f0ba8b2d0d"><path d="M 200.328125 332.121094 L 0.300781 105 L 249.910156 -114.832031 L 449.9375 112.289062 Z M 200.328125 332.121094 " clip-rule="nonzero"/></clipPath><clipPath id="3557f845da"><path d="M 200.328125 332.121094 L 0.300781 105 L 249.910156 -114.832031 L 449.9375 112.289062 Z M 200.328125 332.121094 " clip-rule="nonzero"/></clipPath><clipPath id="16fb90f2d5"><path d="M 256 88 L 261 88 L 261 109 L 256 109 Z M 256 88 " clip-rule="nonzero"/></clipPath><clipPath id="888a66b694"><path d="M 200.328125 332.121094 L 0.300781 105 L 249.910156 -114.832031 L 449.9375 112.289062 Z M 200.328125 332.121094 " clip-rule="nonzero"/></clipPath><clipPath id="f88d23b3f3"><path d="M 200.328125 332.121094 L 0.300781 105 L 249.910156 -114.832031 L 449.9375 112.289062 Z M 200.328125 332.121094 " clip-rule="nonzero"/></clipPath><clipPath id="1d1ecb942b"><path d="M 263 98 L 268 98 L 268 118 L 263 118 Z M 263 98 " clip-rule="nonzero"/></clipPath><clipPath id="ea266c6137"><path d="M 200.328125 332.121094 L 0.300781 105 L 249.910156 -114.832031 L 449.9375 112.289062 Z M 200.328125 332.121094 " clip-rule="nonzero"/></clipPath><clipPath id="855abd0462"><path d="M 200.328125 332.121094 L 0.300781 105 L 249.910156 -114.832031 L 449.9375 112.289062 Z M 200.328125 332.121094 " clip-rule="nonzero"/></clipPath><clipPath id="23163007a7"><path d="M 248 82 L 254 82 L 254 96 L 248 96 Z M 248 82 " clip-rule="nonzero"/></clipPath><clipPath id="90c245106b"><path d="M 200.328125 332.121094 L 0.300781 105 L 249.910156 -114.832031 L 449.9375 112.289062 Z M 200.328125 332.121094 " clip-rule="nonzero"/></clipPath><clipPath id="22ebc72c54"><path d="M 200.328125 332.121094 L 0.300781 105 L 249.910156 -114.832031 L 449.9375 112.289062 Z M 200.328125 332.121094 " clip-rule="nonzero"/></clipPath></defs><g clip-path="url(#21f104b6b6)"><g clip-path="url(#43e807c5b4)"><g clip-path="url(#0521cfa6aa)"><path fill="#2e363e" d="M 191.65625 161.84375 C 200.59375 152.039062 203.738281 140.042969 204.78125 127.261719 C 206.488281 106.253906 202.375 86.417969 192.484375 67.800781 C 191.101562 65.238281 189.199219 62.875 187.484375 60.429688 C 187.316406 60.136719 186.816406 59.871094 186.496094 59.804688 C 181.878906 59.652344 177.308594 59.550781 172.691406 59.398438 C 172.597656 59.390625 172.59375 59.484375 172.5 59.480469 C 173.546875 60.667969 174.691406 61.765625 175.636719 63.042969 C 179.25 67.941406 181.28125 73.539062 182.730469 79.375 C 185.660156 91.382812 186.890625 103.65625 186.621094 116.019531 C 186.457031 126.707031 184.636719 137.011719 180.828125 146.953125 C 180.273438 148.320312 179.71875 149.6875 179.003906 151.371094 C 178.984375 150.949219 178.898438 150.851562 178.902344 150.757812 C 181.820312 143.09375 182.796875 135.027344 183.683594 126.953125 C 184.960938 114.933594 185.070312 102.886719 183.21875 90.808594 C 182.363281 85.148438 180.945312 79.542969 178.566406 74.347656 C 175.578125 67.664062 170.601562 62.910156 163.003906 61.867188 C 158.925781 61.328125 155.6875 63.039062 153.1875 66.382812 C 151.964844 67.988281 150.46875 69.480469 149.109375 71.03125 C 148.960938 71.160156 148.71875 71.285156 148.328125 71.542969 C 148.355469 71.074219 148.332031 70.746094 148.441406 70.472656 C 150.277344 65.871094 152.601562 61.628906 157.144531 59.207031 C 160.433594 57.453125 163.953125 56.460938 167.582031 55.988281 C 173.851562 55.125 180.21875 54.875 186.574219 55.605469 C 190.84375 56.0625 195.074219 56.378906 199.351562 56.742188 C 205.246094 57.351562 211.140625 57.957031 217.03125 58.660156 C 223.335938 59.433594 229.710938 60.585938 235.640625 62.828125 C 239.292969 64.183594 242.765625 66.132812 246.042969 68.253906 C 252.6875 72.507812 259.6875 75.566406 267.550781 76.816406 C 270.417969 77.277344 273.203125 78.339844 275.996094 79.21875 C 277.09375 79.570312 278.175781 80.199219 278.230469 81.558594 C 278.269531 82.398438 276.996094 83.347656 275.449219 83.390625 C 273.15625 83.476562 270.90625 83.613281 268.675781 83.378906 C 259.125 82.214844 250.449219 79.046875 243.046875 72.738281 C 241.277344 71.222656 239.105469 70.058594 236.820312 68.558594 C 237.257812 70.453125 237.628906 71.972656 237.910156 73.484375 C 238.765625 77.652344 239.523438 81.90625 240.472656 86.078125 C 243.066406 98.203125 244.164062 110.417969 242.863281 122.808594 C 241.945312 131.347656 240.296875 139.652344 236.808594 147.5625 C 234.621094 152.5625 231.636719 156.859375 227.1875 159.988281 C 226.992188 160.160156 226.75 160.285156 226.308594 160.585938 C 226.375 160.261719 226.386719 160.078125 226.488281 159.988281 C 231.203125 154.867188 234.34375 148.855469 236.621094 142.363281 C 239.242188 134.960938 240.378906 127.371094 240.636719 119.585938 C 241.023438 108.351562 239.996094 97.304688 237.609375 86.316406 C 236.488281 81.152344 234.214844 76.476562 231.847656 71.792969 C 230.894531 69.910156 230.03125 68.035156 229.027344 66.195312 C 228.816406 65.855469 228.222656 65.582031 227.722656 65.410156 C 226.851562 65.121094 225.972656 65.019531 224.914062 64.71875 C 225.078125 65.101562 225.117188 65.246094 225.246094 65.394531 C 228.042969 69.167969 230.359375 73.195312 232.046875 77.503906 C 234.863281 84.691406 236.871094 92.0625 237.597656 99.769531 C 238.628906 110.722656 238.871094 121.667969 236.964844 132.574219 C 235.585938 140.289062 233.382812 147.765625 228.902344 154.347656 C 227.148438 156.949219 225.082031 159.292969 222.316406 160.941406 C 221.734375 161.277344 221.066406 161.515625 220.488281 161.757812 C 220.402344 161.660156 220.359375 161.609375 220.320312 161.46875 C 220.617188 161.207031 220.828125 160.84375 221.117188 160.675781 C 224.761719 157.730469 227.289062 154.011719 229.148438 149.738281 C 232.804688 141.421875 234.34375 132.59375 234.824219 123.5625 C 235.738281 106.238281 232.246094 89.804688 224.734375 74.191406 C 222.792969 70.191406 220.214844 66.664062 216.65625 63.820312 C 216.34375 63.566406 215.992188 63.265625 215.667969 63.199219 C 211.535156 62.796875 207.402344 62.394531 203.175781 61.984375 C 204.128906 64.660156 205.089844 67.152344 205.914062 69.679688 C 208.769531 78.410156 211.382812 87.269531 212.488281 96.402344 C 214.105469 109.914062 214.273438 123.472656 210.996094 136.8125 C 209.050781 144.679688 205.78125 152.042969 200.613281 158.347656 C 198.792969 160.570312 196.398438 162.238281 194.261719 164.207031 C 194.113281 164.335938 193.878906 164.367188 193.511719 164.25 C 193.667969 164.027344 193.820312 163.804688 194.019531 163.628906 C 200.539062 158.0625 204.542969 150.933594 207.109375 142.875 C 211.359375 129.640625 212.78125 116.089844 210.941406 102.332031 C 209.96875 94.839844 208.902344 87.34375 206.320312 80.21875 C 203.933594 73.621094 200.972656 67.265625 196.753906 61.578125 C 195.808594 60.304688 194.410156 61.007812 192.898438 60.492188 C 193.941406 62.472656 194.820312 64.070312 195.703125 65.667969 C 206.054688 85.109375 210.253906 105.839844 207.972656 127.792969 C 207.285156 134.195312 205.675781 140.449219 203.101562 146.40625 C 200.519531 152.457031 196.960938 157.789062 191.65625 161.84375 Z M 191.65625 161.84375 " fill-opacity="1" fill-rule="nonzero"/></g></g></g><g clip-path="url(#23dbff3bae)"><g clip-path="url(#75ddc82fdc)"><g clip-path="url(#b7e23adb13)"><path fill="#2e363e" d="M 322.738281 153.246094 C 313.457031 153.777344 304.355469 154.324219 295.257812 154.867188 C 292.398438 155.011719 289.941406 154.015625 288.261719 151.714844 C 287.578125 150.734375 287.183594 149.589844 286.566406 148.289062 C 283.8125 148.253906 280.726562 148.246094 277.601562 148.1875 C 277.5625 148.046875 277.574219 147.859375 277.539062 147.714844 C 278.292969 147.578125 279.0625 147.253906 279.8125 147.207031 C 288.613281 146.222656 297.421875 145.054688 306.214844 144.164062 C 324.554688 142.335938 342.847656 140.460938 361.210938 138.960938 C 375.300781 137.800781 389.496094 137.15625 403.65625 136.375 C 405.015625 136.320312 406.359375 136.453125 407.714844 136.492188 C 408.085938 136.515625 408.457031 136.539062 408.792969 136.417969 C 419.320312 132.507812 426.050781 125.085938 428.386719 114.070312 C 430.382812 104.664062 426.246094 95.476562 418.078125 90.195312 C 417.003906 89.472656 415.871094 88.886719 414.742188 88.300781 C 412.925781 87.4375 411.039062 86.992188 408.945312 86.90625 C 370.746094 85.136719 332.550781 83.273438 294.363281 81.320312 C 290.449219 81.164062 286.558594 80.636719 282.65625 80.296875 C 282.148438 80.214844 281.636719 80.136719 281.054688 79.773438 C 281.667969 79.671875 282.28125 79.570312 282.890625 79.5625 C 290.742188 79.5 298.652344 79.300781 306.492188 79.425781 C 332.777344 79.738281 359.046875 80.234375 385.328125 80.640625 C 393.261719 80.769531 401.152344 80.851562 409.078125 81.074219 C 414.441406 81.273438 419.0625 83.527344 423.148438 86.871094 C 436.972656 97.980469 438.285156 119.320312 426.019531 132.234375 C 421.257812 137.304688 415.699219 140.96875 408.792969 142.304688 C 407.988281 142.488281 407.136719 142.621094 406.300781 142.570312 C 396.925781 142.300781 387.636719 143.628906 378.308594 144.109375 C 363.542969 144.902344 348.769531 145.789062 334.003906 146.578125 C 333.066406 146.613281 332.539062 146.8125 332.289062 147.824219 C 332.046875 148.652344 331.53125 149.460938 330.878906 150.117188 C 329.210938 152.117188 327.449219 154.105469 325.601562 156 C 323.957031 157.621094 321.84375 158.515625 319.5 158.648438 C 311.101562 159.191406 302.65625 159.773438 294.214844 160.269531 C 292.386719 160.386719 290.535156 160.082031 288.679688 159.871094 C 285.566406 159.625 283.636719 157.632812 282.257812 155.070312 C 281.671875 154.003906 281.382812 152.679688 281.085938 151.445312 C 280.902344 150.640625 281.136719 149.90625 281.992188 149.679688 C 282.847656 149.453125 283.226562 150.085938 283.609375 150.71875 C 284.3125 152.117188 285.011719 153.609375 285.859375 154.972656 C 286.539062 156.042969 287.664062 156.722656 288.972656 156.710938 C 292.890625 156.867188 296.796875 157.113281 300.6875 156.941406 C 306.683594 156.667969 312.65625 156.066406 318.664062 155.605469 C 319.980469 155.5 321.269531 155.070312 322.179688 154.003906 C 322.375 153.832031 322.480469 153.652344 322.738281 153.246094 Z M 322.738281 153.246094 " fill-opacity="1" fill-rule="nonzero"/></g></g></g><g clip-path="url(#bda1abb1ac)"><g clip-path="url(#0993b2c765)"><g clip-path="url(#e539c5b233)"><path fill="#2e363e" d="M 169.667969 76.117188 C 169.046875 77.105469 168.285156 78.039062 167.890625 79.089844 C 166.796875 82.335938 165.613281 85.578125 164.933594 88.898438 C 162.449219 100.84375 161.402344 112.925781 161.886719 125.148438 C 162.144531 130.632812 162.3125 136.109375 163.699219 141.476562 C 164.339844 143.898438 164.980469 146.324219 166.570312 148.527344 C 166.128906 148.125 165.496094 147.804688 165.203125 147.273438 C 164.371094 145.628906 163.398438 144.027344 162.902344 142.265625 C 159.523438 130.746094 157.984375 118.921875 158.328125 106.84375 C 158.511719 100.265625 158.746094 93.648438 160.554688 87.222656 C 161.695312 83.226562 162.925781 79.335938 164.203125 75.398438 C 164.777344 73.660156 165.363281 71.828125 167.066406 70.765625 C 164.328125 66.761719 161.507812 67.050781 158.9375 70.019531 C 157.019531 72.234375 155.589844 74.898438 154.4375 77.582031 C 152.179688 83 150.785156 88.796875 149.945312 94.628906 C 149.300781 98.886719 148.886719 103.207031 148.382812 107.519531 C 148.339844 108.171875 148.527344 108.882812 148.351562 109.480469 C 148.214844 110.125 147.882812 110.945312 147.394531 111.289062 C 147.046875 111.59375 146.023438 111.527344 145.71875 111.183594 C 145.234375 110.730469 145.003906 109.96875 144.90625 109.261719 C 144.773438 108.414062 145.0625 107.542969 145.023438 106.699219 C 144.960938 99.546875 146.011719 92.558594 147.4375 85.59375 C 148.449219 80.660156 150.015625 75.851562 152.582031 71.484375 C 153.785156 69.457031 155.40625 67.503906 157.144531 65.886719 C 159.96875 63.308594 163.976562 63.46875 166.957031 65.855469 C 169.402344 67.832031 171.015625 70.363281 172.433594 73.070312 C 175.296875 78.71875 176.730469 84.835938 177.644531 91.0625 C 180.023438 107.332031 179.324219 123.5 175.640625 139.570312 C 174.429688 144.679688 172.757812 149.667969 169.726562 154.007812 C 168.492188 155.796875 166.890625 157.46875 165.128906 158.761719 C 162.386719 160.734375 159.28125 160.304688 156.660156 158.222656 C 154.171875 156.195312 152.566406 153.476562 151.25 150.683594 C 148.164062 144.089844 146.933594 137.003906 146.214844 129.902344 C 145.847656 126.09375 145.859375 122.21875 145.773438 118.425781 C 145.773438 117.726562 146.277344 117.105469 146.554688 116.421875 C 146.84375 117.046875 147.265625 117.726562 147.367188 118.339844 C 148.285156 124.472656 149.019531 130.59375 150.082031 136.6875 C 150.980469 141.699219 152.496094 146.511719 154.773438 151.09375 C 155.773438 153.027344 156.914062 154.921875 158.75 156.207031 C 160.625 157.539062 162.628906 157.621094 164.269531 156.089844 C 165.5625 154.863281 166.773438 153.445312 167.710938 151.914062 C 170.582031 147.191406 171.996094 141.816406 173.082031 136.464844 C 176.625 118.9375 176.289062 101.394531 172.347656 83.949219 C 171.769531 81.296875 170.855469 78.761719 170.042969 76.140625 C 169.992188 76.1875 169.804688 76.175781 169.667969 76.117188 Z M 169.667969 76.117188 " fill-opacity="1" fill-rule="nonzero"/></g></g></g><g clip-path="url(#1115924ffd)"><g clip-path="url(#a9e98ed217)"><g clip-path="url(#c342c1532d)"><path fill="#2e363e" d="M 153.441406 162.550781 C 153.75 162.804688 154.113281 163.015625 154.375 163.3125 C 157.539062 166.410156 161.453125 168.058594 165.777344 168.378906 C 169.730469 168.675781 173.695312 168.789062 177.632812 168.570312 C 186.960938 168.085938 196.257812 167.371094 205.648438 166.65625 C 214.800781 165.976562 223.816406 164.539062 232.445312 161.066406 C 237.148438 159.125 241.816406 156.945312 246.183594 154.417969 C 252.195312 150.96875 258.476562 148.421875 265.007812 146.359375 C 266.339844 145.976562 267.679688 145.503906 269.09375 145.3125 C 270.316406 145.203125 271.667969 145.242188 272.859375 145.597656 C 273.457031 145.777344 274.191406 146.710938 274.242188 147.367188 C 274.300781 147.929688 273.675781 148.917969 273.101562 149.164062 C 271.609375 149.863281 270.078125 150.421875 268.464844 150.785156 C 262.441406 152.226562 256.566406 154.234375 251.390625 157.738281 C 242.066406 164.109375 231.554688 167.039062 220.566406 168.632812 C 208.117188 170.457031 195.625 171.441406 183.019531 171.296875 C 177.460938 171.269531 171.886719 171.523438 166.382812 170.660156 C 162.726562 170.101562 159.179688 169.269531 156.308594 166.703125 C 155.335938 165.800781 154.472656 164.71875 153.554688 163.679688 C 153.335938 163.433594 153.269531 163.054688 153.191406 162.769531 C 153.191406 162.769531 153.292969 162.679688 153.441406 162.550781 Z M 153.441406 162.550781 " fill-opacity="1" fill-rule="nonzero"/></g></g></g><g clip-path="url(#f495288ffb)"><g clip-path="url(#2e636bf4b8)"><g clip-path="url(#24569a4ac9)"><path fill="#2e363e" d="M 116.421875 115.632812 C 115.386719 115.753906 114.394531 115.921875 113.410156 116 C 95.636719 117.070312 77.902344 118.1875 60.132812 119.160156 C 51.507812 119.640625 42.941406 119.894531 34.328125 120.1875 C 32.875 120.234375 31.421875 120.285156 30.035156 120.101562 C 27.992188 119.878906 26.726562 118.445312 26.699219 116.714844 C 26.667969 114.984375 27.972656 113.570312 29.957031 113.230469 C 30.898438 113.101562 31.882812 113.023438 32.769531 113.035156 C 58.699219 113.042969 84.683594 113.710938 110.640625 114.75 C 112.457031 114.820312 114.3125 115.03125 116.167969 115.242188 C 116.261719 115.246094 116.347656 115.347656 116.484375 115.402344 C 116.433594 115.445312 116.429688 115.539062 116.421875 115.632812 Z M 116.421875 115.632812 " fill-opacity="1" fill-rule="nonzero"/></g></g></g><g clip-path="url(#efd8106e69)"><g clip-path="url(#90b0928dba)"><g clip-path="url(#c7aa36b5af)"><path fill="#2e363e" d="M 274.855469 127.410156 C 280.144531 127.230469 285.441406 126.960938 290.734375 126.78125 C 305.066406 126.195312 319.34375 125.746094 333.691406 124.972656 C 340.066406 124.632812 346.390625 123.632812 352.742188 122.960938 C 357.160156 122.492188 361.625 122.074219 366.035156 121.792969 C 370.632812 121.523438 375.269531 121.304688 379.855469 121.222656 C 382.988281 121.1875 384.570312 123.484375 383.414062 126.261719 C 382.75 127.898438 381.105469 128.027344 379.746094 128.082031 C 374.308594 128.390625 368.914062 128.75 363.445312 128.730469 C 352.378906 128.636719 341.289062 128.214844 330.226562 128.023438 C 315.144531 127.863281 300.058594 127.792969 285.023438 127.679688 C 281.660156 127.65625 278.292969 127.722656 274.878906 127.738281 C 274.886719 127.644531 274.847656 127.503906 274.855469 127.410156 Z M 274.855469 127.410156 " fill-opacity="1" fill-rule="nonzero"/></g></g></g><g clip-path="url(#69b1e0a725)"><g clip-path="url(#eb26ecc9bc)"><g clip-path="url(#39c3a84ae2)"><path fill="#2e363e" d="M 126.511719 78.101562 C 125.558594 77.710938 124.644531 77.375 123.738281 76.941406 C 111.136719 70.816406 98.585938 64.648438 86.035156 58.480469 C 82.183594 56.597656 78.328125 54.8125 74.472656 52.933594 C 73.070312 52.238281 71.621094 51.492188 70.28125 50.566406 C 68.488281 49.328125 67.960938 47.335938 68.8125 45.707031 C 69.710938 44.035156 71.761719 43.371094 73.757812 44.339844 C 75.527344 45.152344 77.238281 46.195312 78.898438 47.28125 C 93.1875 56.222656 107.433594 65.117188 121.675781 74.101562 C 123.109375 75.035156 124.503906 75.917969 125.890625 76.890625 C 126.199219 77.144531 126.417969 77.394531 126.730469 77.644531 C 126.71875 77.832031 126.613281 78.011719 126.511719 78.101562 Z M 126.511719 78.101562 " fill-opacity="1" fill-rule="nonzero"/></g></g></g><g clip-path="url(#655e639479)"><g clip-path="url(#d19b97dfde)"><g clip-path="url(#0e58818502)"><path fill="#2e363e" d="M 147.085938 76.414062 C 146.898438 77.105469 146.761719 77.84375 146.574219 78.53125 C 144.722656 84.910156 142.957031 91.382812 142.625 98.089844 C 142.4375 101.769531 142.71875 105.476562 142.71875 109.167969 C 142.773438 112.722656 142.777344 116.320312 142.925781 119.882812 C 143.160156 125.035156 143.34375 130.234375 143.949219 135.410156 C 144.542969 140.773438 145.894531 146 147.671875 151.113281 C 148.625 153.789062 149.671875 156.378906 151.734375 158.519531 C 151.996094 158.816406 152.054688 159.378906 152.03125 159.75 C 151.96875 159.980469 151.429688 160.367188 151.199219 160.304688 C 150.832031 160.191406 150.335938 159.925781 150.21875 159.589844 C 148.285156 154.703125 146.257812 149.808594 144.5625 144.886719 C 142.152344 137.960938 140.453125 130.84375 139.375 123.535156 C 139.152344 121.886719 138.886719 120.1875 138.523438 118.574219 C 137.734375 114.785156 138.207031 111.03125 138.820312 107.242188 C 139.773438 101.039062 140.773438 94.890625 141.957031 88.75 C 142.65625 85.058594 143.730469 81.386719 145.625 78.050781 C 145.988281 77.464844 146.355469 76.882812 146.667969 76.339844 C 146.765625 76.253906 146.902344 76.308594 147.085938 76.414062 Z M 147.085938 76.414062 " fill-opacity="1" fill-rule="nonzero"/></g></g></g><g clip-path="url(#c21d9961aa)"><g clip-path="url(#7ee08750d3)"><g clip-path="url(#d6bc15f85c)"><path fill="#2e363e" d="M 128.4375 156.011719 C 127.480469 156.417969 126.511719 156.917969 125.507812 157.273438 C 108.433594 164.226562 91.3125 171.222656 74.238281 178.175781 C 72.800781 178.738281 71.496094 179.453125 70.09375 180.15625 C 68.503906 180.945312 66.976562 180.707031 66.074219 179.480469 C 64.734375 177.761719 65.632812 175.390625 67.867188 174.738281 C 75.734375 172.292969 83.640625 169.898438 91.460938 167.402344 C 103.191406 163.660156 114.929688 159.828125 126.660156 156.085938 C 127.183594 155.886719 127.75 155.828125 128.277344 155.628906 C 128.359375 155.820312 128.445312 155.917969 128.4375 156.011719 Z M 128.4375 156.011719 " fill-opacity="1" fill-rule="nonzero"/></g></g></g><g clip-path="url(#ac30293579)"><g clip-path="url(#4264625875)"><g clip-path="url(#b9549849db)"><path fill="#2e363e" d="M 117.707031 97.632812 C 117.105469 97.546875 116.496094 97.554688 115.894531 97.46875 C 101.414062 95.195312 86.984375 92.878906 72.554688 90.5625 C 72.046875 90.484375 71.492188 90.355469 70.996094 90.089844 C 69.863281 89.503906 69.328125 88.394531 69.589844 87.195312 C 69.847656 86.09375 70.835938 85.21875 72.101562 85.160156 C 72.523438 85.140625 73.035156 85.21875 73.449219 85.292969 C 84.386719 88.136719 95.277344 91.023438 106.167969 93.910156 C 109.519531 94.824219 112.875 95.734375 116.175781 96.691406 C 116.730469 96.820312 117.230469 96.992188 117.777344 97.214844 C 117.765625 97.402344 117.710938 97.539062 117.707031 97.632812 Z M 117.707031 97.632812 " fill-opacity="1" fill-rule="nonzero"/></g></g></g><g clip-path="url(#24f375a177)"><g clip-path="url(#ec77848143)"><g clip-path="url(#85d7ca9355)"><path fill="#2e363e" d="M 132.707031 48.21875 C 131.171875 46.671875 129.589844 45.078125 128.050781 43.53125 C 121.425781 36.804688 114.789062 30.167969 108.160156 23.441406 C 107.675781 22.988281 107.246094 22.402344 106.960938 21.777344 C 106.546875 20.910156 106.742188 20.03125 107.527344 19.429688 C 108.316406 18.824219 109.152344 18.878906 109.910156 19.441406 C 110.402344 19.796875 110.886719 20.25 111.230469 20.738281 C 116.898438 27.871094 122.523438 34.957031 128.191406 42.089844 C 129.53125 43.8125 130.917969 45.488281 132.257812 47.207031 C 132.476562 47.457031 132.644531 47.746094 132.90625 48.042969 C 132.804688 48.128906 132.757812 48.175781 132.707031 48.21875 Z M 132.707031 48.21875 " fill-opacity="1" fill-rule="nonzero"/></g></g></g><g clip-path="url(#6d93e86a3d)"><g clip-path="url(#4b96d1961a)"><g clip-path="url(#3bfc55b0c1)"><path fill="#2e363e" d="M 147.300781 176.832031 C 144.234375 179.535156 141.171875 182.144531 138.148438 184.894531 C 132.933594 189.75 127.808594 194.703125 122.679688 199.660156 C 122.128906 200.230469 121.617188 200.945312 121.066406 201.519531 C 119.824219 202.699219 118.007812 202.632812 117.058594 201.355469 C 116.0625 200.125 116.359375 198.371094 117.773438 197.476562 C 127.785156 191.386719 136.753906 184.011719 146.167969 177.039062 C 146.414062 176.820312 146.707031 176.652344 147.046875 176.441406 C 147.128906 176.632812 147.214844 176.734375 147.300781 176.832031 Z M 147.300781 176.832031 " fill-opacity="1" fill-rule="nonzero"/></g></g></g><g clip-path="url(#4e955f41bd)"><g clip-path="url(#fb88aa3ccf)"><g clip-path="url(#211d2927c5)"><path fill="#2e363e" d="M 112.148438 140.308594 C 107.21875 141.398438 102.339844 142.441406 97.5 143.632812 C 88.289062 145.945312 79.074219 148.347656 69.859375 150.753906 C 68.289062 151.167969 67.058594 150.671875 66.8125 149.394531 C 66.519531 148.160156 67.433594 147.003906 68.984375 146.867188 C 82.246094 145.464844 95.347656 142.980469 108.488281 140.542969 C 109.71875 140.339844 110.894531 140.183594 112.121094 139.980469 C 112.117188 140.074219 112.109375 140.167969 112.148438 140.308594 Z M 112.148438 140.308594 " fill-opacity="1" fill-rule="nonzero"/></g></g></g><g clip-path="url(#3132f91eb2)"><g clip-path="url(#f0ba8b2d0d)"><g clip-path="url(#3557f845da)"><path fill="#2e363e" d="M 395.804688 120.972656 C 395.851562 120.929688 395.851562 120.929688 395.902344 120.886719 C 397.429688 119.625 402.3125 119.984375 403.714844 121.472656 C 405.550781 123.460938 404.785156 126.679688 402.125 127.351562 C 400.371094 127.757812 398.460938 127.679688 396.648438 127.519531 C 395.257812 127.339844 394.5 126.074219 394.253906 124.796875 C 393.929688 123.234375 394.664062 121.972656 395.804688 120.972656 Z M 395.804688 120.972656 " fill-opacity="1" fill-rule="nonzero"/></g></g></g><g clip-path="url(#16fb90f2d5)"><g clip-path="url(#888a66b694)"><g clip-path="url(#f88d23b3f3)"><path fill="#2e363e" d="M 260.054688 108.109375 C 259.929688 107.867188 259.804688 107.625 259.773438 107.390625 C 258.734375 101.625 257.742188 95.910156 256.707031 90.144531 C 256.601562 89.621094 256.871094 89.03125 256.90625 88.472656 C 257.25 88.960938 257.785156 89.371094 257.984375 89.898438 C 259.339844 95.027344 260.414062 100.234375 260.589844 105.527344 C 260.632812 106.371094 260.484375 107.203125 260.433594 108.039062 C 260.289062 108.078125 260.148438 108.113281 260.054688 108.109375 Z M 260.054688 108.109375 " fill-opacity="1" fill-rule="nonzero"/></g></g></g><g clip-path="url(#1d1ecb942b)"><g clip-path="url(#ea266c6137)"><g clip-path="url(#855abd0462)"><path fill="#2e363e" d="M 266.988281 117.378906 C 266.507812 114.640625 266.078125 111.855469 265.597656 109.113281 C 265.074219 106.324219 264.449219 103.621094 263.875 100.875 C 263.800781 100.589844 263.6875 100.164062 263.796875 99.890625 C 263.964844 99.480469 264.242188 98.796875 264.519531 98.816406 C 264.941406 98.792969 265.621094 99.164062 265.738281 99.5 C 266.101562 100.410156 266.359375 101.5 266.4375 102.488281 C 266.835938 106.53125 267.183594 110.617188 267.4375 114.699219 C 267.523438 115.589844 267.324219 116.464844 267.316406 117.351562 C 267.175781 117.390625 267.082031 117.386719 266.988281 117.378906 Z M 266.988281 117.378906 " fill-opacity="1" fill-rule="nonzero"/></g></g></g><g clip-path="url(#23163007a7)"><g clip-path="url(#90c245106b)"><g clip-path="url(#22ebc72c54)"><path fill="#2e363e" d="M 250.472656 82.367188 C 251.160156 84.042969 251.953125 85.542969 252.417969 87.066406 C 253.027344 89.253906 253.394531 91.566406 253.859375 93.792969 C 253.929688 94.171875 253.90625 94.542969 253.882812 94.917969 C 253.816406 95.238281 253.5625 95.550781 253.449219 95.824219 C 253.234375 95.574219 252.871094 95.367188 252.796875 95.082031 C 252.152344 93.453125 251.558594 91.777344 251.011719 90.0625 C 250.269531 87.820312 249.617188 85.582031 248.964844 83.34375 C 248.84375 83.011719 249.070312 82.371094 249.363281 82.203125 C 249.511719 82.070312 250.058594 82.292969 250.472656 82.367188 Z M 250.472656 82.367188 " fill-opacity="1" fill-rule="nonzero"/></g></g></g></svg>