<svg xmlns="http://www.w3.org/2000/svg" xmlns:xlink="http://www.w3.org/1999/xlink" width="600" zoomAndPan="magnify" viewBox="0 0 450 213.75" height="285" preserveAspectRatio="xMidYMid meet" version="1.0"><defs><clipPath id="c9978adef5"><path d="M 0.261719 21.351562 L 449.734375 21.351562 L 449.734375 185.40625 L 0.261719 185.40625 Z M 0.261719 21.351562 " clip-rule="nonzero"/></clipPath></defs><g clip-path="url(#c9978adef5)"><path fill="#c6afc0" d="M 420.507812 54.867188 C 399.585938 53.074219 379.675781 62.734375 361.835938 72.6875 C 361.445312 72.703125 361.039062 72.808594 360.625 73.058594 C 354.066406 77.011719 351.738281 84.960938 352.476562 92.257812 C 353.371094 101.082031 358.457031 108.4375 362.171875 116.257812 C 366.109375 124.554688 366.023438 134.617188 371.738281 142.0625 C 374.394531 145.523438 378.027344 147.867188 382.394531 148.410156 C 387.03125 148.984375 391.648438 147.636719 396.011719 146.199219 C 403.820312 143.621094 411.867188 140.171875 417.054688 133.5 C 422.953125 125.914062 424.136719 115.464844 426.007812 106.328125 C 428.085938 96.15625 429.894531 85.871094 430.421875 75.488281 C 430.546875 73.011719 430.597656 70.535156 430.5625 68.058594 C 430.523438 65.742188 430.609375 63.183594 429.949219 60.941406 C 428.660156 56.585938 424.625 55.21875 420.507812 54.867188 Z M 425.472656 69.410156 C 425.492188 78.671875 424.300781 87.871094 422.644531 96.96875 C 421.792969 101.644531 420.824219 106.304688 419.835938 110.957031 C 418.957031 115.101562 418.164062 119.300781 416.765625 123.3125 C 414.132812 130.859375 408.550781 135.550781 401.414062 138.742188 C 397.976562 140.28125 394.328125 141.511719 390.695312 142.496094 C 386.851562 143.539062 382.554688 144.179688 378.980469 141.984375 C 371.988281 137.691406 371.570312 127.765625 369.394531 120.746094 C 366.675781 111.972656 360.585938 104.59375 358.230469 95.714844 C 356.726562 90.042969 357.058594 82.578125 361.746094 78.53125 C 361.875 78.480469 362.003906 78.433594 362.136719 78.359375 C 376.945312 70.003906 392.820312 61.621094 410.039062 60.042969 C 413.953125 59.6875 418.390625 59.335938 422.257812 60.214844 C 423.777344 60.558594 424.8125 61.1875 425.152344 62.789062 C 425.605469 64.90625 425.46875 67.253906 425.472656 69.410156 Z M 318.332031 80.914062 C 312.878906 79.722656 307.136719 79.445312 301.578125 79.074219 C 289.191406 78.253906 276.746094 78.363281 264.375 79.40625 C 258.472656 79.902344 252.539062 80.53125 246.699219 81.542969 C 242.09375 82.339844 237.320312 83.59375 233.414062 86.265625 C 232.328125 87.007812 231.363281 87.835938 230.472656 88.746094 C 227.234375 90.445312 224.898438 93.617188 223.792969 97.132812 C 222.027344 102.746094 223.617188 108.804688 225.15625 114.269531 C 228.351562 125.617188 232.5 136.703125 237.511719 147.375 C 239.800781 152.253906 242.441406 157.175781 246.503906 160.832031 C 250.167969 164.125 254.71875 166.242188 259.488281 167.375 C 270.054688 169.871094 281.515625 168.589844 292.148438 167.273438 C 297.679688 166.589844 303.394531 165.851562 308.203125 162.804688 C 312.078125 160.351562 315.105469 156.785156 317.382812 152.839844 C 319.761719 148.726562 321.410156 144.199219 322.769531 139.660156 C 324.476562 133.953125 325.894531 128.148438 327.097656 122.3125 C 328.324219 116.339844 329.289062 110.316406 330.023438 104.261719 C 330.667969 98.949219 332.097656 92.445312 329.15625 87.566406 C 326.847656 83.746094 322.535156 81.832031 318.332031 80.914062 Z M 325.699219 96.777344 C 325.308594 102.246094 324.542969 107.714844 323.640625 113.121094 C 321.960938 123.15625 319.808594 133.359375 316.332031 142.941406 C 313.394531 151.035156 308.648438 158.519531 299.871094 160.835938 C 294.863281 162.15625 289.546875 162.546875 284.402344 162.984375 C 279.460938 163.40625 274.480469 163.734375 269.519531 163.546875 C 260.480469 163.199219 251.632812 160.671875 246.3125 152.847656 C 243.210938 148.289062 241.023438 143.066406 238.871094 138.011719 C 236.5 132.441406 234.390625 126.753906 232.519531 120.992188 C 230.699219 115.382812 228.363281 109.285156 228.144531 103.34375 C 228.035156 100.34375 228.796875 97.007812 230.789062 94.820312 C 231.542969 94.800781 232.296875 94.480469 232.847656 93.71875 C 233.039062 93.453125 233.253906 93.214844 233.460938 92.972656 C 233.8125 92.835938 234.171875 92.714844 234.554688 92.625 C 235.820312 92.34375 236.363281 91.40625 236.375 90.417969 C 238.375 89.101562 240.683594 88.210938 242.984375 87.570312 C 247.636719 86.273438 252.511719 85.742188 257.300781 85.199219 C 268.511719 83.929688 279.816406 83.429688 291.097656 83.699219 C 296.511719 83.832031 301.925781 84.136719 307.320312 84.617188 C 311.714844 85.011719 316.535156 85.175781 320.660156 86.925781 C 322.125 87.546875 323.570312 88.445312 324.511719 89.757812 C 325.960938 91.792969 325.867188 94.402344 325.699219 96.777344 Z M 449.375 45.753906 C 449.246094 44.015625 447.832031 43.164062 446.480469 43.195312 C 446.054688 42.730469 445.519531 42.390625 444.878906 42.304688 C 425.660156 39.773438 406.445312 37.230469 387.234375 34.652344 C 367.992188 32.066406 348.757812 29.351562 329.464844 27.164062 C 310.285156 24.992188 291.007812 23.421875 271.695312 23.460938 C 262.050781 23.480469 252.402344 23.84375 242.757812 23.542969 C 233.386719 23.253906 223.945312 21.332031 214.570312 21.90625 C 205.789062 22.445312 197.394531 25.582031 190.066406 30.382812 C 183.25 34.847656 176.527344 40.785156 172.179688 47.777344 C 171.425781 48.054688 170.847656 48.71875 170.539062 49.523438 C 168.191406 55.609375 173.183594 61.878906 178.839844 63.667969 C 185.792969 65.867188 193.066406 61.46875 198.050781 57.027344 C 203.171875 52.46875 207.476562 47.539062 214.324219 45.660156 C 221.183594 43.773438 228.574219 44.171875 235.621094 44.167969 C 268.292969 44.148438 300.890625 46.050781 333.414062 49.101562 C 347.132812 50.390625 360.824219 51.984375 374.535156 53.347656 C 366.78125 56.921875 359.542969 61.507812 352.777344 66.921875 C 348.867188 70.050781 344.667969 73.671875 339.960938 75.878906 C 339.644531 75.792969 339.316406 75.726562 338.980469 75.707031 C 335.46875 75.492188 332.296875 73.320312 329.242188 71.785156 C 325.527344 69.917969 321.574219 68.53125 317.511719 67.652344 C 309.324219 65.882812 300.878906 65.808594 292.539062 65.671875 C 274.929688 65.386719 257.207031 65.476562 240.128906 70.355469 C 231.859375 72.714844 223.90625 75.746094 215.347656 76.613281 C 214.765625 76.175781 214.0625 75.914062 213.304688 75.960938 C 198.320312 76.890625 183.539062 73.035156 168.9375 70.195312 C 153.816406 67.253906 138.699219 64.3125 123.578125 61.371094 C 108.582031 58.453125 93.546875 55.726562 78.539062 52.886719 C 71.15625 51.492188 63.679688 50.203125 56.148438 50.097656 C 49.925781 50.015625 43.671875 50.816406 37.636719 52.3125 C 23.875 55.71875 11.351562 63.242188 1.539062 73.433594 C 0.609375 74.40625 0.289062 76.183594 1.105469 77.335938 C 6.429688 84.871094 15.632812 86.449219 24.265625 85.128906 C 34.132812 83.617188 42.304688 78.214844 51.40625 74.539062 C 55.835938 72.753906 60.71875 71.320312 65.558594 71.421875 C 69.328125 73.289062 73.367188 74.609375 77.414062 75.730469 C 82.582031 77.167969 87.769531 78.53125 92.972656 79.832031 C 103.375 82.425781 113.851562 84.753906 124.363281 86.84375 C 134.878906 88.929688 145.453125 90.714844 156.066406 92.222656 C 165.570312 93.570312 175.183594 94.316406 184.648438 95.898438 C 193.640625 97.402344 202.746094 99.996094 209.335938 106.640625 C 209.585938 106.886719 209.84375 107.074219 210.105469 107.234375 C 210.816406 108.734375 211.433594 110.257812 211.949219 111.84375 C 213.144531 115.507812 214.015625 119.269531 214.84375 123.027344 C 216.691406 131.410156 218.839844 139.703125 221.5 147.867188 C 222.832031 151.957031 224.320312 155.996094 225.761719 160.046875 C 227.136719 163.921875 228.523438 167.957031 230.746094 171.441406 C 234.84375 177.867188 241.691406 181.632812 248.945312 183.394531 C 256.644531 185.269531 264.8125 185.363281 272.691406 185.160156 C 281.375 184.9375 290.128906 184.0625 298.644531 182.304688 C 305.679688 180.855469 312.789062 178.433594 318.730469 174.308594 C 325.296875 169.746094 329.441406 163.585938 332.230469 156.171875 C 335.125 148.464844 336.222656 140.195312 337.796875 132.152344 C 338.738281 127.34375 339.820312 122.574219 341.105469 117.84375 C 341.644531 115.847656 342.007812 113.46875 343.105469 111.683594 C 343.246094 111.460938 343.382812 111.25 343.539062 111.074219 C 343.929688 111.484375 344.308594 111.910156 344.746094 112.320312 C 345.683594 113.199219 346.523438 114.125 347.398438 115.066406 C 349.027344 116.824219 350.253906 119.046875 351.144531 121.257812 C 353.335938 126.703125 353.917969 132.53125 354.9375 138.261719 C 356.058594 144.546875 357.875 150.742188 362.0625 155.703125 C 366.4375 160.894531 373.027344 163.542969 379.644531 164.269531 C 386.835938 165.054688 394.140625 163.050781 400.8125 160.511719 C 406.957031 158.171875 413.097656 155.394531 418.371094 151.414062 C 423.507812 147.539062 427.738281 142.777344 430.304688 136.832031 C 432.707031 131.273438 433.90625 125.363281 434.59375 119.367188 C 436.09375 106.234375 433.941406 91.945312 439.21875 79.480469 C 439.472656 78.878906 439.535156 78.320312 439.476562 77.8125 C 440.488281 76.21875 442.171875 74.941406 443.519531 73.734375 C 445.484375 71.980469 447.40625 70.117188 448.425781 67.632812 C 449.753906 64.40625 449.609375 60.613281 449.703125 57.175781 C 449.808594 53.359375 449.664062 49.566406 449.375 45.753906 Z M 340.65625 43.316406 C 325.28125 41.773438 309.867188 40.488281 294.441406 39.535156 C 278.722656 38.5625 262.980469 37.988281 247.230469 37.8125 C 239.617188 37.726562 231.964844 37.574219 224.355469 37.894531 C 217.625 38.175781 210.703125 39.207031 204.878906 42.804688 C 198.558594 46.707031 194.300781 53.277344 187.679688 56.726562 C 184.90625 58.171875 181.398438 58.90625 178.546875 57.296875 C 176.203125 55.972656 174.519531 53.480469 175.378906 50.769531 C 175.464844 50.5 175.480469 50.222656 175.457031 49.953125 C 180.605469 44.96875 185.445312 39.871094 191.539062 35.945312 C 197.558594 32.070312 204.417969 29.15625 211.585938 28.382812 C 220.625 27.40625 229.734375 29.570312 238.75 30.0625 C 248.15625 30.582031 257.578125 30.332031 266.988281 30.253906 C 304.726562 29.933594 342.0625 35.386719 379.371094 40.398438 C 389.859375 41.808594 400.339844 43.246094 410.824219 44.667969 C 403.621094 44.984375 396.453125 46.089844 389.460938 47.949219 C 388.667969 48.160156 387.902344 48.414062 387.125 48.644531 C 386.53125 48.167969 385.765625 47.875 384.945312 47.800781 C 370.160156 46.523438 355.421875 44.792969 340.65625 43.316406 Z M 199.714844 92.011719 C 188.277344 87.6875 175.011719 87.183594 163.222656 85.757812 C 141.703125 83.15625 120.289062 79.464844 99.175781 74.546875 C 93.296875 73.175781 87.441406 71.71875 81.609375 70.175781 C 78.296875 69.300781 74.976562 68.410156 71.621094 67.738281 C 71.316406 67.257812 70.828125 66.859375 70.101562 66.648438 C 50.488281 60.960938 35.597656 81.617188 16.238281 79.050781 C 13.34375 78.667969 10.480469 77.59375 8.253906 75.699219 C 15.898438 67.824219 25.570312 62.109375 36.09375 58.933594 C 41.929688 57.171875 47.921875 56.246094 54.019531 56.1875 C 61.199219 56.125 68.273438 57.339844 75.292969 58.707031 C 104.816406 64.449219 134.28125 70.496094 163.804688 76.257812 C 172.023438 77.863281 180.226562 79.5625 188.472656 81.03125 C 192.265625 81.707031 196.117188 82.3125 199.980469 82.695312 C 199.328125 85.753906 199.238281 88.925781 199.714844 92.011719 Z M 443.417969 66.394531 C 442.359375 68.453125 440.40625 69.945312 438.789062 71.550781 C 437.667969 72.664062 436.667969 73.898438 435.9375 75.277344 C 435.046875 75.460938 434.234375 76.09375 433.851562 77.332031 C 430.34375 88.542969 429.8125 100.519531 428.871094 112.160156 C 427.972656 123.242188 425.746094 134.222656 417.484375 142.285156 C 413.273438 146.394531 407.921875 149.335938 402.535156 151.617188 C 396.195312 154.308594 389.757812 156.417969 382.820312 156.527344 C 377.242188 156.613281 371.5 154.894531 367.65625 150.6875 C 363.855469 146.527344 362.648438 140.511719 361.628906 135.15625 C 360.433594 128.898438 359.445312 122.78125 356.546875 117.023438 C 355.234375 114.425781 353.476562 111.695312 351.230469 109.800781 C 351.027344 109.628906 350.808594 109.46875 350.589844 109.3125 C 350.730469 108.605469 350.625 107.824219 350.101562 107.027344 C 347.953125 103.746094 343.597656 103.15625 340.34375 105.1875 C 336.84375 107.375 335.949219 111.902344 334.984375 115.589844 C 332.859375 123.695312 331.152344 131.878906 329.378906 140.0625 C 327.90625 146.867188 326.09375 153.808594 322.066406 159.601562 C 318.1875 165.175781 312.625 169.066406 306.296875 171.398438 C 299.148438 174.03125 291.523438 175.277344 283.976562 176.0625 C 275.570312 176.941406 267.035156 177.207031 258.597656 176.632812 C 252.4375 176.210938 245.320312 175.003906 240.449219 170.761719 C 237.632812 168.3125 235.78125 165.0625 234.210938 161.71875 C 232.417969 157.90625 230.925781 153.964844 229.527344 149.992188 C 226.332031 140.902344 223.722656 131.636719 221.601562 122.246094 C 220.667969 118.113281 219.785156 113.949219 218.273438 109.984375 C 217.5 107.957031 216.613281 105.957031 215.558594 104.058594 C 215.554688 104.050781 215.546875 104.046875 215.542969 104.035156 C 215.597656 103.125 215.292969 102.167969 214.46875 101.328125 C 211.796875 98.609375 208.804688 96.464844 205.609375 94.714844 C 205.351562 93.953125 205.117188 93.183594 204.945312 92.398438 C 204.886719 92.140625 204.835938 91.882812 204.785156 91.621094 C 204.773438 91.558594 204.6875 91.027344 204.664062 90.914062 C 204.59375 90.378906 204.546875 89.835938 204.515625 89.292969 C 204.453125 88.105469 204.480469 86.917969 204.601562 85.738281 C 204.605469 85.699219 204.652344 85.34375 204.660156 85.257812 C 204.707031 84.949219 204.757812 84.636719 204.820312 84.328125 C 204.90625 83.898438 205.019531 83.472656 205.128906 83.042969 C 207.898438 83.144531 210.671875 83.097656 213.429688 82.808594 C 213.859375 82.765625 214.269531 82.652344 214.648438 82.492188 C 222.339844 82.820312 229.804688 80.472656 237.179688 78.371094 C 245.566406 75.984375 254.007812 74.5 262.710938 73.925781 C 271.582031 73.339844 280.460938 73.257812 289.347656 73.386719 C 297.476562 73.507812 305.769531 73.351562 313.789062 74.839844 C 318.03125 75.625 322.097656 76.875 325.945312 78.847656 C 330.195312 81.027344 334.25 83.207031 339.117188 83.511719 C 340.523438 83.597656 341.761719 82.679688 342.429688 81.476562 C 342.722656 81.378906 343.019531 81.285156 343.3125 81.175781 C 346.4375 80.003906 349.292969 78.144531 351.984375 76.195312 C 357.527344 72.191406 362.550781 67.632812 368.410156 64.058594 C 380.027344 56.972656 393.355469 52.46875 406.925781 51.308594 C 414.5625 50.65625 422.296875 50.933594 429.855469 52.21875 C 430.726562 52.367188 431.605469 52.226562 432.316406 51.816406 C 433.570312 51.605469 434.824219 51.394531 436.078125 51.1875 C 436.902344 51.050781 437.726562 50.910156 438.550781 50.777344 C 438.929688 50.710938 439.308594 50.648438 439.691406 50.585938 C 440.304688 50.484375 440.832031 50.203125 441.371094 49.90625 C 441.753906 49.695312 442.066406 49.34375 442.28125 48.9375 C 442.570312 48.976562 442.859375 49.011719 443.148438 49.054688 C 443.460938 49.097656 443.773438 49.097656 444.082031 49.082031 C 444.164062 51.601562 444.222656 54.121094 444.253906 56.640625 C 444.289062 59.664062 444.839844 63.613281 443.417969 66.394531 Z M 443.417969 66.394531 " fill-opacity="1" fill-rule="nonzero"/></g></svg>