<?xml version="1.0" encoding="UTF-8"?><svg id="Layer_1" xmlns="http://www.w3.org/2000/svg" xmlns:xlink="http://www.w3.org/1999/xlink" viewBox="0 0 213 98"><defs><clipPath id="clippath"><rect width="213" height="98" style="fill:none;"/></clipPath></defs><g style="clip-path:url(#clippath);"><g><path d="m125.84,0h-2.79l44.97,77.88,1.39-2.42L125.84,0Z" style="fill:#00b17f;"/><path d="m131.65,0h-2.79l42.07,72.84,1.4-2.42L131.65,0Z" style="fill:#00b17f;"/><path d="m143.28,0h-2.79l36.24,62.78,1.4-2.42L143.28,0Z" style="fill:#00b17f;"/><path d="m137.47,0h-2.79l39.16,67.82,1.39-2.42L137.47,0Z" style="fill:#00b17f;"/><path d="m120.04,0h-2.79l47.87,82.91,1.4-2.42L120.04,0Z" style="fill:#00b17f;"/><path d="m108.41,0h-2.79l53.68,92.96,1.4-2.41L108.41,0Z" style="fill:#00b17f;"/><path d="m114.21,0h-2.79l50.77,87.95,1.4-2.42L114.21,0Z" style="fill:#00b17f;"/><path d="m156.39,98l1.4-2.42L102.6,0h-2.79l56.58,98Z" style="fill:#00b17f;"/><path d="m211.61,2.39l1.38-2.39h-2.76l1.39,2.39Z" style="fill:#00b17f;"/><path d="m201.4,0h-2.79l7.2,12.45,1.39-2.41-5.79-10.04h0Z" style="fill:#00b17f;"/><path d="m195.58,0h-2.79l10.1,17.49,1.4-2.42-8.71-15.06Z" style="fill:#00b17f;"/><path d="m189.77,0h-2.79l13.02,22.51,1.39-2.42L189.77,0h0Z" style="fill:#00b17f;"/><path d="m207.22,0h-2.8l4.29,7.43,1.4-2.42-2.89-5.01h0Z" style="fill:#00b17f;"/><path d="m178.15,0h-2.79l18.81,32.59,1.4-2.42L178.15,0Z" style="fill:#00b17f;"/><path d="m172.34,0h-2.79l21.73,37.62,1.4-2.42L172.34,0Z" style="fill:#00b17f;"/><path d="m183.97,0h-2.79l15.9,27.55,1.4-2.42L183.97,0Z" style="fill:#00b17f;"/><path d="m166.53,0h-2.79l24.63,42.66,1.4-2.42L166.53,0Z" style="fill:#00b17f;"/><path d="m160.71,0h-2.79l27.53,47.68,1.39-2.42L160.71,0Z" style="fill:#00b17f;"/><path d="m1.42,41.15h10.76v-3.22h-7.22v-12.64H1.42v15.86Zm18.65.35c2.4,0,4.54-.95,5.53-3.09h.08l.45,2.76h2.12v-8.69h-7.27v3.09h3.13c-.42,1.99-1.95,2.72-3.58,2.72-2.64,0-4.49-1.95-4.49-5.04,0-2.91,1.74-5.07,4.57-5.07,1.91,0,3.21,1.08,3.55,2.59h3.84c-.32-3.77-3.32-5.81-7.39-5.81-4.94,0-8.3,3.16-8.3,8.29s3.46,8.27,7.77,8.27h-.01Zm21.42-8.68v-.08c1.68-.41,2.54-1.55,2.54-3.39,0-2.67-1.85-4.07-5.48-4.07h-7.55v15.86h7.55c3.69,0,5.86-1.67,5.86-4.72,0-2.03-.97-3.25-2.92-3.61h0Zm-6.96,5.14v-3.21h4.03c1.44,0,2.13.55,2.13,1.58,0,.91-.69,1.62-2.13,1.62h-4.03Zm0-6.2v-3.26h4.03c1.15,0,1.78.6,1.78,1.5,0,1.08-.63,1.76-1.78,1.76h-4.03Zm15.44,9.41h3.53v-12.74h4.77v-3.12h-13.07v3.12h4.77v12.74Zm19.97,2.11l3.03-1.82-1.01-1.74c1.77-1.48,2.81-3.75,2.81-6.51,0-4.9-3.31-8.25-8.22-8.25s-8.26,3.35-8.26,8.25,3.31,8.3,8.26,8.3c.79,0,1.54-.08,2.26-.27l1.15,2.03h-.01Zm-7.91-10.07c0-2.84,1.81-4.68,4.5-4.68s4.46,1.85,4.46,4.68c0,1.27-.36,2.35-1,3.16l-1.26-2.14-2.99,1.82,1.09,1.9h-.32c-2.69,0-4.5-1.89-4.5-4.75h.01Zm20.28-.27h3.84v2.17h-3.84v3.81h-2.17v-3.81h-3.84v-2.17h3.84v-3.85h2.17v3.85ZM5.93,62.02h3.86l5.93-15.86h-3.77l-4.04,11.69h-.08l-4.04-11.69H0l5.93,15.86Zm11.38,0h3.53v-15.86h-3.53v15.86Zm14.11.35c4.43,0,7.32-2.51,7.63-6.57h-3.76c-.27,2.07-1.68,3.35-3.87,3.35-2.81,0-4.59-1.95-4.59-5.07s1.77-5.04,4.59-5.04c1.91,0,3.21.97,3.55,2.59h3.82c-.31-3.61-3.09-5.81-7.36-5.81-5.12,0-8.32,3.18-8.32,8.27s3.18,8.29,8.32,8.29h0Zm12.65-.36h3.53v-12.74h4.77v-3.12h-13.07v3.12h4.77v12.74Zm16.56.35c4.91,0,8.22-3.39,8.22-8.3s-3.31-8.25-8.22-8.25-8.26,3.35-8.26,8.25,3.31,8.3,8.26,8.3Zm-4.5-8.3c0-2.84,1.81-4.68,4.5-4.68s4.46,1.85,4.46,4.68-1.81,4.75-4.46,4.75-4.5-1.89-4.5-4.75Zm14.98,7.97h3.53v-5.75h3.51c1.49,0,2.05.5,2.05,1.48v.81c0,1.85,0,2.49.38,3.46h3.58v-.14c-.36-1.01-.42-1.36-.42-3.32v-1.44c0-1.22-.65-2.09-2.09-2.45v-.1c1.74-.6,2.51-2.09,2.51-3.93,0-3.12-2.09-4.48-5.95-4.48h-7.11v15.86h.01Zm3.53-8.78v-3.86h3.58c1.53,0,2.26.6,2.26,1.74,0,1.5-.73,2.13-2.26,2.13h-3.58Zm15.86,8.78h3.53v-5.21l5.76-10.65h-4.04l-3.45,7.31h-.08l-3.45-7.31h-4.04l5.76,10.65v5.21ZM1.42,82.89h3.53v-15.86H1.42v15.86Zm6.52,0h3.53v-10.25h.1l6.3,10.25h3.96v-15.86h-3.53v10.36h-.1l-6.3-10.36h-3.96v15.86Zm23.11.35c3.96,0,6.16-1.9,6.16-5.03,0-2.66-1.37-4.05-4.5-4.68l-2.13-.42c-1.81-.36-2.58-.9-2.58-1.64,0-1.08.94-1.55,2.5-1.55s2.26.6,2.48,1.9h3.84c-.28-3.3-2.37-5.12-6.31-5.12s-6.23,1.86-6.23,4.79c0,2.59,1.58,4.21,4.63,4.86l2.99.63c1.19.24,1.67.64,1.67,1.26,0,1.26-.94,1.81-2.48,1.81s-2.71-.73-3.07-2.03h-3.9c.36,3.35,2.92,5.25,6.96,5.25v-.03Zm11.21-.35h3.53v-12.74h4.77v-3.12h-13.07v3.12h4.77v12.74Zm10.13,0h3.53v-15.86h-3.53v15.86Zm10.14,0h3.53v-12.74h4.77v-3.12h-13.07v3.12h4.77v12.74Zm16.62.35c4.4,0,6.48-1.89,6.48-5.74v-10.47h-3.53v9.18c0,3.04-.6,3.93-2.95,3.93s-2.96-.94-2.96-3.93v-9.18h-3.53v10.47c0,3.85,2.13,5.74,6.49,5.74Zm13.09-.35h3.53v-12.74h4.77v-3.12h-13.07v3.12h4.77v12.74Zm10.13,0h11.71v-3.22h-8.16v-3.28h7.39v-3.21h-7.39v-2.94h7.94v-3.22h-11.49v15.86Z" style="fill:#1d1366;"/></g></g></svg>