<?xml version="1.0" encoding="UTF-8"?><svg id="Layer_1" xmlns="http://www.w3.org/2000/svg" xmlns:xlink="http://www.w3.org/1999/xlink" viewBox="0 0 203 93"><defs><clipPath id="clippath"><rect width="203" height="93" style="fill:none;"/></clipPath></defs><g style="clip-path:url(#clippath);"><g><path d="m119.93,0h-2.66l42.86,73.91,1.32-2.3L119.93,0Z" style="fill:#1487f2;"/><path d="m125.47,0h-2.66l40.09,69.13,1.34-2.3L125.47,0Z" style="fill:#1487f2;"/><path d="m136.55,0h-2.66l34.54,59.57,1.34-2.3L136.55,0Z" style="fill:#1487f2;"/><path d="m131.01,0h-2.66l37.32,64.36,1.32-2.3L131.01,0Z" style="fill:#1487f2;"/><path d="m114.4,0h-2.66l45.62,78.68,1.34-2.3L114.4,0Z" style="fill:#1487f2;"/><path d="m103.32,0h-2.66l51.16,88.22,1.34-2.29L103.32,0Z" style="fill:#1487f2;"/><path d="m108.85,0h-2.66l48.39,83.46,1.34-2.3L108.85,0Z" style="fill:#1487f2;"/><path d="m149.05,93l1.34-2.3L97.78,0h-2.66l53.92,93Z" style="fill:#1487f2;"/><path d="m201.68,2.27l1.31-2.27h-2.63l1.32,2.27Z" style="fill:#1487f2;"/><path d="m191.94,0h-2.66l6.86,11.81,1.32-2.29-5.52-9.53h0Z" style="fill:#1487f2;"/><path d="m186.4,0h-2.66l9.62,16.59,1.34-2.3-8.3-14.3Z" style="fill:#1487f2;"/><path d="m180.86,0h-2.66l12.4,21.36,1.32-2.3L180.86,0h0Z" style="fill:#1487f2;"/><path d="m197.49,0h-2.67l4.09,7.05,1.34-2.3-2.75-4.76h0Z" style="fill:#1487f2;"/><path d="m169.78,0h-2.66l17.93,30.93,1.34-2.3L169.78,0Z" style="fill:#1487f2;"/><path d="m164.25,0h-2.66l20.71,35.7,1.34-2.3L164.25,0Z" style="fill:#1487f2;"/><path d="m175.33,0h-2.66l15.16,26.15,1.34-2.3L175.33,0Z" style="fill:#1487f2;"/><path d="m158.71,0h-2.66l23.47,40.48,1.34-2.3L158.71,0Z" style="fill:#1487f2;"/><path d="m153.16,0h-2.66l26.24,45.25,1.32-2.3L153.16,0Z" style="fill:#1487f2;"/><path d="m1.35,39.05h10.25v-3.06h-6.88v-12H1.35v15.05Zm17.78.33c2.29,0,4.33-.9,5.27-2.94h.08l.43,2.62h2.02v-8.25h-6.92v2.94h2.98c-.4,1.89-1.86,2.58-3.41,2.58-2.51,0-4.28-1.85-4.28-4.78,0-2.76,1.66-4.81,4.36-4.81,1.82,0,3.06,1.02,3.38,2.46h3.66c-.31-3.57-3.17-5.51-7.04-5.51-4.71,0-7.91,3-7.91,7.87s3.3,7.85,7.41,7.85h-.01Zm20.41-8.24v-.08c1.6-.39,2.42-1.47,2.42-3.22,0-2.54-1.76-3.87-5.23-3.87h-7.19v15.05h7.19c3.52,0,5.59-1.58,5.59-4.48,0-1.93-.92-3.08-2.78-3.43h0Zm-6.63,4.88v-3.04h3.84c1.38,0,2.03.52,2.03,1.5,0,.86-.66,1.54-2.03,1.54h-3.84Zm0-5.89v-3.1h3.84c1.1,0,1.7.57,1.7,1.42,0,1.02-.6,1.67-1.7,1.67h-3.84Zm14.72,8.93h3.37v-12.09h4.55v-2.96h-12.46v2.96h4.55v12.09Zm19.04,2.01l2.89-1.73-.96-1.65c1.68-1.41,2.67-3.56,2.67-6.18,0-4.65-3.15-7.83-7.83-7.83s-7.87,3.18-7.87,7.83,3.15,7.88,7.87,7.88c.75,0,1.47-.08,2.15-.25l1.1,1.93h-.01Zm-7.54-9.55c0-2.7,1.72-4.44,4.29-4.44s4.25,1.75,4.25,4.44c0,1.21-.35,2.23-.95,3l-1.2-2.03-2.85,1.73,1.04,1.81h-.31c-2.57,0-4.29-1.79-4.29-4.5h.01Zm19.33-.25h3.66v2.06h-3.66v3.61h-2.07v-3.61h-3.66v-2.06h3.66v-3.65h2.07v3.65ZM5.65,58.86h3.68l5.65-15.05h-3.6l-3.85,11.09h-.08l-3.85-11.09H0l5.65,15.05Zm10.84,0h3.37v-15.05h-3.37v15.05Zm13.45.33c4.22,0,6.98-2.38,7.27-6.23h-3.58c-.25,1.97-1.6,3.18-3.69,3.18-2.67,0-4.37-1.85-4.37-4.81s1.68-4.78,4.37-4.78c1.82,0,3.06.92,3.38,2.46h3.64c-.29-3.43-2.94-5.51-7.02-5.51-4.88,0-7.93,3.02-7.93,7.85s3.03,7.87,7.93,7.87h0Zm12.06-.35h3.37v-12.09h4.55v-2.96h-12.46v2.96h4.55v12.09Zm15.79.33c4.68,0,7.83-3.22,7.83-7.88s-3.15-7.83-7.83-7.83-7.87,3.18-7.87,7.83,3.15,7.88,7.87,7.88Zm-4.29-7.88c0-2.7,1.72-4.44,4.29-4.44s4.25,1.75,4.25,4.44-1.72,4.5-4.25,4.5-4.29-1.79-4.29-4.5Zm14.28,7.56h3.37v-5.46h3.34c1.42,0,1.95.48,1.95,1.41v.77c0,1.75,0,2.36.36,3.28h3.41v-.13c-.35-.96-.4-1.29-.4-3.15v-1.37c0-1.16-.61-1.98-1.99-2.33v-.09c1.66-.57,2.39-1.98,2.39-3.73,0-2.96-1.99-4.25-5.67-4.25h-6.78v15.05h.01Zm3.37-8.33v-3.67h3.41c1.46,0,2.15.57,2.15,1.65,0,1.42-.7,2.02-2.15,2.02h-3.41Zm15.12,8.33h3.37v-4.94l5.49-10.11h-3.85l-3.29,6.94h-.08l-3.29-6.94h-3.85l5.49,10.11v4.94ZM1.35,78.67h3.38v-5.97h6.46v-3.04h-6.44v-3h7.17v-3.06H1.35v15.05h0Zm18.75.35c4.2,0,6.18-1.79,6.18-5.45v-9.94h-3.37v8.72c0,2.88-.57,3.73-2.81,3.73s-2.82-.89-2.82-3.73v-8.72h-3.37v9.94c0,3.65,2.03,5.45,6.19,5.45Zm9.02-.33h3.37v-9.73h.09l6,9.73h3.77v-15.05h-3.37v9.83h-.09l-6-9.83h-3.77v15.05Zm16.08,0h5.69c5.33,0,7.9-2.92,7.9-7.77s-2.51-7.29-7.9-7.29h-5.69v15.05h0Zm3.37-3.04v-8.94h2.33c2.94,0,4.33,1.47,4.33,4.22,0,3-1.39,4.72-4.33,4.72h-2.33Z" style="fill:#1d1366;"/></g></g></svg>