<svg xmlns="http://www.w3.org/2000/svg" xmlns:xlink="http://www.w3.org/1999/xlink" width="490" zoomAndPan="magnify" viewBox="0 0 367.5 30.000001" height="40" preserveAspectRatio="xMidYMid meet" version="1.0"><defs><clipPath id="9d6881cfa2"><path d="M 160 0.734375 L 179 0.734375 L 179 28.316406 L 160 28.316406 Z M 160 0.734375 " clip-rule="nonzero"/></clipPath><clipPath id="3f9109a8c4"><path d="M 160 0.734375 L 180 0.734375 L 180 28.316406 L 160 28.316406 Z M 160 0.734375 " clip-rule="nonzero"/></clipPath><clipPath id="2977391f02"><path d="M 188 0.734375 L 207 0.734375 L 207 28.316406 L 188 28.316406 Z M 188 0.734375 " clip-rule="nonzero"/></clipPath><clipPath id="69efda62a9"><path d="M 187 0.734375 L 207 0.734375 L 207 28.316406 L 187 28.316406 Z M 187 0.734375 " clip-rule="nonzero"/></clipPath></defs><g clip-path="url(#9d6881cfa2)"><path fill="#2e363e" d="M 178.894531 9.949219 L 178.894531 19.074219 C 178.894531 21.550781 177.890625 23.792969 176.265625 25.417969 C 174.644531 27.042969 172.398438 28.046875 169.921875 28.046875 L 169.921875 18.925781 C 164.964844 18.925781 160.949219 14.90625 160.949219 9.949219 C 160.949219 4.996094 164.964844 0.980469 169.921875 0.980469 C 174.878906 0.980469 178.894531 4.996094 178.894531 9.949219 Z M 178.894531 9.949219 " fill-opacity="1" fill-rule="nonzero"/></g><g clip-path="url(#3f9109a8c4)"><path fill="#2e363e" d="M 169.921875 28.289062 L 169.679688 28.289062 L 169.679688 19.164062 C 164.707031 19.035156 160.707031 14.953125 160.707031 9.949219 C 160.707031 4.949219 164.839844 0.734375 169.921875 0.734375 C 175.003906 0.734375 179.136719 4.867188 179.136719 9.949219 L 179.136719 19.074219 C 179.136719 21.535156 178.179688 23.847656 176.4375 25.589844 C 174.699219 27.332031 172.382812 28.289062 169.921875 28.289062 Z M 169.921875 1.222656 C 165.109375 1.222656 161.191406 5.136719 161.191406 9.949219 C 161.191406 14.765625 165.109375 18.679688 169.921875 18.679688 L 170.167969 18.679688 L 170.167969 27.800781 C 172.40625 27.738281 174.503906 26.835938 176.09375 25.246094 C 177.742188 23.597656 178.652344 21.40625 178.652344 19.074219 L 178.652344 9.949219 C 178.652344 5.136719 174.734375 1.222656 169.921875 1.222656 Z M 169.921875 1.222656 " fill-opacity="1" fill-rule="nonzero"/></g><g clip-path="url(#2977391f02)"><path fill="#2e363e" d="M 206.070312 9.949219 L 206.070312 19.074219 C 206.070312 21.550781 205.066406 23.792969 203.441406 25.417969 C 201.820312 27.042969 199.574219 28.046875 197.097656 28.046875 L 197.097656 18.925781 C 192.140625 18.925781 188.125 14.90625 188.125 9.949219 C 188.125 4.996094 192.140625 0.980469 197.097656 0.980469 C 202.054688 0.980469 206.070312 4.996094 206.070312 9.949219 Z M 206.070312 9.949219 " fill-opacity="1" fill-rule="nonzero"/></g><g clip-path="url(#69efda62a9)"><path fill="#2e363e" d="M 197.097656 28.289062 L 196.855469 28.289062 L 196.855469 19.164062 C 191.882812 19.035156 187.878906 14.953125 187.878906 9.949219 C 187.878906 4.949219 192.015625 0.734375 197.097656 0.734375 C 202.179688 0.734375 206.3125 4.867188 206.3125 9.949219 L 206.3125 19.074219 C 206.3125 21.535156 205.355469 23.847656 203.613281 25.589844 C 201.875 27.332031 199.558594 28.289062 197.097656 28.289062 Z M 197.097656 1.222656 C 192.285156 1.222656 188.367188 5.136719 188.367188 9.949219 C 188.367188 14.765625 192.285156 18.679688 197.097656 18.679688 L 197.339844 18.679688 L 197.339844 27.800781 C 199.582031 27.738281 201.679688 26.835938 203.269531 25.246094 C 204.917969 23.597656 205.824219 21.40625 205.824219 19.074219 L 205.824219 9.949219 C 205.824219 5.136719 201.910156 1.222656 197.097656 1.222656 Z M 197.097656 1.222656 " fill-opacity="1" fill-rule="nonzero"/></g><path fill="#2e363e" d="M 227.339844 13.535156 L 360.734375 13.535156 L 360.734375 15.488281 L 227.339844 15.488281 Z M 227.339844 13.535156 " fill-opacity="1" fill-rule="nonzero"/><path fill="#2e363e" d="M 6.285156 13.535156 L 139.679688 13.535156 L 139.679688 15.488281 L 6.285156 15.488281 Z M 6.285156 13.535156 " fill-opacity="1" fill-rule="nonzero"/></svg>